<svg xmlns="http://www.w3.org/2000/svg" width="251.5" height="81.435" viewBox="0 0 251.5 81.435">
  <g id="Group_81" data-name="Group 81" transform="translate(-529.926 -51.223)">
    <g id="Group_11" data-name="Group 11" transform="translate(530.676 86.978)">
      <path id="Path_120" data-name="Path 120" d="M780.676,68.9c-12.49,0-12.49-9.925-24.976-9.925S743.209,68.9,730.719,68.9s-12.5-9.925-25-9.925-12.5,9.925-25,9.925-12.5-9.925-25-9.925-12.5,9.925-25,9.925-12.5-9.925-24.986-9.925c-12.509,0-12.509,9.925-25.014,9.925s-12.514-9.925-25.028-9.925S543.19,68.9,530.676,68.9" transform="translate(-530.676 -58.974)" fill="none" stroke="#5ca6c0" stroke-linecap="round" stroke-linejoin="round" stroke-width="1.5"/>
    </g>
    <g id="Group_12" data-name="Group 12" transform="translate(530.676 51.973)">
      <path id="Path_121" data-name="Path 121" d="M780.676,61.893c-12.49,0-12.49-9.92-24.976-9.92s-12.491,9.92-24.981,9.92-12.5-9.92-25-9.92-12.5,9.92-25,9.92-12.5-9.92-25-9.92-12.5,9.92-25,9.92-12.5-9.92-24.986-9.92c-12.509,0-12.509,9.92-25.014,9.92s-12.514-9.92-25.028-9.92-12.51,9.92-25.024,9.92" transform="translate(-530.676 -51.973)" fill="none" stroke="#5ca6c0" stroke-linecap="round" stroke-linejoin="round" stroke-width="1.5"/>
    </g>
    <g id="Group_13" data-name="Group 13" transform="translate(530.676 121.988)">
      <path id="Path_122" data-name="Path 122" d="M780.676,75.9c-12.49,0-12.49-9.92-24.976-9.92s-12.491,9.92-24.981,9.92-12.5-9.92-25-9.92-12.5,9.92-25,9.92-12.5-9.92-25-9.92-12.5,9.92-25,9.92-12.5-9.92-24.986-9.92c-12.509,0-12.509,9.92-25.014,9.92s-12.514-9.92-25.028-9.92-12.51,9.92-25.024,9.92" transform="translate(-530.676 -65.976)" fill="none" stroke="#5ca6c0" stroke-linecap="round" stroke-linejoin="round" stroke-width="1.5"/>
    </g>
  </g>
</svg>
