<svg xmlns="http://www.w3.org/2000/svg" width="147.707" height="166.642" viewBox="0 0 147.707 166.642">
  <g id="Group_85" data-name="Group 85" transform="translate(-886.146 -6736)">
    <path id="Path_57" data-name="Path 57" d="M276.2,201.166c-.4.018-.718-1.707-.974-4.241-.062-.624-.12-1.3-.175-2.008-2.787-.125-5.709-.205-8.723-.239.017.679.03,1.342.038,1.978.049,3.971-.1,6.942-.651,6.966-.511.022-1.413-2.982-2.39-6.99-.154-.633-.311-1.295-.467-1.971-21.709.03-39.245,2.583-39.245,5.728,0,3.165,17.744,5.731,39.632,5.731s39.631-2.566,39.631-5.731c0-2.426-10.437-4.5-25.171-5.334-.107.7-.212,1.371-.318,1.987C276.967,199.487,276.552,201.148,276.2,201.166Z" transform="translate(694.93 6696.523)" fill="#f9aa74"/>
    <g id="Group_3" data-name="Group 3" transform="translate(886.146 6736)">
      <path id="Path_58" data-name="Path 58" d="M288.376,190.431c.442-.216.878-.44,1.3-.674a26.51,26.51,0,0,0,7.025-5.531q-.821.225-1.738.4a44.615,44.615,0,0,1-8.081.784,30.422,30.422,0,0,1-9.227-1.337c-18.147-5.757-25.85-19.636-27.079-24.521a37.764,37.764,0,0,1-15.528-1.288,34.6,34.6,0,0,1-6.716-2.878l-.028-.013c-.041-.022-.083-.047-.124-.071-.146-.083-.292-.167-.437-.251l-.259-.153q-.245-.146-.487-.3c-.067-.042-.134-.082-.2-.124-.2-.124-.392-.25-.587-.376l-.1-.062q-1.009-.667-1.98-1.4l-.079-.062-.068-.053c-.192-.147-.382-.3-.566-.445-.041-.032-.082-.064-.121-.1-.2-.158-.391-.317-.579-.475l-.022-.018h0l-.008-.007c-.125-.105-.247-.211-.368-.314l-.034-.03a36.572,36.572,0,0,1-4.579-4.744c1.912,8.15,4.549,16.815,15.064,28.824.489.559.988,1.116,1.488,1.663.072.08.145.161.218.239,7.142,7.783,15.418,13.266,23.93,15.857a40.342,40.342,0,0,0,29.2-2.182C287.869,190.675,288.123,190.554,288.376,190.431Z" transform="translate(-193.079 -54.723)" fill="none"/>
      <path id="Path_59" data-name="Path 59" d="M285.264,143.753c.068.216.137.432.2.647l.02.064q.1.326.193.649l.009.033c.074.255.146.512.216.767l.078.132.075.129c.033.059.067.117.1.176l.078.134.1.179.076.136.1.18.076.141c.033.059.065.118.1.178l.079.147c.057.105.113.213.17.321l.087.17c.029.054.057.108.084.162s.063.125.093.187l.076.15.095.193c.024.049.049.1.072.149l.095.2.072.15c.032.066.062.133.093.2l.071.151c.032.067.062.136.093.2l.068.15c.03.07.062.139.092.208l.067.153c.032.07.062.141.093.212.021.05.042.1.065.151.03.071.061.145.092.217.021.05.042.1.062.151l.091.22.062.151c.03.075.059.151.089.226l.059.15c.03.076.059.153.088.23l.058.15c.029.078.058.157.088.236l.053.146c.03.082.059.162.088.245l.05.141c.03.084.059.167.088.251l.047.139.087.258.042.132c.03.089.059.18.088.271l.036.114.091.291.026.091c.033.105.064.212.1.318l.008.03c.151.524.293,1.055.422,1.6l0,.014c.026.112.051.225.078.337l.021.092c.024.1.045.205.067.308l.026.125c.021.1.041.195.061.293l.028.142c.02.095.037.189.055.284l.028.154c.017.093.033.187.05.28l.028.163c.016.092.03.184.045.278.009.055.018.112.026.168.014.091.028.183.041.274.008.059.017.117.025.176l.036.272.024.18c.011.091.021.182.032.274.008.061.014.121.021.182l.028.274c.007.062.012.125.018.187.008.091.017.182.024.272l.016.189c.007.092.014.183.02.275.005.063.009.126.013.189l.016.276c0,.064.007.129.009.193,0,.092.009.184.012.276,0,.064.005.129.007.193,0,.093.007.187.008.28,0,.063,0,.128,0,.191,0,.095,0,.191,0,.286v.187c0,.1,0,.195,0,.293,0,.058,0,.117,0,.176,0,.1,0,.2-.007.305,0,.049,0,.1,0,.146q-.018.557-.057,1.12c0,.061-.007.121-.012.183-.007.089-.014.182-.022.272-.007.074-.012.149-.018.222s-.017.172-.026.259l-.024.239c-.009.084-.02.17-.03.254s-.018.164-.029.246-.022.168-.034.253-.022.167-.034.251-.025.167-.037.25l-.039.255c-.014.083-.028.166-.042.25s-.029.172-.045.258-.03.167-.046.25-.033.174-.05.262-.033.164-.05.247l-.055.266-.055.246c-.02.091-.041.18-.061.271l-.059.245c-.021.091-.045.182-.067.274s-.041.162-.062.243l-.075.278c-.021.08-.043.162-.066.242s-.054.188-.08.282-.046.161-.071.241-.058.191-.087.287c-.025.079-.049.158-.074.237l-.025.08c1.462-1.091,3.082-4.033,3.27-11.651.171-6.883-4.04-13.323-7.654-17.556.018.055.036.111.053.166Z" transform="translate(-171.763 -55.618)" fill="none"/>
      <path id="Path_60" data-name="Path 60" d="M261.289,165.932l.4-.018c.043.447.1.893.164,1.337A17.579,17.579,0,0,0,263,171.422c1.155,2.765,3.462,5.277,6.487,5.908a11.677,11.677,0,0,0,6.2-.312,14.591,14.591,0,0,0,4.966-2.867,13.946,13.946,0,0,0,3.886-5.865c.064-.186.122-.372.178-.561l.3.083a.712.712,0,0,0,.886-.828l-.421-4.1a.71.71,0,0,0-1.224-.336l-2.711,3.248a.71.71,0,0,0,.339,1.162l.33.091a13.321,13.321,0,0,1-.713,1.821,12.551,12.551,0,0,1-1.6,2.38,12.906,12.906,0,0,1-2.184,1.92,13.135,13.135,0,0,1-2.716,1.367,9.719,9.719,0,0,1-2.2.468c-.079.005-.157.009-.236.012a59.53,59.53,0,0,0,2.386-7.8c.139-.608.267-1.22.388-1.833a12.994,12.994,0,0,0,1.386-.164,11.736,11.736,0,0,0,1.651-.424,1.377,1.377,0,0,0,.775-.6,1.3,1.3,0,0,0-.466-1.774,1.3,1.3,0,0,0-1-.132,11.593,11.593,0,0,1-1.883.459H275.8c.24-1.608.411-3.228.508-4.849q.154-2.544.054-5.1a3.526,3.526,0,0,0,2.712-3.348,3.144,3.144,0,0,0-1.391-2.405,4.756,4.756,0,0,0-5.607.251,3.149,3.149,0,0,0-1.171,2.52,3.5,3.5,0,0,0,2.866,3.061,51.967,51.967,0,0,1-.2,6.908q-.091.928-.213,1.854c-.05.361-.1.721-.161,1.08l-.037-.005a25.887,25.887,0,0,1-2.626-.54,1.361,1.361,0,0,0-1,.13,1.3,1.3,0,0,0,.309,2.371,27.1,27.1,0,0,0,2.888.579,58.334,58.334,0,0,1-1.922,7.031q-.428,1.251-.911,2.482a6.4,6.4,0,0,1-1.024-.363,7.7,7.7,0,0,1-1.312-.9,9.473,9.473,0,0,1-1.329-1.5,11.692,11.692,0,0,1-1.142-2.355,18.709,18.709,0,0,1-.812-3.854l.367-.016a.735.735,0,0,0,.608-1.095l-1.991-3.892a.735.735,0,0,0-1.311.059l-1.361,4.04A.735.735,0,0,0,261.289,165.932Z" transform="translate(-179.558 -54.765)" fill="none"/>
      <path id="Path_61" data-name="Path 61" d="M265.578,107.453c.134.013.267.028.4.043l.134.014.366.043.159.02.341.043.176.024c.109.014.217.03.325.046l.184.026.312.046.19.029.3.05.187.03.3.051.186.033.291.053.186.034.286.055.182.037.283.058.178.037c.092.018.183.039.274.059l.179.039.266.061.179.041.262.062.174.042.259.066.171.042.254.067c.055.014.112.029.167.045l.249.067.166.046.245.07.162.046.241.072.158.047.237.072.157.049.232.074.153.05.229.075.149.05.224.078.149.051.218.078.145.053c.072.025.145.053.216.079l.141.053c.071.026.142.053.212.08l.139.053.207.082.137.054c.068.026.135.054.2.082l.134.055c.067.026.134.054.2.082l.13.055.2.084.129.055.191.084.125.055.19.086.124.057.182.084.124.058.179.086.118.057.178.087.114.057.174.087.113.057.17.087.112.058.164.086.112.059.159.086.111.061c.051.028.1.055.155.084l.107.059.153.086.1.059.151.086.1.058c.05.028.1.057.147.086l.1.059c.049.028.1.055.143.084l.1.059.139.084.095.058.137.084.1.059.13.082.1.061.125.08.093.059.124.079.095.062.116.076.095.063.112.074.107.071.095.064.122.083.075.051.178.121.014.011.374.261.02.014.158.112.043.032.133.093.038.029.133.095.026.02.595.432c-.072-3.037-1.3-8.087-8.235-9.986-3.884-1.062-7.206-.949-9.87.339a8.918,8.918,0,0,0-2.747,2.038q.541.045,1.063.1Z" transform="translate(-178.304 -68.032)" fill="#71b3cb"/>
      <path id="Path_62" data-name="Path 62" d="M281.631,138.09a5.188,5.188,0,0,0-1.149-2.312q-.28.146-.567.291l1.182,2.317Q281.365,138.24,281.631,138.09Z" transform="translate(-173.432 -58.074)" fill="#71b3cb"/>
      <path id="Path_63" data-name="Path 63" d="M280.721,138.608l-1.188-2.332c-.24.117-.478.234-.713.346l1.1,2.382Q280.325,138.808,280.721,138.608Z" transform="translate(-173.778 -57.917)" fill="#71b3cb"/>
      <path id="Path_64" data-name="Path 64" d="M263.089,116.232c.042,0,.086,0,.129,0,1.624,0,3.015,1.634,3.237,3.8a5.415,5.415,0,0,1-.316,2.612,2.673,2.673,0,0,1-2.055,1.737l-2.276.547a17.647,17.647,0,0,0,6.377,1.876l.013,0a.461.461,0,0,1,.059.009.628.628,0,0,1,.068.013c.018.005.035.012.054.018s.043.016.063.026.036.02.053.03a.6.6,0,0,1,.053.034c.018.013.034.029.051.043l.041.038a.634.634,0,0,1,.045.057.454.454,0,0,1,.03.041c.013.021.024.042.034.063s.017.033.024.05a.615.615,0,0,1,.021.064c.005.02.012.039.016.061l0,.02a.329.329,0,0,1,0,.051c0,.013,0,.028.005.041v.017a.715.715,0,0,1-.007.075.374.374,0,0,1-.007.054c-.005.022-.012.045-.018.068a.409.409,0,0,1-.018.053.516.516,0,0,1-.029.061c-.009.017-.017.034-.028.051s-.025.034-.038.051-.025.032-.038.046-.032.03-.047.045-.03.026-.046.038a.466.466,0,0,1-.054.034c-.018.011-.036.022-.055.032l-.057.022a.609.609,0,0,1-.064.021l-.024.008a17.973,17.973,0,0,0-9.157,4.769l.936,7.985,0,.026a29.888,29.888,0,0,1-.015,3.711,48.175,48.175,0,0,0,6.827,1.619c.576.072,1.147.13,1.7.172a32.768,32.768,0,0,0,6.592-.147c.534-.076,1.065-.166,1.578-.267a32.337,32.337,0,0,0,6.1-1.845c1.346-.582,3.094-1.44,4.541-2.228a122.725,122.725,0,0,1-.6-15.61,25.088,25.088,0,0,0-.951-7.127c-.1-.086-.272-.189-.3-.213-8.514-6.811-19.771-7.9-23.168-8.078a10.229,10.229,0,0,0-3.387,4.565,3.655,3.655,0,0,1,1.205.638Zm6.434,2.078a5.559,5.559,0,0,0,3.257,2.815,2.374,2.374,0,0,1-2.229,2.1,2.452,2.452,0,0,1-2.271-2.6A2.659,2.659,0,0,1,269.524,118.31Z" transform="translate(-180.043 -65.93)" fill="#fff"/>
      <path id="Path_65" data-name="Path 65" d="M269.9,141.6c.358-.025.72-.054,1.083-.089l-.23-2.612c-.317.028-.634.05-.951.07Z" transform="translate(-176.627 -57.087)" fill="#71b3cb"/>
      <path id="Path_66" data-name="Path 66" d="M271.27,138.871l-.13.013.23,2.607q.667-.081,1.345-.187l-.312-2.6c-.2.034-.4.067-.6.1v.005l-.532.071Z" transform="translate(-176.204 -57.151)" fill="#71b3cb"/>
      <path id="Path_67" data-name="Path 67" d="M273.023,141.247q.634-.114,1.265-.255l-.754-2.534q-.412.093-.825.175Z" transform="translate(-175.708 -57.228)" fill="#71b3cb"/>
      <path id="Path_68" data-name="Path 68" d="M282.359,137.678a2.032,2.032,0,0,0-.138-1.379,1.9,1.9,0,0,0-.722-1.062c-.193.107-.392.216-.6.325a6.407,6.407,0,0,1,1.162,2.244A1.715,1.715,0,0,1,282.359,137.678Z" transform="translate(-173.121 -58.245)" fill="#71b3cb"/>
      <path id="Path_69" data-name="Path 69" d="M266.776,141.6q.628.036,1.243.049L267.966,139q-.414-.008-.829-.028Z" transform="translate(-177.582 -57.065)" fill="#71b3cb"/>
      <path id="Path_70" data-name="Path 70" d="M346.311,142.974H310.479a.571.571,0,0,1-.563-.562,5.845,5.845,0,0,1,.938-3.269,6.771,6.771,0,0,1,4.432-2.709,7.63,7.63,0,0,1,2.326-.1c.141.017.285.038.429.064l0-.033a8.414,8.414,0,0,1,.832-2.688,7.03,7.03,0,0,1,2.771-2.766,9.837,9.837,0,0,1,3.991-1.247,8.465,8.465,0,0,1,3.886.524,7.276,7.276,0,0,1,3.159,2.432,6.954,6.954,0,0,1,2.54-.583,6.093,6.093,0,0,1,2.865.662,5.661,5.661,0,0,1,1.846,1.6,9.324,9.324,0,0,1,1.4,2.928c.408-.026.817-.036,1.226-.022a9.746,9.746,0,0,1,3.02.6,73.854,73.854,0,0,0-140.632-16.3,6.7,6.7,0,0,1,9.457,4.05c.037.125.07.251.1.38.022-.026.045-.053.068-.079a7.072,7.072,0,0,1,12.261,3.892c7.641-.846,11.215,3.588,11.215,3.588H201.037a73.84,73.84,0,0,0,67.945,91c-.562-2.705-1.066-5.245-1.432-7.125q-1.812-.385-3.62-.934C255.185,213.611,246.7,208,239.4,200.036c-.579-.63-1.159-1.279-1.726-1.926-11.723-13.387-13.841-22.691-15.889-31.687l-.245-1.075a.642.642,0,0,1-.012-.229c-.771-4.084-1.333-9.281.182-11.483a2.5,2.5,0,0,1,1.661-1.109,2.763,2.763,0,0,1,2.15.447c.978.686,1.654,2.017,2.105,4.155a2.615,2.615,0,0,1,1.991.658c3.836,3.069,4.865,12.243,5.545,18.313l.029.258a33.38,33.38,0,0,0,6.212,2.621,36.4,36.4,0,0,0,14.926,1.228,4.048,4.048,0,0,1,1.437-2.742,2.119,2.119,0,0,1,2.024-.451,3.563,3.563,0,0,0,3.5-.692c.438-.324.908-.628,1.39-.92a32.257,32.257,0,0,1-4.095-2.092,31.483,31.483,0,0,1-13.448-16.667c-2.508-7.049-3.515-13.061-3.076-18.382a25.24,25.24,0,0,1,4.39-12.377c2.454-3.628,5.032-5.687,7.662-6.123a5.653,5.653,0,0,1,3.288.4,5.949,5.949,0,0,1,3.6-2.653,4.815,4.815,0,0,1,3.817,1.026,4.181,4.181,0,0,1,2.528-1.75,3.4,3.4,0,0,1,2.64.387,4.519,4.519,0,0,1,.651.47,4.632,4.632,0,0,1,1.441,1.82,10.057,10.057,0,0,1,.918,2.361,7.47,7.47,0,0,1-.26,4.373l1.807-.054a12.016,12.016,0,0,1,3.369-5.025,1.856,1.856,0,0,1-.507-.676,3.26,3.26,0,0,1,.135-3.088c.674-.957,2.017-1.429,3.995-1.407a10.013,10.013,0,0,1,3.812-3.159,13.347,13.347,0,0,1,7.26-1.1v0a.66.66,0,0,1,.051-.309l0-.025a.671.671,0,0,1,.062-.482.919.919,0,0,1-.008-.124.7.7,0,0,1,.032-.2c.042-.134.071-.217.109-.328.024-.067.05-.146.088-.257a.678.678,0,0,1,.12-.216l0-.025.012-.05a1,1,0,0,1,.276-.445l.089-.086a.674.674,0,0,1,.355-.562.916.916,0,0,0,.1-.1c.033-.037.067-.074.1-.108l.013-.016a2.23,2.23,0,0,1,.222-.212l.028-.022a1.7,1.7,0,0,1,.4-.218.546.546,0,0,1,.066-.021.679.679,0,0,1,.636-.263,1.2,1.2,0,0,1,.428-.084h.02a1.209,1.209,0,0,1,.14-.034l0,0a5.08,5.08,0,0,1,1.4-.242.706.706,0,0,1,.166.067.688.688,0,0,1,.155.013,2.775,2.775,0,0,1,.483.158l.014.005.016.007.024.011a.845.845,0,0,1,.62.141.708.708,0,0,1,.086.038l.136.072c.017.009.033.02.049.03l.126.082.012.005h0l.155.041.025.008a1.02,1.02,0,0,1,.664.538.673.673,0,0,1,.324.326.42.42,0,0,0,.057.072l.009.011a.913.913,0,0,0,.1.095,1.517,1.517,0,0,1,.483.655.472.472,0,0,1,.024.084.865.865,0,0,1,.087.154.676.676,0,0,1,.051.226.771.771,0,0,1,.068.368,1.124,1.124,0,0,1,.109.491v0a.677.677,0,0,1,.055.557,1.365,1.365,0,0,1-.021.166.667.667,0,0,1-.041.313.915.915,0,0,1,.083.437.968.968,0,0,1-.068.429c0,.025-.009.051-.016.078l-.021.087c-.021.084-.042.168-.068.251a.655.655,0,0,1-.168.275h0l-.021.047-.007.013-.021.042-.013.026a.961.961,0,0,1-.02.117.677.677,0,0,1-.147.272l-.014.022a.685.685,0,0,1-.053.149h0l-.016.043c-.021.05-.047.1-.075.154a10.575,10.575,0,0,1,3.48,4.078,12.615,12.615,0,0,1,1.166,6.083,3.321,3.321,0,0,1,.687,4.348,2.469,2.469,0,0,1-1.8,1.259,27.215,27.215,0,0,1,.84,6.91,122.6,122.6,0,0,0,.567,15.274,1.619,1.619,0,0,1,.554.251,4.2,4.2,0,0,1,1.4,3.561,1.717,1.717,0,0,1-.321.783q1.068,2.163,1.936,4.35c3.953,4.054,10.427,12.074,10.208,20.911-.138,5.563-1.175,12.318-5.269,13.428-.034.089-.067.178-.1.266-1.79,4.5-3.752,7.019-5.675,7.292a2.491,2.491,0,0,1-1.975-.576,8.009,8.009,0,0,1-.64.761,9.414,9.414,0,0,1-2.619,1.859,27.61,27.61,0,0,1-8.918,7.667c-.7.383-1.424.746-2.157,1.079a47.5,47.5,0,0,1-6.729,2.48c-.166,1.654-.413,4.036-.7,6.616A73.862,73.862,0,0,0,346.7,150.579,74.879,74.879,0,0,0,346.311,142.974ZM286.346,102.3H244.464c.591-2.567,4.94-5.783,8.785-5.783a6.338,6.338,0,0,1,1.479.179,8.519,8.519,0,0,1,16.482-4.263c.049.159.091.32.129.483.03-.033.058-.067.087-.1a8.967,8.967,0,0,1,15.545,4.934c9.689-1.072,14.219,4.55,14.219,4.55Z" transform="translate(-198.992 -76.726)" fill="#b5e4fa"/>
      <path id="Path_71" data-name="Path 71" d="M277.176,140.171l-.961-2.457c-.341.116-.68.225-1.022.33l.871,2.5C276.438,140.426,276.808,140.3,277.176,140.171Z" transform="translate(-174.924 -57.463)" fill="#71b3cb"/>
      <path id="Path_72" data-name="Path 72" d="M278.319,139.723l-.853-2.48q-.456.18-.913.347l.958,2.449Q277.918,139.887,278.319,139.723Z" transform="translate(-174.494 -57.612)" fill="#71b3cb"/>
      <path id="Path_73" data-name="Path 73" d="M279.5,139.184l-1.1-2.382q-.3.136-.582.263l.854,2.484C278.951,139.431,279.227,139.309,279.5,139.184Z" transform="translate(-174.095 -57.751)" fill="#71b3cb"/>
      <path id="Path_74" data-name="Path 74" d="M273.938,138.369l.755,2.534c.33-.083.659-.17.987-.263l-.872-2.5C274.518,138.219,274.229,138.3,273.938,138.369Z" transform="translate(-175.32 -57.329)" fill="#71b3cb"/>
      <path id="Path_75" data-name="Path 75" d="M268.353,141.651c.4,0,.8-.011,1.209-.028l-.1-2.638q-.58.022-1.164.022Z" transform="translate(-177.101 -57.061)" fill="#71b3cb"/>
      <path id="Path_76" data-name="Path 76" d="M252.464,115.271a2.78,2.78,0,0,0,1.261.807,2.814,2.814,0,0,0,2.276-.4,2.632,2.632,0,0,0,1.187-2.551,7.326,7.326,0,0,0-.875-3.049,4.477,4.477,0,0,0-1.515-1.646,2.046,2.046,0,0,0-1.605-.247,2.594,2.594,0,0,0-1.963,1.636c0,.017-.009.034-.014.051a9.369,9.369,0,0,1,.884,1.611A5.58,5.58,0,0,1,252.464,115.271Z" transform="translate(-182.497 -66.812)" fill="#b5e4fa"/>
      <path id="Path_77" data-name="Path 77" d="M258.589,139.931l.738.22a7.593,7.593,0,0,1,.687-2.52c-.287-.086-.561-.171-.82-.253a2.409,2.409,0,0,0-.509,1.067A3.039,3.039,0,0,0,258.589,139.931Z" transform="translate(-180.185 -57.569)" fill="#71b3cb"/>
      <path id="Path_78" data-name="Path 78" d="M269.9,185.332c4.741,1.5,10.344,1.675,16.651.511a11.167,11.167,0,0,0,6.175-2.815c1.4-1.44,4.741-7.067,6.112-15.273a45.323,45.323,0,0,0,.063-14.413,52.364,52.364,0,0,0-4.825-15.04c-.026.017-.051.034-.079.05a39.754,39.754,0,0,1-6.1,2.811,33.285,33.285,0,0,1-5.806,1.534,36.676,36.676,0,0,1-6.071.529l-.3,0a39.628,39.628,0,0,1-6.427-.617c-1.572-.272-4.453-1.1-5.77-1.49a40.9,40.9,0,0,1-6.145,11.673,15.792,15.792,0,0,1-4.723,3.528A27.128,27.128,0,0,0,250,157.962a4.92,4.92,0,0,1-4.733.888.526.526,0,0,0-.166-.026.994.994,0,0,0-.583.249,2.65,2.65,0,0,0-.929,2.022c.142,1.412,1.844,5.979,6.192,11.089A43.454,43.454,0,0,0,269.9,185.332Zm-3.961-17.924,1.361-4.04a.735.735,0,0,1,1.311-.059L270.6,167.2a.735.735,0,0,1-.608,1.095l-.367.016a18.709,18.709,0,0,0,.812,3.854,11.692,11.692,0,0,0,1.142,2.355,9.473,9.473,0,0,0,1.329,1.5,7.7,7.7,0,0,0,1.312.9,6.4,6.4,0,0,0,1.024.363q.482-1.232.911-2.482a58.334,58.334,0,0,0,1.922-7.031,27.1,27.1,0,0,1-2.888-.579,1.3,1.3,0,0,1-.309-2.371,1.361,1.361,0,0,1,1-.13,25.887,25.887,0,0,0,2.626.54l.037.005c.058-.359.111-.72.161-1.08q.122-.926.213-1.854a51.967,51.967,0,0,0,.2-6.908,3.5,3.5,0,0,1-2.866-3.061,3.149,3.149,0,0,1,1.171-2.52,4.756,4.756,0,0,1,5.607-.251,3.144,3.144,0,0,1,1.391,2.405,3.526,3.526,0,0,1-2.712,3.348q.1,2.548-.054,5.1c-.1,1.621-.268,3.241-.508,4.849h.009a11.593,11.593,0,0,0,1.883-.459,1.3,1.3,0,0,1,1.595.907,1.319,1.319,0,0,1-.13,1,1.377,1.377,0,0,1-.775.6,11.736,11.736,0,0,1-1.651.424,12.994,12.994,0,0,1-1.386.164c-.121.613-.249,1.225-.388,1.833a59.53,59.53,0,0,1-2.386,7.8c.079,0,.157-.007.236-.012a9.719,9.719,0,0,0,2.2-.468,13.135,13.135,0,0,0,2.716-1.367,12.906,12.906,0,0,0,2.184-1.92,12.551,12.551,0,0,0,1.6-2.38,13.321,13.321,0,0,0,.713-1.821l-.33-.091a.71.71,0,0,1-.339-1.162l2.711-3.248a.71.71,0,0,1,1.224.336l.421,4.1a.712.712,0,0,1-.886.828l-.3-.083c-.055.188-.113.375-.178.561A13.946,13.946,0,0,1,286,176.663a14.591,14.591,0,0,1-4.966,2.867,11.677,11.677,0,0,1-6.2.312c-3.025-.632-5.332-3.144-6.487-5.908a17.579,17.579,0,0,1-1.149-4.171c-.067-.443-.121-.89-.164-1.337l-.4.018A.735.735,0,0,1,265.935,167.407Z" transform="translate(-184.907 -57.277)" fill="#71b3cb"/>
      <path id="Path_79" data-name="Path 79" d="M262.021,127.847a15.1,15.1,0,0,1,4.628-3.4l-.079.008-.422.045-.13.014-.447.047-.107.011-.554.059-.036,0-.558.059-.08.009-.538.058-.087.009-.575.063-.041,0-.625.068-.041,0-.592.064-.091.011-.62.068h-.015l-.655.072-.055.007-.613.068-.075.008-.615.07-.062.007-.663.075-.016,0-.657.074-.066.008-.636.074-.037,0-.667.078-.017,0-.679.079-.021,0-.65.076-.05.007-.645.078-.022,0-.666.08h-.009l-.65.079-.029,0-.636.079h-.016c-.434.054-.862.108-1.28.162h0c-1.684.216-3.229.428-4.517.625A42.564,42.564,0,0,0,262.021,127.847Z" transform="translate(-184.048 -61.653)" fill="#d9864a"/>
      <path id="Path_80" data-name="Path 80" d="M246.957,115.459a3.139,3.139,0,0,0,2.249,1.366,3.627,3.627,0,0,0,2.617-.726,3.127,3.127,0,0,0,.778-.75,3.719,3.719,0,0,0,0-3.521,8.511,8.511,0,0,0-1.591-2.405,2.085,2.085,0,0,0-.708-.459h0a3.253,3.253,0,0,0-1.8-.218,4.782,4.782,0,0,0-2.825,2.237,6.67,6.67,0,0,1,1.332,3.3A4.588,4.588,0,0,1,246.957,115.459Z" transform="translate(-184.248 -66.628)" fill="#b5e4fa"/>
      <path id="Path_81" data-name="Path 81" d="M259.28,160.766a39.808,39.808,0,0,0,5.971-11.4,1.535,1.535,0,0,1-.295-.607,4.745,4.745,0,0,1,.988-3.83,1.418,1.418,0,0,1,.589-.35,29.124,29.124,0,0,0,.017-3.374l-.882-7.524a40.16,40.16,0,0,1-4.566.3c-.154,0-.308,0-.462,0-.957,0-1.9-.032-2.82-.087-1.283-.079-2.517-.207-3.673-.37-1.247-.178-2.4-.4-3.421-.638a17.561,17.561,0,0,1-3.316-1.082c-.093.02-.175.039-.249.057a4.731,4.731,0,0,0-.518.147,7.771,7.771,0,0,0-2.851,2.084,14.309,14.309,0,0,0-1.743,2.357.678.678,0,0,1-.592.349h-.037a.68.68,0,0,1-.588-.413c-2.245-5.3-.825-8.115,1.2-9.606l-.014-.009a4.86,4.86,0,0,1-1.409-1.407l0-.008a6.82,6.82,0,0,1-1.086-3.311l0-.028a7.312,7.312,0,0,1,.55-3.382l0-.007a4.638,4.638,0,0,1,1.2-1.65l.022-.02.145-.118c.029-.024.059-.046.091-.068.067-.046.126-.082.174-.111l.022-.013a2.823,2.823,0,0,1,.478-.246l.037-.014a1.974,1.974,0,0,1,.359-.121h.008l.064-.017.017-.005a2.188,2.188,0,0,1,.318-.063l.026,0,.079-.008a3.724,3.724,0,0,1-.666-1.5.679.679,0,0,1,1.33-.268,3.143,3.143,0,0,0,1.726,2.051,2.59,2.59,0,0,0,2.653.038,2.868,2.868,0,0,0,1.117-2.632c-.084-.961-.522-4.1-4.113-3.388-2.195.437-4.528,2.3-6.719,5.537a23.926,23.926,0,0,0-4.162,11.728c-.421,5.125.561,10.953,3,17.817A30.089,30.089,0,0,0,255.046,163.9,14.46,14.46,0,0,0,259.28,160.766Z" transform="translate(-187.874 -66.099)" fill="#b5e4fa"/>
      <path id="Path_82" data-name="Path 82" d="M222.377,152.542l0-.017c-.02-.093-.038-.187-.055-.279l-.016-.08c-.02-.1-.038-.195-.055-.291l0-.016c-.017-.092-.033-.183-.049-.272l-.013-.075c-.017-.093-.033-.187-.049-.279v-.007l-.043-.27-.012-.071c-.014-.091-.028-.18-.042-.27v-.009l-.039-.264-.009-.066c-.013-.091-.025-.18-.038-.271h0l-.036-.272-.009-.067c-.012-.089-.024-.18-.034-.272h0c-.012-.092-.024-.186-.034-.278l-.008-.066c-.012-.092-.022-.184-.033-.278l0-.016-.032-.278-.008-.075c-.022-.2-.045-.4-.068-.607l-.011-.092c-.011-.095-.021-.192-.032-.291l-.072-.65c-.067-.611-.12-1.375-.175-2.183a49.553,49.553,0,0,0-.509-4.971c-.371-2.149-.942-3.505-1.695-4.034a1.424,1.424,0,0,0-1.134-.221,1.164,1.164,0,0,0-.78.542c-.979,1.425-.955,5.294.064,10.624A31.98,31.98,0,0,0,222.377,152.542Z" transform="translate(-193.444 -58.218)" fill="#71b3cb"/>
      <path id="Path_83" data-name="Path 83" d="M263.511,121.466a1.043,1.043,0,0,0,.462-.161,1.671,1.671,0,0,0,.628-.867,3.222,3.222,0,0,0,.158-.637,4.181,4.181,0,0,0,.043-.438c0-.075.005-.151.005-.229,0-.178-.009-.359-.028-.543h0c-.009-.091-.022-.179-.037-.267,0-.03-.012-.058-.017-.088-.011-.058-.021-.116-.034-.172-.008-.034-.018-.068-.028-.1s-.025-.1-.039-.149-.022-.07-.034-.1-.03-.092-.046-.137-.028-.068-.042-.1l-.051-.125c-.016-.034-.033-.067-.049-.1s-.037-.079-.058-.116-.036-.063-.053-.095-.042-.072-.063-.107l-.059-.088c-.022-.032-.045-.064-.068-.1s-.042-.054-.063-.08-.047-.059-.072-.087l-.067-.072-.078-.076c-.022-.021-.046-.042-.071-.062s-.053-.045-.08-.066-.049-.036-.074-.053-.055-.037-.083-.053-.051-.029-.078-.042a.861.861,0,0,0-.087-.041q-.04-.018-.079-.032c-.029-.011-.059-.018-.088-.026s-.054-.014-.082-.02-.059-.009-.089-.013l-.083-.007h-.07l-2.838-.113a6.283,6.283,0,0,1,1.128,2.766,8.165,8.165,0,0,1-.484,3.487Z" transform="translate(-179.717 -64.354)" fill="#71b3cb"/>
      <path id="Path_84" data-name="Path 84" d="M249.146,115.656a5.657,5.657,0,0,1,2.4,4.648,6.349,6.349,0,0,1-1.066,4.019l-.008.011c-.017.024-.034.05-.053.075a3.464,3.464,0,0,1-1.2,1.007l13.266-1.988a7.741,7.741,0,0,0,1.1-4.467,6.772,6.772,0,0,0-2.121-3.648c-.012,0-11.172.2-12.594.23C248.959,115.583,249.056,115.6,249.146,115.656Z" transform="translate(-183.239 -64.539)" fill="#71b3cb"/>
      <path id="Path_85" data-name="Path 85" d="M239.972,130.918a10.829,10.829,0,0,1,4.557-3.894,8.639,8.639,0,0,1,1.193-.309l.254-.051.078-.014.2-.039.084-.016.289-.051.043-.008.267-.047.105-.017c.08-.014.161-.028.243-.041l.1-.016.339-.055.084-.013.28-.045.128-.02.272-.041.114-.017.38-.058.114-.016.3-.043.147-.021.3-.043.122-.017c.137-.02.275-.039.414-.058l.15-.021.3-.041.17-.024.329-.043.132-.018.439-.058.178-.024.3-.039.193-.025.354-.046.2-.025.389-.05.205-.025.3-.038.195-.025.432-.054.193-.024.361-.043.22-.028.308-.037.211-.026.487-.058.172-.021.343-.041.238-.028.3-.037.221-.025.48-.057.222-.026.311-.036.233-.028.318-.037.22-.025.487-.055.2-.022.333-.038.222-.025.382-.043.133-.014.517-.059.162-.017.376-.042.175-.02.471-.053.046,0c.18-.021.358-.041.536-.059l.1-.012.432-.046.136-.016,1.054-.114.037,0,.5-.054.041,0c1.509-.163,2.909-.311,4.119-.436a16.8,16.8,0,0,1-3.376-1.558,3.236,3.236,0,0,1-1.729.687L253.2,124.321a4.374,4.374,0,0,1-2.186.6,3.8,3.8,0,0,1-2.436-.866,7.054,7.054,0,0,1-1.458-1.515l-.005-.007c-.057-.086-.108-.175-.161-.263a34.52,34.52,0,0,0-4.805,1.321C239.464,124.893,238.747,127.3,239.972,130.918Z" transform="translate(-186.231 -62.382)" fill="#f9aa74"/>
      <path id="Path_86" data-name="Path 86" d="M260.86,140.584c.347.095.7.189,1.047.279l.575-2.562c-.347-.084-.691-.171-1.026-.261l-.549,2.554Z" transform="translate(-179.451 -57.36)" fill="#71b3cb"/>
      <path id="Path_87" data-name="Path 87" d="M260.474,140.471l.549-2.554c-.2-.055-.4-.112-.592-.167a6.728,6.728,0,0,0-.688,2.513C259.972,140.329,260.218,140.4,260.474,140.471Z" transform="translate(-179.804 -57.452)" fill="#71b3cb"/>
      <path id="Path_88" data-name="Path 88" d="M263.6,141.239l.382-2.616c-.383-.075-.766-.157-1.145-.243l-.578,2.571C262.757,141.072,263.219,141.174,263.6,141.239Z" transform="translate(-179.01 -57.253)" fill="#71b3cb"/>
      <path id="Path_89" data-name="Path 89" d="M264.265,138.679l-.379,2.6c.347.054.69.1,1.029.147l.407-2.58-.449-.061h-.005v-.005C264.669,138.747,264.466,138.713,264.265,138.679Z" transform="translate(-178.495 -57.158)" fill="#71b3cb"/>
      <path id="Path_90" data-name="Path 90" d="M265.691,138.871l-.408,2.592c.388.043.771.08,1.151.111l.358-2.612c-.1-.007-.2-.012-.3-.02C266.228,138.922,265.961,138.9,265.691,138.871Z" transform="translate(-178.054 -57.097)" fill="#71b3cb"/>
      <path id="Path_91" data-name="Path 91" d="M210.8,122.763h26.759s-3.574-4.434-11.215-3.588a7.072,7.072,0,0,0-12.261-3.892c-.024.026-.046.053-.068.079-.032-.129-.064-.255-.1-.38a6.7,6.7,0,0,0-9.457-4.05,73.276,73.276,0,0,0-3.908,11.832H210.8Z" transform="translate(-198.501 -66.152)" fill="#fff"/>
      <path id="Path_92" data-name="Path 92" d="M276.056,95.43A8.967,8.967,0,0,0,260.511,90.5c-.029.033-.057.067-.087.1-.038-.163-.08-.324-.129-.483a8.519,8.519,0,0,0-16.482,4.263,6.338,6.338,0,0,0-1.479-.179c-3.845,0-8.194,3.216-8.785,5.783h56.726S285.745,94.358,276.056,95.43Z" transform="translate(-188.077 -74.411)" fill="#fff"/>
      <path id="Path_93" data-name="Path 93" d="M314.7,124.534a9.325,9.325,0,0,0-1.4-2.928,5.661,5.661,0,0,0-1.846-1.6,6.093,6.093,0,0,0-2.865-.662,6.954,6.954,0,0,0-2.54.583,7.276,7.276,0,0,0-3.159-2.432,8.464,8.464,0,0,0-3.886-.524,9.837,9.837,0,0,0-3.991,1.247,7.03,7.03,0,0,0-2.771,2.766,8.416,8.416,0,0,0-.832,2.688l0,.033c-.143-.026-.288-.047-.429-.064a7.63,7.63,0,0,0-2.326.1,6.771,6.771,0,0,0-4.432,2.709,5.845,5.845,0,0,0-.938,3.269.571.571,0,0,0,.563.562h35.832c-.178-1.742-.437-3.461-.734-5.166a9.746,9.746,0,0,0-3.02-.6C315.522,124.5,315.113,124.508,314.7,124.534Z" transform="translate(-172.366 -64.028)" fill="#fff"/>
      <path id="Path_94" data-name="Path 94" d="M246.594,117.442a5.338,5.338,0,0,0-.7,3.045c.117,2.271,1.433,4.067,2.954,4.067l.1,0a2.462,2.462,0,0,0,1.924-1.313,5.336,5.336,0,0,0,.7-3.044c-.12-2.322-1.5-4.149-3.054-4.065A2.459,2.459,0,0,0,246.594,117.442Z" transform="translate(-184.179 -64.281)" fill="#277191"/>
      <path id="Path_95" data-name="Path 95" d="M288.864,206.715c.733-.333,1.458-.7,2.157-1.079a27.61,27.61,0,0,0,8.918-7.667,9.415,9.415,0,0,0,2.619-1.859,8.014,8.014,0,0,0,.64-.761,2.491,2.491,0,0,0,1.975.576c1.924-.274,3.886-2.795,5.675-7.292.035-.088.068-.176.1-.266,4.094-1.111,5.13-7.865,5.269-13.428.218-8.837-6.256-16.857-10.208-20.911q-.864-2.187-1.936-4.35a1.717,1.717,0,0,0,.321-.783,4.2,4.2,0,0,0-1.4-3.561,1.62,1.62,0,0,0-.554-.251,122.6,122.6,0,0,1-.567-15.274,27.215,27.215,0,0,0-.84-6.91,2.469,2.469,0,0,0,1.8-1.259,3.322,3.322,0,0,0-.687-4.348,12.615,12.615,0,0,0-1.166-6.083,10.574,10.574,0,0,0-3.48-4.078c.028-.051.054-.1.075-.154l.016-.043h0a.686.686,0,0,0,.053-.149l.014-.022a.677.677,0,0,0,.147-.272.949.949,0,0,0,.02-.117l.013-.026.021-.042.007-.013.021-.047h0a.655.655,0,0,0,.168-.275c.026-.083.047-.167.068-.251l.021-.087c.007-.026.012-.053.016-.078a.969.969,0,0,0,.068-.429.915.915,0,0,0-.083-.437.667.667,0,0,0,.041-.313,1.366,1.366,0,0,0,.021-.166.676.676,0,0,0-.055-.557v0a1.123,1.123,0,0,0-.109-.491.771.771,0,0,0-.068-.368.676.676,0,0,0-.051-.226.866.866,0,0,0-.087-.154.47.47,0,0,0-.024-.084,1.517,1.517,0,0,0-.483-.655.913.913,0,0,1-.1-.095l-.009-.011a.421.421,0,0,1-.057-.072.673.673,0,0,0-.324-.326,1.02,1.02,0,0,0-.665-.538l-.025-.008-.155-.041h0l-.012-.005-.126-.082c-.016-.011-.032-.021-.049-.03l-.136-.072a.707.707,0,0,0-.086-.038.845.845,0,0,0-.62-.141l-.024-.011-.016-.007-.014-.005a2.774,2.774,0,0,0-.483-.158.688.688,0,0,0-.155-.013.706.706,0,0,0-.166-.067.673.673,0,0,0-.675.066,6.125,6.125,0,0,0-.728.176l0,0a1.21,1.21,0,0,0-.139.034h-.02a1.2,1.2,0,0,0-.428.084.679.679,0,0,0-.636.263.547.547,0,0,0-.066.021,1.7,1.7,0,0,0-.4.218l-.028.022a2.227,2.227,0,0,0-.222.212l-.013.016c-.036.034-.07.071-.1.108a.917.917,0,0,1-.1.1.674.674,0,0,0-.355.562l-.09.086a1,1,0,0,0-.276.445l-.012.05,0,.025a.678.678,0,0,0-.12.216c-.038.111-.064.189-.088.257-.038.111-.067.193-.109.328a.7.7,0,0,0-.032.2.919.919,0,0,0,.008.124.671.671,0,0,0-.062.482l0,.025a.66.66,0,0,0-.051.309v0a13.347,13.347,0,0,0-7.26,1.1,10.013,10.013,0,0,0-3.812,3.159c-1.978-.022-3.321.45-3.995,1.407a3.26,3.26,0,0,0-.136,3.088,1.856,1.856,0,0,0,.507.676,12.016,12.016,0,0,0-3.369,5.025l-1.807.054a7.47,7.47,0,0,0,.261-4.373,10.058,10.058,0,0,0-.918-2.361,4.633,4.633,0,0,0-1.441-1.82,4.52,4.52,0,0,0-.651-.47,3.4,3.4,0,0,0-2.64-.387,4.181,4.181,0,0,0-2.528,1.75,4.815,4.815,0,0,0-3.817-1.026,5.949,5.949,0,0,0-3.6,2.653,5.653,5.653,0,0,0-3.288-.4c-2.63.436-5.208,2.495-7.662,6.123a25.24,25.24,0,0,0-4.39,12.377c-.438,5.321.568,11.333,3.076,18.382a31.483,31.483,0,0,0,13.448,16.667,32.259,32.259,0,0,0,4.095,2.092c-.482.292-.951.6-1.39.92a3.563,3.563,0,0,1-3.5.692,2.119,2.119,0,0,0-2.024.451,4.048,4.048,0,0,0-1.437,2.742,36.4,36.4,0,0,1-14.926-1.228,33.38,33.38,0,0,1-6.212-2.621l-.029-.258c-.68-6.07-1.709-15.244-5.545-18.313a2.615,2.615,0,0,0-1.991-.658c-.451-2.138-1.128-3.47-2.105-4.155a2.763,2.763,0,0,0-2.15-.447,2.5,2.5,0,0,0-1.661,1.109c-1.515,2.2-.953,7.4-.182,11.483a.642.642,0,0,0,.012.229l.245,1.075c2.047,9,4.166,18.3,15.889,31.687.567.647,1.147,1.3,1.726,1.926,7.307,7.961,15.79,13.576,24.535,16.238q1.806.551,3.62.934c.366,1.88.87,4.42,1.432,7.125l.042.2c.508,2.442,1.061,5.008,1.611,7.374.157.676.313,1.338.467,1.971.976,4.008,1.879,7.012,2.39,6.99.551-.024.7-2.995.651-6.966-.008-.636-.021-1.3-.038-1.978-.059-2.338-.17-4.88-.293-7.314l-.012-.2c-.121-2.34-.254-4.573-.371-6.386.868.055,1.738.086,2.607.086a40.573,40.573,0,0,0,6.132-.468c.043,1.679.109,3.858.2,6.161l.008.209c.109,2.751.257,5.666.451,8.156.055.708.113,1.384.175,2.008.255,2.534.575,4.259.974,4.241.353-.017.767-1.679,1.187-4.125.107-.616.212-1.284.318-1.987.408-2.715.808-5.963,1.149-8.961.008-.074.016-.143.024-.217.291-2.58.538-4.962.7-6.616A47.5,47.5,0,0,0,288.864,206.715Zm26-31.811c-.188,7.617-1.808,10.56-3.27,11.651l.025-.08c.025-.079.049-.158.074-.237.029-.1.059-.192.087-.287s.047-.161.071-.241.054-.188.08-.282.045-.162.066-.242l.075-.278c.021-.082.041-.162.062-.243s.046-.183.067-.274l.059-.245c.02-.091.041-.18.061-.271l.055-.246.055-.266c.017-.083.034-.166.05-.247s.034-.175.05-.262.032-.167.046-.25.03-.172.045-.258.028-.167.042-.25l.039-.255c.012-.083.025-.167.037-.25s.024-.168.034-.251.024-.168.034-.253.02-.164.029-.246.021-.17.03-.254l.024-.239c.009-.087.018-.172.026-.259s.012-.149.018-.222c.008-.091.016-.183.022-.272.005-.062.008-.122.012-.183q.039-.563.057-1.12c0-.049,0-.1,0-.146,0-.1.005-.2.007-.305,0-.059,0-.118,0-.176,0-.1,0-.2,0-.293v-.187c0-.095,0-.191,0-.286,0-.063,0-.128,0-.191,0-.093-.005-.187-.008-.28,0-.064,0-.129-.007-.193,0-.092-.008-.184-.012-.276,0-.064-.005-.129-.009-.193l-.016-.276c0-.063-.008-.126-.013-.189-.005-.092-.013-.183-.02-.275l-.016-.189c-.007-.091-.016-.182-.024-.272-.007-.062-.012-.125-.018-.187l-.028-.274c-.007-.061-.013-.121-.021-.182-.01-.092-.021-.183-.032-.274l-.024-.18-.036-.272c-.008-.059-.017-.117-.025-.176-.013-.091-.026-.183-.041-.274-.008-.057-.017-.113-.026-.168-.014-.093-.029-.186-.045-.278l-.028-.163c-.017-.093-.033-.187-.05-.28l-.028-.154c-.018-.095-.036-.189-.055-.284l-.028-.142c-.02-.1-.039-.2-.061-.293l-.026-.125c-.022-.1-.043-.205-.067-.308l-.021-.092c-.026-.112-.051-.225-.078-.337l0-.014c-.129-.542-.271-1.074-.422-1.6l-.008-.03c-.032-.107-.063-.213-.1-.318l-.026-.091-.091-.291-.036-.114c-.029-.091-.058-.182-.088-.271l-.042-.132-.087-.258-.047-.139c-.029-.084-.058-.167-.088-.251l-.05-.141c-.029-.083-.058-.163-.088-.245l-.053-.146c-.03-.079-.059-.158-.088-.236l-.058-.15c-.029-.078-.058-.154-.088-.23l-.059-.15c-.03-.075-.059-.151-.089-.226l-.062-.151-.091-.22c-.02-.051-.041-.1-.062-.151-.032-.072-.062-.146-.092-.217-.022-.051-.043-.1-.065-.151-.032-.071-.062-.142-.093-.212l-.067-.153c-.03-.068-.062-.138-.092-.208l-.068-.15c-.032-.068-.062-.137-.093-.2l-.071-.151c-.032-.067-.062-.134-.093-.2l-.072-.15-.095-.2c-.024-.05-.049-.1-.072-.149l-.095-.193-.076-.15c-.03-.062-.062-.125-.093-.187s-.055-.108-.084-.162l-.087-.17c-.057-.108-.113-.216-.17-.321l-.079-.147c-.032-.059-.063-.118-.1-.178l-.076-.141-.1-.18-.076-.136-.1-.179-.078-.134c-.033-.059-.067-.117-.1-.176l-.075-.129-.078-.132c-.07-.255-.142-.512-.216-.767l-.009-.033q-.095-.324-.193-.649l-.02-.064c-.066-.216-.134-.432-.2-.647l-.011-.033c-.017-.055-.034-.111-.053-.166C310.822,161.581,315.033,168.021,314.861,174.9Zm-12.715-28.5a1.9,1.9,0,0,1,.722,1.062,2.032,2.032,0,0,1,.138,1.379,1.716,1.716,0,0,0-.295.128,6.407,6.407,0,0,0-1.162-2.244C301.754,146.62,301.953,146.51,302.146,146.4Zm-8.108,3.59c.342-.105.682-.214,1.022-.33l.961,2.457c-.368.13-.738.255-1.112.371Zm.091,2.73c-.328.093-.657.18-.987.263l-.755-2.534c.291-.072.58-.15.87-.23Zm1.7-3.333q.458-.168.913-.347l.853,2.48q-.4.164-.808.316Zm1.665-.665q.284-.126.582-.263l1.1,2.382c-.276.125-.553.247-.832.366Zm1.318-.609c.236-.112.474-.229.713-.346l1.188,2.332q-.4.2-.8.4Zm1.441-.711q.286-.144.567-.291a5.188,5.188,0,0,1,1.149,2.312q-.266.15-.534.3Zm-9.46-43.165a.671.671,0,0,0,.057-.218l.005-.013a.9.9,0,0,0,.021-.589l.024-.071v0a.92.92,0,0,0,.279-.378.66.66,0,0,0,.05-.243,1.278,1.278,0,0,0,.289-.4.667.667,0,0,0,.049-.147c.034-.034.066-.068.093-.1s.042-.046.064-.068l.015-.016.024-.025c.026-.026.05-.053.071-.072a1.13,1.13,0,0,0,.317-.125h0a.681.681,0,0,0,.461-.18,1.239,1.239,0,0,0,.3-.059l.012,0a.619.619,0,0,0,.139,0l.017,0,.011,0a.715.715,0,0,0,.117.026.792.792,0,0,0,.595-.159.638.638,0,0,0,.083-.021.682.682,0,0,0,.383.061,1.008,1.008,0,0,0,.105-.014l.037.014,0,0a1.61,1.61,0,0,1,.167.089l.08.046a.706.706,0,0,0,.229.079.957.957,0,0,0,.17.009.552.552,0,0,0,.071.03.7.7,0,0,0,.088.061l.174.1a.625.625,0,0,0,.15.063.87.87,0,0,0,.1.1l0,0a.692.692,0,0,0,.046.062.678.678,0,0,0,.366.226l.061.034.082.1a2.1,2.1,0,0,0,.258.253l0,0a.563.563,0,0,0,.013.1.789.789,0,0,0,.143.326.57.57,0,0,0,.045.12.908.908,0,0,0,.137.483l.005.008a1.355,1.355,0,0,0,.026.2l0,.026a.56.56,0,0,0-.058.067.685.685,0,0,0-.129.514.9.9,0,0,0,.082.347,1.474,1.474,0,0,0,.118.22.758.758,0,0,0-.111.361.7.7,0,0,0-.041.129l-.024.053-.038.079a1.742,1.742,0,0,0-.1.25.525.525,0,0,0-.034.079.889.889,0,0,0-.137.264c-.008.02-.015.041-.021.062a15.547,15.547,0,0,0-3.4-1.353q-1.1-.3-2.145-.482l-.025-.068-.011-.047A1.113,1.113,0,0,0,290.792,104.241Zm-8.087,2.451c2.665-1.288,5.986-1.4,9.87-.339,6.937,1.9,8.162,6.949,8.235,9.986l-.595-.432-.026-.02-.133-.095-.038-.029-.133-.093-.043-.032-.158-.112-.02-.014-.374-.261-.014-.011-.178-.121-.075-.051-.122-.083-.095-.064-.107-.071-.112-.074-.095-.063-.116-.076-.095-.062-.124-.079-.093-.059-.125-.08-.1-.061-.13-.082-.1-.059-.137-.084-.095-.058-.139-.084-.1-.059c-.047-.029-.095-.057-.143-.084l-.1-.059c-.049-.029-.1-.058-.147-.086l-.1-.058-.151-.086-.1-.059-.153-.086-.107-.059c-.051-.029-.1-.057-.155-.084l-.111-.061-.159-.086L295.6,113l-.164-.086-.112-.058-.17-.087-.113-.057-.174-.087-.114-.057-.178-.087-.118-.057-.179-.086-.124-.058-.182-.084-.124-.057-.189-.086-.125-.055-.191-.084-.129-.055-.2-.084-.13-.055c-.066-.028-.133-.055-.2-.082l-.134-.055c-.067-.028-.134-.055-.2-.082l-.137-.054-.207-.082-.139-.053c-.07-.028-.141-.054-.212-.08l-.141-.053c-.071-.026-.143-.054-.216-.079l-.145-.053-.218-.078-.149-.051-.224-.078-.149-.05-.229-.075-.153-.05-.232-.074-.157-.049-.237-.072-.158-.047-.241-.072-.162-.046-.245-.07-.166-.046-.249-.067-.167-.045-.254-.067-.171-.042-.259-.066-.174-.042-.262-.062-.179-.041-.266-.061-.179-.039c-.091-.02-.182-.041-.274-.059l-.178-.037-.283-.058-.182-.037-.286-.055-.186-.034-.291-.053-.186-.033-.3-.051-.187-.03-.3-.05-.189-.029-.312-.046-.184-.026c-.108-.016-.216-.032-.325-.046l-.176-.024-.341-.043-.159-.02-.366-.043-.134-.014c-.133-.016-.266-.03-.4-.043l-.022,0q-.523-.055-1.063-.1A8.919,8.919,0,0,1,282.7,106.693Zm-6.607,7.7c3.4.174,14.655,1.267,23.168,8.078.029.024.2.128.3.213a25.088,25.088,0,0,1,.951,7.127,122.725,122.725,0,0,0,.6,15.61c-1.447.788-3.195,1.646-4.541,2.228a32.337,32.337,0,0,1-6.1,1.845c-.513.1-1.043.191-1.578.267a32.768,32.768,0,0,1-6.592.147c-.553-.042-1.124-.1-1.7-.172a48.175,48.175,0,0,1-6.827-1.619,29.888,29.888,0,0,0,.015-3.711l0-.026-.936-7.985a17.973,17.973,0,0,1,9.157-4.769l.024-.008a.609.609,0,0,0,.064-.021l.057-.022c.02-.009.037-.021.055-.032a.466.466,0,0,0,.054-.034c.016-.012.032-.025.046-.038s.033-.029.047-.045.025-.03.038-.046.026-.033.038-.051.018-.034.028-.051a.516.516,0,0,0,.029-.061.409.409,0,0,0,.018-.053c.007-.024.013-.046.018-.068a.374.374,0,0,0,.007-.054.715.715,0,0,0,.007-.075v-.017c0-.013,0-.028-.005-.041a.329.329,0,0,0,0-.051l0-.02c0-.021-.01-.041-.016-.061a.615.615,0,0,0-.021-.064c-.007-.017-.016-.033-.024-.05s-.021-.042-.034-.063a.454.454,0,0,0-.03-.041.634.634,0,0,0-.045-.057l-.041-.038c-.017-.014-.033-.03-.051-.043a.6.6,0,0,0-.053-.034c-.017-.011-.034-.021-.053-.03s-.042-.017-.063-.026-.036-.013-.054-.018a.628.628,0,0,0-.068-.013.461.461,0,0,0-.059-.009l-.013,0a17.647,17.647,0,0,1-6.377-1.876l2.276-.547a2.673,2.673,0,0,0,2.055-1.737,5.415,5.415,0,0,0,.316-2.612c-.222-2.166-1.613-3.8-3.237-3.8-.043,0-.087,0-.129,0l-2.9-.122a3.655,3.655,0,0,0-1.205-.638A10.229,10.229,0,0,1,276.1,114.389Zm16.251,38.786q-.632.14-1.265.255l-.314-2.615q.412-.083.825-.175Zm-2.982-2.116c.2-.03.4-.063.6-.1l.312,2.6q-.677.107-1.345.187l-.23-2.607.13-.013v0l.532-.071Zm-1.241,2.78c-.363.036-.725.064-1.083.089l-.1-2.632c.317-.02.634-.042.951-.07Zm-1.9.134c-.407.017-.811.025-1.209.028l-.054-2.644q.584,0,1.164-.022Zm-2.024.021q-.616-.014-1.243-.049l.361-2.624q.415.02.829.028Zm-1.7-2.719-.358,2.612c-.38-.03-.763-.067-1.151-.111l.408-2.592c.27.026.537.051.8.071C282.307,151.265,282.407,151.27,282.507,151.276Zm-2.365-.238h0l.449.061-.407,2.58c-.339-.045-.682-.093-1.029-.147l.379-2.6c.2.034.4.068.6.1v.005Zm-1.405-.255-.382,2.616c-.378-.066-.84-.167-1.341-.288l.578-2.571C277.972,150.626,278.354,150.708,278.737,150.783Zm-1.937-.43-.575,2.562c-.347-.089-.7-.184-1.047-.279l.047.011.549-2.554C276.11,150.182,276.453,150.268,276.8,150.353Zm-1.813-.475-.549,2.554c-.255-.071-.5-.142-.732-.208a6.728,6.728,0,0,1,.688-2.513C274.589,149.766,274.787,149.822,274.987,149.878Zm-25.3-19.257a34.52,34.52,0,0,1,4.805-1.321c.053.088.1.178.161.263l.005.007a7.054,7.054,0,0,0,1.458,1.515,3.8,3.8,0,0,0,2.436.866,4.374,4.374,0,0,0,2.186-.6l11.645-1.495a3.236,3.236,0,0,0,1.729-.687,16.8,16.8,0,0,0,3.376,1.558c-1.209.125-2.609.272-4.119.436l-.041,0-.5.054-.037,0-1.054.114-.136.016-.432.046-.1.012c-.178.018-.355.038-.536.059l-.046,0-.471.053-.175.02-.376.042-.162.017-.517.059-.133.014-.382.043-.222.025-.333.038-.2.022-.487.055-.22.025-.318.037-.233.028-.311.036-.222.026-.48.057-.221.025-.3.037-.238.028-.343.041-.172.021-.487.058-.211.026-.308.037-.22.028-.361.043-.193.024-.432.054-.195.025-.3.038-.205.025-.389.05-.2.025-.354.046-.193.025-.3.039-.178.024-.439.058-.132.018-.329.043-.17.024-.3.041-.15.021c-.139.018-.278.038-.414.058l-.122.017-.3.043-.147.021-.3.043-.114.016-.38.058-.114.017-.272.041-.128.02-.28.045-.084.013-.339.055-.1.016c-.083.013-.163.026-.243.041l-.105.017-.267.047-.043.008-.289.051-.084.016-.2.039-.078.014-.254.051a8.639,8.639,0,0,0-1.193.309,10.829,10.829,0,0,0-4.557,3.894C246.285,134.327,247,131.923,249.683,130.62Zm-3.12-5.194a5.061,5.061,0,0,1,1.449-4.059,2.8,2.8,0,0,1,.526-.358,2.309,2.309,0,0,1,.951-.264c1.745-.089,3.263,1.861,3.392,4.357s-1.182,4.592-2.926,4.682S246.693,127.923,246.564,125.427Zm28.636-1.705a6.283,6.283,0,0,0-1.128-2.766l2.838.113h.07l.083.007c.03,0,.061.008.089.013s.054.012.082.02.059.016.088.026.053.02.079.032a.861.861,0,0,1,.087.041c.026.013.051.026.078.042s.055.034.083.053.05.034.074.053.054.043.08.066.049.041.071.062l.078.076.067.072c.025.028.049.057.072.087s.043.053.063.08.046.064.068.1l.059.088c.021.034.042.071.063.107s.036.062.053.095.039.076.058.116.033.066.049.1l.051.125c.014.034.029.068.042.1s.03.091.046.137.024.068.034.1.028.1.039.149.02.068.028.1c.013.057.024.114.034.172.005.03.013.058.017.088.014.088.028.176.037.267h0c.018.184.028.366.028.543,0,.078,0,.154-.005.229a4.181,4.181,0,0,1-.043.438,3.222,3.222,0,0,1-.158.637,1.671,1.671,0,0,1-.628.867,1.043,1.043,0,0,1-.462.161l-2.849.684A8.165,8.165,0,0,0,275.2,123.721Zm-14.657,10.3h0c.418-.054.846-.108,1.28-.162h.016l.636-.079.029,0,.65-.079h.009l.666-.08.022,0,.645-.078.05-.007.65-.076.021,0,.679-.079.017,0,.667-.078.037,0,.636-.074.066-.008.657-.074.016,0,.663-.075.062-.007.615-.07.075-.008.613-.068.055-.007.655-.072h.014l.62-.068.091-.011.592-.064.041,0,.625-.068.041,0,.575-.063.087-.009.538-.058.08-.009.558-.059.036,0,.554-.059.107-.011.447-.047.13-.014.422-.045.079-.008a15.1,15.1,0,0,0-4.628,3.4,42.564,42.564,0,0,1-15.716-.963C257.313,134.445,258.858,134.234,260.542,134.018Zm12.237,15.2c.259.082.533.167.82.253a7.593,7.593,0,0,0-.687,2.52l-.738-.22a3.039,3.039,0,0,1,.1-1.486A2.409,2.409,0,0,1,272.779,149.221Zm-.787-29.037a6.772,6.772,0,0,1,2.121,3.648,7.741,7.741,0,0,1-1.1,4.467l-13.266,1.988a2.509,2.509,0,0,1-2.086.139c-1.463-.525-2.621-2.287-2.85-4.48-.012-.116-.024-.233-.03-.351l0-.042c-.005-.113,0-.224-.005-.334a5.587,5.587,0,0,1,1.845-4.482,2.768,2.768,0,0,1,1.541-.592,2.662,2.662,0,0,1,1.241.27C260.821,120.388,271.981,120.183,271.992,120.184Zm-9.491-7.766a2.594,2.594,0,0,1,1.963-1.636,2.046,2.046,0,0,1,1.605.247,4.477,4.477,0,0,1,1.515,1.646,7.326,7.326,0,0,1,.875,3.049,2.632,2.632,0,0,1-1.187,2.551,2.814,2.814,0,0,1-2.276.4,2.78,2.78,0,0,1-1.261-.807,5.58,5.58,0,0,0-.365-3.791,9.369,9.369,0,0,0-.884-1.611C262.492,112.452,262.5,112.435,262.5,112.418Zm-4.482-.89a3.253,3.253,0,0,1,1.8.218h0a2.085,2.085,0,0,1,.708.459,8.511,8.511,0,0,1,1.591,2.405,3.719,3.719,0,0,1,0,3.521,3.127,3.127,0,0,1-.778.75,3.627,3.627,0,0,1-2.617.726,3.139,3.139,0,0,1-2.249-1.366,4.588,4.588,0,0,0,.047-1.182,6.67,6.67,0,0,0-1.332-3.3A4.782,4.782,0,0,1,258.019,111.529ZM256.007,164.8a30.146,30.146,0,0,1-12.823-15.932c-2.442-6.863-3.424-12.691-3-17.817a23.926,23.926,0,0,1,4.162-11.728c2.191-3.238,4.524-5.1,6.719-5.537,3.591-.713,4.029,2.428,4.113,3.388a2.868,2.868,0,0,1-1.117,2.632,2.59,2.59,0,0,1-2.653-.038,3.143,3.143,0,0,1-1.726-2.051.679.679,0,0,0-1.33.268,3.724,3.724,0,0,0,.666,1.5l-.079.008-.026,0a2.188,2.188,0,0,0-.318.063l-.017.005-.064.017H248.5a1.974,1.974,0,0,0-.359.121l-.037.014a2.823,2.823,0,0,0-.478.246l-.022.013c-.047.029-.107.064-.174.111-.032.022-.062.045-.091.068l-.145.118-.022.02a4.638,4.638,0,0,0-1.2,1.65l0,.007a7.312,7.312,0,0,0-.55,3.382l0,.028a6.82,6.82,0,0,0,1.086,3.311l0,.008a4.86,4.86,0,0,0,1.409,1.407l.014.009c-2.029,1.491-3.449,4.3-1.2,9.606a.68.68,0,0,0,.588.413h.037a.678.678,0,0,0,.592-.349,14.309,14.309,0,0,1,1.743-2.357,7.771,7.771,0,0,1,2.851-2.084,4.731,4.731,0,0,1,.518-.147c.074-.017.155-.037.249-.057a17.561,17.561,0,0,0,3.316,1.082c1.02.242,2.174.461,3.421.638,1.155.163,2.39.291,3.673.37.92.055,1.863.087,2.82.087.154,0,.308,0,.462,0a40.16,40.16,0,0,0,4.566-.3l.882,7.524a29.124,29.124,0,0,1-.017,3.374,1.418,1.418,0,0,0-.589.35,4.745,4.745,0,0,0-.988,3.83,1.535,1.535,0,0,0,.295.607,39.808,39.808,0,0,1-5.971,11.4,14.46,14.46,0,0,1-4.234,3.138A30.381,30.381,0,0,1,256.007,164.8Zm-2.622,6.4a.994.994,0,0,1,.583-.249.526.526,0,0,1,.166.026,4.92,4.92,0,0,0,4.733-.888,27.128,27.128,0,0,1,2.647-1.645,15.792,15.792,0,0,0,4.723-3.528,40.9,40.9,0,0,0,6.145-11.673c1.317.389,4.2,1.217,5.77,1.49a39.628,39.628,0,0,0,6.427.617l.3,0a36.676,36.676,0,0,0,6.071-.529,33.285,33.285,0,0,0,5.806-1.534,39.754,39.754,0,0,0,6.1-2.811c.028-.016.053-.033.079-.05a52.364,52.364,0,0,1,4.825,15.04,45.323,45.323,0,0,1-.063,14.413c-1.371,8.206-4.709,13.834-6.112,15.273a11.167,11.167,0,0,1-6.175,2.815c-6.307,1.165-11.91.993-16.651-.511a43.454,43.454,0,0,1-20.11-13.148c-4.349-5.109-6.05-9.677-6.192-11.089A2.65,2.65,0,0,1,253.385,171.208ZM217.6,147.089a1.164,1.164,0,0,1,.78-.542,1.424,1.424,0,0,1,1.134.221c.753.529,1.324,1.886,1.695,4.034a49.553,49.553,0,0,1,.509,4.971c.055.808.108,1.572.175,2.183l.072.65c.011.1.021.2.032.291l.011.092c.024.208.046.409.068.607l.008.075.032.278,0,.016c.011.093.021.186.033.278l.008.066c.01.092.022.186.034.278h0c.01.092.022.183.034.272l.009.067.036.272h0c.013.091.025.18.038.271l.009.066.039.264v.009c.014.089.028.179.042.27l.012.071.043.27v.007c.016.092.032.186.049.279l.013.075c.016.089.032.18.049.272l0,.016c.017.1.036.193.055.291l.016.08c.017.092.036.186.055.279l0,.017a31.98,31.98,0,0,1-5.038-6.023C216.644,152.383,216.62,148.514,217.6,147.089Zm41.5,60.573c-8.512-2.591-16.788-8.074-23.93-15.857-.074-.079-.146-.159-.218-.239-.5-.547-1-1.1-1.488-1.663-10.515-12.008-13.152-20.673-15.064-28.824a36.573,36.573,0,0,0,4.579,4.744l.034.03c.121.1.243.209.368.314l.008.007h0l.022.018c.188.158.382.317.579.475.039.033.08.066.121.1.184.149.374.3.566.445l.068.053.079.062q.971.736,1.98,1.4l.1.062c.195.126.389.253.587.376.066.042.133.082.2.124q.243.15.487.3l.259.153c.145.084.291.168.437.251.041.024.083.049.124.071l.028.013a34.6,34.6,0,0,0,6.716,2.878,37.764,37.764,0,0,0,15.528,1.288c1.229,4.884,8.932,18.764,27.079,24.521a30.421,30.421,0,0,0,9.227,1.337,44.617,44.617,0,0,0,8.081-.784q.918-.17,1.738-.4a26.51,26.51,0,0,1-7.025,5.531c-.425.234-.861.458-1.3.674-.253.124-.507.245-.762.361A40.342,40.342,0,0,1,259.1,207.662Z" transform="translate(-193.769 -69.412)" fill="#277191"/>
      <path id="Path_96" data-name="Path 96" d="M268.32,121.448a2.374,2.374,0,0,0,2.229-2.1,5.559,5.559,0,0,1-3.257-2.815,2.659,2.659,0,0,0-1.243,2.316A2.452,2.452,0,0,0,268.32,121.448Z" transform="translate(-177.812 -64.153)" fill="#277191"/>
      <path id="Path_97" data-name="Path 97" d="M272.732,104.2q1.046.184,2.145.482a15.547,15.547,0,0,1,3.4,1.353c.007-.021.013-.042.021-.062a.889.889,0,0,1,.137-.264.525.525,0,0,1,.034-.079,1.742,1.742,0,0,1,.1-.25l.038-.079.024-.053a.7.7,0,0,1,.041-.129.758.758,0,0,1,.111-.361,1.474,1.474,0,0,1-.118-.22.9.9,0,0,1-.082-.347.685.685,0,0,1,.129-.514.56.56,0,0,1,.058-.067l0-.026a1.355,1.355,0,0,1-.026-.2l-.005-.008a.908.908,0,0,1-.137-.483.57.57,0,0,1-.045-.12.789.789,0,0,1-.143-.326.563.563,0,0,1-.013-.1l0,0a2.1,2.1,0,0,1-.258-.253l-.082-.1-.061-.034a.678.678,0,0,1-.366-.226.692.692,0,0,1-.046-.062l0,0a.87.87,0,0,1-.1-.1.625.625,0,0,1-.15-.063l-.174-.1a.7.7,0,0,1-.088-.061.552.552,0,0,1-.071-.03.957.957,0,0,1-.17-.009.706.706,0,0,1-.229-.079l-.08-.046a1.61,1.61,0,0,0-.167-.089l0,0-.037-.014a1.008,1.008,0,0,1-.105.014.682.682,0,0,1-.383-.061.638.638,0,0,1-.083.021.792.792,0,0,1-.595.159.715.715,0,0,1-.117-.026l-.011,0-.017,0a.619.619,0,0,1-.139,0l-.012,0a1.239,1.239,0,0,1-.3.059.681.681,0,0,1-.461.18h0a1.13,1.13,0,0,1-.317.125c-.021.02-.045.046-.071.072l-.024.025-.015.016c-.022.022-.043.046-.064.068s-.059.064-.093.1a.667.667,0,0,1-.049.147,1.278,1.278,0,0,1-.289.4.66.66,0,0,1-.05.243.92.92,0,0,1-.279.378v0l-.024.071a.9.9,0,0,1-.021.589l-.005.013a.671.671,0,0,1-.057.218,1.113,1.113,0,0,1-.039.207l.011.047Z" transform="translate(-175.713 -69.053)" fill="#fff"/>
      <path id="Path_98" data-name="Path 98" d="M245.435,120.094c-.129-2.5-1.647-4.446-3.392-4.357a2.309,2.309,0,0,0-.951.264,2.8,2.8,0,0,0-.526.358,5.061,5.061,0,0,0-1.449,4.059c.129,2.5,1.647,4.448,3.392,4.357S245.562,122.591,245.435,120.094Zm-3.234,3.879c-1.305,0-2.436-1.544-2.536-3.5a4.616,4.616,0,0,1,.6-2.624,2.108,2.108,0,0,1,1.649-1.125c.029,0,.057,0,.086,0,1.305,0,2.434,1.545,2.534,3.5a4.613,4.613,0,0,1-.6,2.622,2.1,2.1,0,0,1-1.649,1.125C242.257,123.974,242.228,123.974,242.2,123.974Z" transform="translate(-186.322 -64.405)" fill="#fff"/>
      <path id="Path_99" data-name="Path 99" d="M243.8,122.609a4.613,4.613,0,0,0,.6-2.622c-.1-1.955-1.229-3.5-2.534-3.5-.029,0-.057,0-.086,0a2.108,2.108,0,0,0-1.649,1.125,4.616,4.616,0,0,0-.6,2.624c.1,1.955,1.23,3.5,2.536,3.5.028,0,.057,0,.084,0A2.1,2.1,0,0,0,243.8,122.609Z" transform="translate(-186.189 -64.168)" fill="#277191"/>
      <path id="Path_100" data-name="Path 100" d="M251.53,124.418c.018-.025.036-.051.053-.075l.008-.011a6.349,6.349,0,0,0,1.066-4.019,5.657,5.657,0,0,0-2.4-4.648c-.089-.051-.187-.072-.278-.114a2.662,2.662,0,0,0-1.241-.27,2.768,2.768,0,0,0-1.541.592,5.587,5.587,0,0,0-1.845,4.482c0,.111,0,.221.005.334l0,.042c.007.118.018.236.03.351.229,2.194,1.387,3.955,2.85,4.48a2.509,2.509,0,0,0,2.086-.139A3.464,3.464,0,0,0,251.53,124.418Zm.212-3.955a5.336,5.336,0,0,1-.7,3.044,2.462,2.462,0,0,1-1.924,1.313l-.1,0c-1.521,0-2.837-1.8-2.954-4.067a5.338,5.338,0,0,1,.7-3.045,2.459,2.459,0,0,1,1.924-1.312C250.24,116.313,251.622,118.14,251.742,120.462Z" transform="translate(-184.349 -64.549)" fill="#fff"/>
    </g>
  </g>
</svg>
