<svg xmlns="http://www.w3.org/2000/svg" width="283.464" height="186.705" viewBox="0 0 283.464 186.705">
  <g id="Group_26" data-name="Group 26" transform="translate(-113.386 -76.726)">
    <g id="Group_2" data-name="Group 2">
      <path id="Path_44" data-name="Path 44" d="M168.157,255.4v-.047a.368.368,0,0,1-.014.036Z" fill="#277191"/>
      <path id="Path_45" data-name="Path 45" d="M167.638,254.885c-.283.519-2.786,2.926-4.77,2.926a2.176,2.176,0,0,1-2.454-2.218c0-.944.991-3.305,2.69-6.469h.568c6.468,0,9.206-6.043,9.773-6.845l-.567-.332c-.424.519-1.417,1.653-6.61,1.936.425-.66.9-1.368,1.37-2.078a100.573,100.573,0,0,1,10.009-12.795c.566-.566,1.038-.944,1.038-1.181,0-.659-4.579-2.36-9.3-2.36-7.46,0-15.109,8.027-22.71,16.053-5.854-1.463-11.143-3.116-16.9-3.116-11,0-16.384,6.7-16.384,12.843,0,5.146,3.778,9.869,11.238,9.869,7.79,0,15.486-6.658,22.569-13.977a66.7,66.7,0,0,0,9.4,1.6,18.5,18.5,0,0,0-2.313,7.791c0,3.494,1.937,5.855,4.769,5.855,4.915,0,8.955-6.5,9.1-7A6.121,6.121,0,0,1,167.638,254.885Zm-43.581,2.926c-4.957,0-7.743-3.068-7.743-6.326,0-3.824,3.777-7.979,12.229-7.979,5.1,0,9.3,1.133,13.976,2.407C136.239,252.335,130.053,257.811,124.057,257.811Zm27.385-15.156c7.035-7.506,13.41-14.494,18.65-14.494.1,0,.52.047.52.236,0,.425-4.533,5.665-8.829,11.8-.8,1.18-1.652,2.361-2.409,3.635A65.073,65.073,0,0,1,151.442,242.655Z" fill="#277191"/>
      <path id="Path_46" data-name="Path 46" d="M231.56,227.31a4.538,4.538,0,0,0-4.579,4.345,3.984,3.984,0,0,0,4.155,3.871,4.537,4.537,0,0,0,4.579-4.344A3.985,3.985,0,0,0,231.56,227.31Z" fill="#277191"/>
      <path id="Path_47" data-name="Path 47" d="M230.758,249.313c-.425,0-5.855,8.924-8.783,8.924-.377,0-.661-.283-.661-.992,0-3.257,7.083-15.628,8.074-17.516a.765.765,0,0,0,.143-.378c0-.8-1.653-1.04-2.834-1.04a6.332,6.332,0,0,0-1.228.1c-1.633.673-5.548,6.367-7.9,11.758-.951,1.215-2.676,4.154-4.849,4.154a2.487,2.487,0,0,1-.8-.188,24.3,24.3,0,0,0,3.589-11.475c0-1.888-.85-3.776-3.07-3.776-1.321,0-2.454-.615-3.824-.615-5.7,0-10.979,5.952-13.3,11.838-1.575,2.1-5.339,7.663-7.331,7.663-.945,0-1.086-.426-1.086-.992,0-2.5,5.665-12.323,6.326-13.6a8.741,8.741,0,0,0,1.228-2.927c0-.8-2.644-1.795-4.392-1.795-2.6,0-10.575,9.066-11.283,9.963l-.047-.094c2.832-5.807,10.1-18.367,10.1-19.548,0-1.321-2.549-1.936-3.258-1.936-.991,0-4.816,7.271-8.829,14.92-4.108,7.981-8.357,16.338-8.357,17.47a3.7,3.7,0,0,0,3.022,3.164c.944,0,1.747-2.88,4.391-6.846a81.746,81.746,0,0,1,10.765-12.135l.189.1c-1.228,1.7-6.185,9.348-6.185,14.731a4.3,4.3,0,0,0,4.343,4.2c2.874,0,6.695-3.916,9.178-7.211q-.02.329-.02.648c0,4.533,2.645,6.752,6.611,6.752,3.069,0,5.949-1.889,8.4-4.58h.379A9.646,9.646,0,0,0,215.9,255.2a9.812,9.812,0,0,0-.2,1.854c0,2.692,1.511,5.43,3.872,5.43,4.91,0,11.756-10.576,11.756-11.426C231.324,250.4,231.277,249.313,230.758,249.313Zm-24.031,1.558a3.047,3.047,0,0,0-3.164,3.164,3.512,3.512,0,0,0,1.888,3.021,4.441,4.441,0,0,1-2.549.992c-1.464,0-2.03-1.134-2.03-2.738,0-5.62,6-13.788,9.726-13.788,1.369,0,1.747,1.229,1.747,2.409,0,1.888-1.133,5.193-2.832,8.168A4.225,4.225,0,0,0,206.727,250.871Z" fill="#277191"/>
      <path id="Path_48" data-name="Path 48" d="M301.012,221.22c1.228-.614,2.126-.9,2.126-1.37s-.708-1.274-2.031-1.274c-4.061,0-12.89,7.979-17.565,13.409-4.721,5.43-10.858,13.409-14.116,18.13l-.142-.189c1.888-5,9.159-17.28,9.159-21.246,0-.9-.33-1.51-1.416-1.51-1.511,0-2.833,1.274-4.532,3.209-4.959,5.667-10.293,13.174-13.6,16.526l-.189-.188c2.408-4.062,6.279-10.577,6.279-15.205a5.65,5.65,0,0,0-6.043-6.043c-7.46,0-16.667,11.379-16.667,16.9,0,2.5,2.361,4.628,4.013,4.628.519,0,.094-.142.094-.851,0-7.223,10.624-17.941,12.985-17.941a1.065,1.065,0,0,1,1.086,1.18c0,5.193-14.165,25.166-15.062,26.346-.944,1.228-1.982,2.362-1.982,3.4a3.827,3.827,0,0,0,3.022,3.3c2.643,0,13.172-11,18.649-17.375l.283.047c-2.171,3.588-5.948,13.032-5.948,15.486,0,1.889,1.321,2.834,4.485,2.834,1.227,0,1.417-.945,2.219-2.126.8-1.132,8.263-12.653,15.109-21.34C288.123,231.229,296.008,223.627,301.012,221.22Z" fill="#277191"/>
      <path id="Path_49" data-name="Path 49" d="M297.8,227.31a4.538,4.538,0,0,0-4.579,4.345,3.985,3.985,0,0,0,4.156,3.871,4.538,4.538,0,0,0,4.579-4.344A3.986,3.986,0,0,0,297.8,227.31Z" fill="#277191"/>
      <path id="Path_50" data-name="Path 50" d="M316.07,250.162v-.093c0-.19-.047-.237-.283-.237a1.5,1.5,0,0,1-1.275.615,3.538,3.538,0,0,1-1.085-.189c.376-1.559.661-2.975.9-4.156.9-4.06,4.013-8.215,4.013-9.3,0-.661-.9-1.086-2.078-1.086-1.794,0-5.524,2.219-8.121,6.138a56.379,56.379,0,0,1-4.532,5.9,14.071,14.071,0,0,0-1.984-.142,8.245,8.245,0,0,0-7.808,5.815c-1.832,2.341-4.06,4.809-5.6,4.809-.377,0-.661-.283-.661-.992,0-3.257,7.083-15.628,8.074-17.516a.762.762,0,0,0,.142-.378c0-.8-1.652-1.04-2.834-1.04a6.319,6.319,0,0,0-1.227.1c-2.408.992-9.774,12.89-9.774,18.65,0,2.692,1.512,5.43,3.872,5.43,2.452,0,5.386-2.637,7.71-5.383.6,3.581,3.791,5.619,7.492,5.619,4.108,0,8.782-2.5,11.1-8.215h.378C314.276,254.507,316.117,252.9,316.07,250.162Zm-16.1,9.208a2.849,2.849,0,0,1-3.164-2.833c0-1.841,1.605-3.872,4.722-3.872a20.1,20.1,0,0,1,4.769.8C304.833,257.765,302.141,259.37,299.97,259.37Zm7.7-10.671c-.614-.189-1.227-.33-1.842-.519,1.228-1.463,2.456-3.022,2.833-3.541l.142.094C308.516,245.583,308.138,246.953,307.666,248.7Z" fill="#277191"/>
      <path id="Path_51" data-name="Path 51" d="M396.237,249.549c-.236,0-1.747,2.361-3.542,4.533-1.605,1.983-3.73,3.825-4.91,3.825a.655.655,0,0,1-.661-.709c0-3.683,4.863-10.53,6.658-12.465,1.039-1.18,2.5-1.935,2.5-2.786,0-1.086-1.747-3.683-3.068-3.683-.662,0-3.307.378-5.525.378-.755,0-1.039-.142-1.039-.331a2.812,2.812,0,0,0,.472-1.463c0-.8-.377-1.227-1.085-1.227-1.559,0-2.267.472-3.211,2.832-.9,2.125-1.181,4.156-2.6,6.988a39.256,39.256,0,0,1-2.575,4.62c-1.529,2-5.323,7.657-7.81,7.657-.474,0-.71-.33-.71-.8,0-2.926,8.311-14.635,8.311-17.233,0-.66-.709-.755-1.181-.849a3.273,3.273,0,0,0-1.369-.285c-.849,0-3.352,3.07-3.588,3.07a4.194,4.194,0,0,0-4.3-3.258c-5.656,0-11.559,5.844-14.333,11.7-1.539,2.06-5.367,7.706-7.336,7.706-.992,0-1.134-.426-1.134-.992,0-2.03,5.336-11.662,6-12.937.614-1.274,1.227-2.078,1.227-3.352,0-.85-2.265-2.031-4.013-2.031-2.36,0-6.988,5.1-8.451,6.752a24.733,24.733,0,0,0,1.51-3.919c0-1.274-2.5-2.739-4.532-2.739-2.077,0-8.971,7.226-9.112,7.226.188-.662,2.218-5.006,2.218-6.044,0-.946-3.162-1.7-3.966-1.7-.708,0-3.3,3.966-6.469,9.963-3.162,6.044-5.476,10.813-5.476,12.04,0,1.274,2.55,2.5,3.824,2.5s4.391-5.714,7.555-10.152a42.422,42.422,0,0,1,8.545-8.782l.143.142c0,1.369-5.855,11.662-8.169,16.714a.6.6,0,0,0-.047.283c0,.992,2.691,2.031,4.343,2.031.945,0,2.692-4.438,5.478-8.878a42.266,42.266,0,0,1,9.112-10.481l.143.1c-1.181,1.7-6.139,9.348-6.139,14.731a4.271,4.271,0,0,0,4.344,4.2c2.743,0,6.332-3.568,8.8-6.758-.012.193-.02.385-.02.573,0,4.2,2.549,6.327,5.146,6.327,3.919,0,7.365-4.344,7.507-4.344s.9,3.919,4.2,3.919c3.15,0,7.934-5.992,10-9.194,0-.006.009-.008.012-.014,1.653-2.36,3.967-5.807,6.28-9.584.047-.094.189-.141.377-.141a5.885,5.885,0,0,1,2.362.755c0,.141-6.375,8.64-6.375,13.267,0,3.4,2.314,5.147,5.289,5.147,4.108,0,11-10.246,11-11.143C396.85,250.4,396.661,249.549,396.237,249.549ZM361.582,253.8v.379c.379,0,1.37.094,1.37.472,0,.9-3.3,3.162-4.534,3.162-.944,0-1.463-.849-1.463-2.36,0-4.627,5.525-14.5,9.349-14.5,1.133,0,1.936,1.133,1.936,2.6C368.24,247.9,362.81,253.469,361.582,253.8Z" fill="#277191"/>
    </g>
    <g id="Group_4" data-name="Group 4">
      <path id="Path_52" data-name="Path 52" d="M262.361,188.657l-.006-.159a56.6,56.6,0,0,1-6.512.462l.009.155c.094,1.849.178,3.781.223,5.558,2.29.026,4.511.087,6.629.182C262.556,192.963,262.444,190.748,262.361,188.657Z" fill="none"/>
      <path id="Path_53" data-name="Path 53" d="M285.249,143.705c.052.164.1.328.154.492l.015.049q.075.247.147.493l.007.025c.056.194.111.389.164.583l.059.1.057.1.076.134.059.1.076.136.058.1.075.137.058.107c.025.045.049.09.073.135l.06.112c.043.08.086.162.129.244l.066.129c.022.041.043.082.064.123s.048.1.071.142l.058.114.072.147c.018.037.037.075.055.113l.072.149.055.114c.024.05.047.1.071.152l.054.115c.024.051.047.1.071.155l.052.114c.023.053.047.106.07.158l.051.116c.024.053.047.107.071.161l.049.115c.023.054.046.11.07.165.016.038.032.076.047.115l.069.167.047.115c.023.057.045.115.068.172l.045.114c.023.058.045.116.067.175l.044.114c.022.059.044.119.067.179l.04.111c.023.062.045.123.067.186l.038.107c.023.064.045.127.067.191l.036.106.066.2.032.1c.023.068.045.137.067.206l.027.087.069.221.02.069c.025.08.049.161.073.242l.006.023c.115.4.223.8.321,1.214l0,.011c.02.085.039.171.059.256l.016.07c.018.078.034.156.051.234l.02.1c.016.074.031.148.046.223l.021.108c.015.072.028.144.042.216l.021.117c.013.071.025.142.038.213l.021.124c.012.07.023.14.034.211.007.042.014.085.02.128.011.069.021.139.031.208.006.045.013.089.019.134l.027.207.018.137.024.208c.006.046.011.092.016.138l.021.208c0,.047.009.1.014.142.006.069.013.138.018.207l.012.144c.005.07.011.139.015.209,0,.048.007.1.01.144l.012.21c0,.049.005.1.007.147,0,.07.007.14.009.21,0,.049,0,.1.005.147,0,.071.005.142.006.213l0,.145c0,.072,0,.145,0,.217v.142c0,.074,0,.148,0,.223,0,.044,0,.089,0,.134,0,.077,0,.155-.005.232,0,.037,0,.074,0,.111q-.014.423-.043.851c0,.046-.005.092-.009.139-.005.068-.011.138-.017.207s-.009.113-.014.169-.013.131-.02.2l-.018.182c-.007.064-.015.129-.023.193s-.014.125-.022.187-.017.128-.026.192-.017.127-.026.191-.019.127-.028.19l-.03.194c-.011.063-.021.126-.032.19s-.022.131-.034.2-.023.127-.035.19-.025.132-.038.2-.025.125-.038.188l-.042.2-.042.187c-.015.069-.031.137-.046.206l-.045.186c-.016.069-.034.138-.051.208l-.047.185-.057.211c-.016.061-.033.123-.05.184l-.061.214c-.018.061-.035.122-.054.183s-.044.145-.066.218-.037.12-.056.18l-.019.061c1.111-.829,2.342-3.065,2.485-8.854.13-5.231-3.07-10.125-5.817-13.342.014.042.027.084.04.126Z" fill="#71b3cb"/>
      <path id="Path_54" data-name="Path 54" d="M262.2,183.816a30.834,30.834,0,0,1-4.66.356c-.66,0-1.321-.023-1.981-.065.089,1.378.19,3.075.282,4.853a56.6,56.6,0,0,0,6.512-.462C262.285,186.748,262.235,185.092,262.2,183.816Z" fill="#b5e4fa"/>
      <path id="Path_55" data-name="Path 55" d="M273.24,148.748h0a1.04,1.04,0,0,0-.476-.763,2.092,2.092,0,0,0-1.2-.35q-.054,0-.108,0a2.126,2.126,0,0,0-1.267.462,1.038,1.038,0,0,0-.4.8c.028.644.843,1.154,1.779,1.111S273.269,149.392,273.24,148.748Z" fill="#71b3cb"/>
      <path id="Path_56" data-name="Path 56" d="M271.414,179.859c.336-.164.667-.334.99-.512a20.147,20.147,0,0,0,5.339-4.2q-.624.171-1.321.3a33.908,33.908,0,0,1-6.141.6,23.119,23.119,0,0,1-7.012-1.016c-13.791-4.375-19.645-14.923-20.579-18.635a28.7,28.7,0,0,1-11.8-.979,26.3,26.3,0,0,1-5.1-2.187l-.021-.01-.094-.054-.332-.191-.2-.116c-.124-.074-.247-.149-.37-.225-.051-.032-.1-.062-.152-.094-.15-.094-.3-.19-.446-.286l-.073-.047q-.767-.507-1.505-1.066l-.06-.047-.052-.04c-.146-.112-.29-.225-.43-.338l-.092-.074c-.15-.12-.3-.241-.44-.361l-.017-.014h0l-.006-.005c-.1-.08-.188-.16-.28-.239l-.026-.023a27.794,27.794,0,0,1-3.48-3.6c1.453,6.194,3.457,12.779,11.448,21.9.372.425.751.848,1.131,1.264.055.061.11.122.166.182a41.7,41.7,0,0,0,18.186,12.051,30.659,30.659,0,0,0,22.192-1.658C271.029,180.045,271.222,179.953,271.414,179.859Z" fill="#fff"/>
      <path id="Path_57" data-name="Path 57" d="M263.577,199.6c-.3.014-.546-1.3-.74-3.223-.047-.474-.091-.988-.133-1.526-2.118-.1-4.339-.156-6.629-.182.013.516.023,1.02.029,1.5.037,3.018-.076,5.276-.5,5.294-.388.017-1.074-2.266-1.816-5.312-.117-.481-.236-.984-.355-1.5-16.5.023-29.825,1.963-29.825,4.353s13.485,4.355,30.119,4.355,30.118-1.95,30.118-4.355c0-1.844-7.932-3.419-19.129-4.054-.081.534-.161,1.042-.242,1.51C264.16,198.328,263.845,199.591,263.577,199.6Z" fill="#f9aa74"/>
      <g id="Group_3" data-name="Group 3">
        <path id="Path_58" data-name="Path 58" d="M271.414,179.859c.336-.164.667-.334.99-.512a20.147,20.147,0,0,0,5.339-4.2q-.624.171-1.321.3a33.908,33.908,0,0,1-6.141.6,23.119,23.119,0,0,1-7.012-1.016c-13.791-4.375-19.645-14.923-20.579-18.635a28.7,28.7,0,0,1-11.8-.979,26.3,26.3,0,0,1-5.1-2.187l-.021-.01-.094-.054-.332-.191-.2-.116c-.124-.074-.247-.149-.37-.225-.051-.032-.1-.062-.152-.094-.15-.094-.3-.19-.446-.286l-.073-.047q-.767-.507-1.505-1.066l-.06-.047-.052-.04c-.146-.112-.29-.225-.43-.338l-.092-.074c-.15-.12-.3-.241-.44-.361l-.017-.014h0l-.006-.005c-.1-.08-.188-.16-.28-.239l-.026-.023a27.794,27.794,0,0,1-3.48-3.6c1.453,6.194,3.457,12.779,11.448,21.9.372.425.751.848,1.131,1.264.055.061.11.122.166.182a41.7,41.7,0,0,0,18.186,12.051,30.659,30.659,0,0,0,22.192-1.658C271.029,180.045,271.222,179.953,271.414,179.859Z" fill="none"/>
        <path id="Path_59" data-name="Path 59" d="M285.249,143.705c.052.164.1.328.154.492l.015.049q.075.247.147.493l.007.025c.056.194.111.389.164.583l.059.1.057.1.076.134.059.1.076.136.058.1.075.137.058.107c.025.045.049.09.073.135l.06.112c.043.08.086.162.129.244l.066.129c.022.041.043.082.064.123s.048.1.071.142l.058.114.072.147c.018.037.037.075.055.113l.072.149.055.114c.024.05.047.1.071.152l.054.115c.024.051.047.1.071.155l.052.114c.023.053.047.106.07.158l.051.116c.024.053.047.107.071.161l.049.115c.023.054.046.11.07.165.016.038.032.076.047.115l.069.167.047.115c.023.057.045.115.068.172l.045.114c.023.058.045.116.067.175l.044.114c.022.059.044.119.067.179l.04.111c.023.062.045.123.067.186l.038.107c.023.064.045.127.067.191l.036.106.066.2.032.1c.023.068.045.137.067.206l.027.087.069.221.02.069c.025.08.049.161.073.242l.006.023c.115.4.223.8.321,1.214l0,.011c.02.085.039.171.059.256l.016.07c.018.078.034.156.051.234l.02.1c.016.074.031.148.046.223l.021.108c.015.072.028.144.042.216l.021.117c.013.071.025.142.038.213l.021.124c.012.07.023.14.034.211.007.042.014.085.02.128.011.069.021.139.031.208.006.045.013.089.019.134l.027.207.018.137.024.208c.006.046.011.092.016.138l.021.208c0,.047.009.1.014.142.006.069.013.138.018.207l.012.144c.005.07.011.139.015.209,0,.048.007.1.01.144l.012.21c0,.049.005.1.007.147,0,.07.007.14.009.21,0,.049,0,.1.005.147,0,.071.005.142.006.213l0,.145c0,.072,0,.145,0,.217v.142c0,.074,0,.148,0,.223,0,.044,0,.089,0,.134,0,.077,0,.155-.005.232,0,.037,0,.074,0,.111q-.014.423-.043.851c0,.046-.005.092-.009.139-.005.068-.011.138-.017.207s-.009.113-.014.169-.013.131-.02.2l-.018.182c-.007.064-.015.129-.023.193s-.014.125-.022.187-.017.128-.026.192-.017.127-.026.191-.019.127-.028.19l-.03.194c-.011.063-.021.126-.032.19s-.022.131-.034.2-.023.127-.035.19-.025.132-.038.2-.025.125-.038.188l-.042.2-.042.187c-.015.069-.031.137-.046.206l-.045.186c-.016.069-.034.138-.051.208l-.047.185-.057.211c-.016.061-.033.123-.05.184l-.061.214c-.018.061-.035.122-.054.183s-.044.145-.066.218-.037.12-.056.18l-.019.061c1.111-.829,2.342-3.065,2.485-8.854.13-5.231-3.07-10.125-5.817-13.342.014.042.027.084.04.126Z" fill="none"/>
        <path id="Path_60" data-name="Path 60" d="M261.105,161.209l.3-.014c.033.34.074.679.125,1.016a13.36,13.36,0,0,0,.873,3.17,7.281,7.281,0,0,0,4.93,4.49,8.874,8.874,0,0,0,4.712-.237,11.089,11.089,0,0,0,3.774-2.179A10.6,10.6,0,0,0,278.776,163c.049-.141.093-.283.135-.426l.227.063a.541.541,0,0,0,.673-.629l-.32-3.119a.54.54,0,0,0-.93-.255L276.5,161.1a.54.54,0,0,0,.258.883l.251.069a10.126,10.126,0,0,1-.542,1.384,9.538,9.538,0,0,1-1.214,1.809,9.808,9.808,0,0,1-1.66,1.459,9.982,9.982,0,0,1-2.064,1.039,7.386,7.386,0,0,1-1.675.356c-.06,0-.119.007-.179.009a45.24,45.24,0,0,0,1.813-5.927c.106-.462.2-.927.295-1.393a9.876,9.876,0,0,0,1.053-.125,8.92,8.92,0,0,0,1.255-.322,1.046,1.046,0,0,0,.589-.453.986.986,0,0,0-.354-1.348.989.989,0,0,0-.759-.1,8.81,8.81,0,0,1-1.431.349h-.007c.182-1.222.312-2.453.386-3.685q.117-1.934.041-3.873a2.68,2.68,0,0,0,2.061-2.544,2.389,2.389,0,0,0-1.057-1.828,3.615,3.615,0,0,0-4.261.191,2.393,2.393,0,0,0-.89,1.915,2.658,2.658,0,0,0,2.178,2.326,39.491,39.491,0,0,1-.155,5.25q-.069.705-.162,1.409c-.038.274-.078.548-.122.821l-.028,0a19.671,19.671,0,0,1-2-.41,1.035,1.035,0,0,0-.759.1.986.986,0,0,0,.235,1.8,20.589,20.589,0,0,0,2.195.44,44.327,44.327,0,0,1-1.461,5.343q-.325.951-.692,1.886a4.861,4.861,0,0,1-.778-.276,5.852,5.852,0,0,1-1-.684,7.2,7.2,0,0,1-1.01-1.14,8.885,8.885,0,0,1-.868-1.79,14.218,14.218,0,0,1-.617-2.929l.279-.012a.559.559,0,0,0,.462-.832l-1.513-2.958a.559.559,0,0,0-1,.045l-1.034,3.07A.559.559,0,0,0,261.105,161.209Z" fill="none"/>
        <path id="Path_61" data-name="Path 61" d="M265.317,106.685c.1.01.2.021.3.033l.1.011.278.033.121.015.259.033.134.018.247.035.14.02.237.035.144.022.231.038.142.023.227.039.141.025.221.04.141.026.217.042.138.028.215.044.135.028c.07.014.139.03.208.045l.136.03.2.046.136.031.2.047.132.032.2.05.13.032.193.051.127.034.189.051.126.035.186.053.123.035.183.055.12.036.18.055.119.037.176.056.116.038.174.057.113.038.17.059.113.039.166.059.11.04c.055.019.11.04.164.06l.107.04.161.061.106.04.157.062.1.041.154.062.1.042.152.062.1.042.149.064.1.042.145.064.1.042.144.065.094.043.138.064.094.044.136.065.09.043.135.066.087.043.132.066.086.043.129.066.085.044.125.065.085.045.121.065.084.046.118.064.081.045.116.065.079.045.115.065.076.044c.038.021.075.043.112.065l.076.045.109.064.075.045.106.064.072.044.1.064.073.045.1.062.074.046.1.061.071.045.094.06.072.047.088.058.072.048.085.056.081.054.072.049.093.063.057.039.135.092.011.008.284.2.015.011.12.085.033.024.1.071.029.022.1.072.02.015.452.328c-.055-2.308-.986-6.146-6.258-7.589a10.6,10.6,0,0,0-7.5.258,6.778,6.778,0,0,0-2.088,1.549q.411.034.808.076Z" fill="#71b3cb"/>
        <path id="Path_62" data-name="Path 62" d="M281.219,137.535a3.942,3.942,0,0,0-.873-1.757q-.213.111-.431.221l.9,1.761Q281.017,137.649,281.219,137.535Z" fill="#71b3cb"/>
        <path id="Path_63" data-name="Path 63" d="M280.265,138.048l-.9-1.772c-.182.089-.363.178-.542.263l.838,1.81Q279.964,138.2,280.265,138.048Z" fill="#71b3cb"/>
        <path id="Path_64" data-name="Path 64" d="M262.1,114.954c.032,0,.065,0,.1,0,1.234,0,2.291,1.242,2.46,2.888a4.115,4.115,0,0,1-.24,1.985,2.031,2.031,0,0,1-1.562,1.32l-1.73.416a13.411,13.411,0,0,0,4.846,1.426l.01,0a.349.349,0,0,1,.045.007.477.477,0,0,1,.052.01l.041.014c.016.007.033.012.048.02s.027.015.04.023a.455.455,0,0,1,.04.026c.014.01.026.022.039.033l.031.029a.488.488,0,0,1,.034.043.348.348,0,0,1,.023.031c.01.016.018.032.026.048s.013.025.018.038a.47.47,0,0,1,.016.049c0,.015.009.03.012.046l0,.015a.249.249,0,0,1,0,.039c0,.01,0,.021,0,.031v.013a.544.544,0,0,1-.005.057.285.285,0,0,1,0,.041c0,.017-.009.034-.014.052a.315.315,0,0,1-.014.04.391.391,0,0,1-.022.046c-.007.013-.013.026-.021.039s-.019.026-.029.039-.019.024-.029.035-.024.023-.036.034l-.035.029a.356.356,0,0,1-.041.026c-.014.008-.027.017-.042.024l-.043.017a.466.466,0,0,1-.049.016l-.018.006a13.659,13.659,0,0,0-6.959,3.624l.711,6.068,0,.02a22.711,22.711,0,0,1-.011,2.82,36.612,36.612,0,0,0,5.188,1.23c.438.055.872.1,1.292.131a24.9,24.9,0,0,0,5.01-.112c.406-.058.809-.126,1.2-.2a24.576,24.576,0,0,0,4.636-1.4c1.023-.442,2.351-1.094,3.451-1.693a93.269,93.269,0,0,1-.459-11.863,19.066,19.066,0,0,0-.723-5.416c-.075-.065-.207-.144-.229-.162-6.47-5.176-15.025-6.007-17.607-6.139a7.773,7.773,0,0,0-2.574,3.469,2.777,2.777,0,0,1,.916.485Zm4.89,1.579a4.225,4.225,0,0,0,2.475,2.139,1.8,1.8,0,0,1-1.694,1.6,1.863,1.863,0,0,1-1.726-1.975A2.02,2.02,0,0,1,266.994,116.533Z" fill="#fff"/>
        <path id="Path_65" data-name="Path 65" d="M269.877,140.956c.272-.019.547-.041.823-.068l-.175-1.985c-.241.021-.482.038-.723.053Z" fill="#71b3cb"/>
        <path id="Path_66" data-name="Path 66" d="M271.239,138.83l-.1.01.175,1.981q.507-.062,1.022-.142L272.1,138.7c-.152.026-.3.051-.457.074v0l-.4.054Z" fill="#71b3cb"/>
        <path id="Path_67" data-name="Path 67" d="M272.948,140.577q.482-.087.961-.194l-.573-1.926q-.313.07-.627.133Z" fill="#71b3cb"/>
        <path id="Path_68" data-name="Path 68" d="M282.009,137.092a1.544,1.544,0,0,0-.105-1.048,1.447,1.447,0,0,0-.549-.807c-.147.081-.3.164-.453.247a4.869,4.869,0,0,1,.883,1.705A1.3,1.3,0,0,1,282.009,137.092Z" fill="#71b3cb"/>
        <path id="Path_69" data-name="Path 69" d="M266.776,140.969q.477.027.945.037L267.68,139q-.315-.006-.63-.021Z" fill="#71b3cb"/>
        <path id="Path_70" data-name="Path 70" d="M310.949,127.072H283.718a.434.434,0,0,1-.428-.427,4.442,4.442,0,0,1,.713-2.484,5.146,5.146,0,0,1,3.368-2.059,5.8,5.8,0,0,1,1.768-.074c.107.013.217.029.326.049l0-.025a6.4,6.4,0,0,1,.632-2.043,5.342,5.342,0,0,1,2.106-2.1,7.476,7.476,0,0,1,3.033-.948,6.433,6.433,0,0,1,2.953.4,5.529,5.529,0,0,1,2.4,1.848,5.285,5.285,0,0,1,1.93-.443,4.63,4.63,0,0,1,2.177.5,4.3,4.3,0,0,1,1.4,1.219,7.087,7.087,0,0,1,1.061,2.225c.31-.02.621-.027.932-.017a7.406,7.406,0,0,1,2.295.454,56.127,56.127,0,0,0-106.875-12.39,5.093,5.093,0,0,1,7.187,3.078c.028.1.053.191.077.289l.052-.06a5.375,5.375,0,0,1,9.318,2.958c5.807-.643,8.523,2.727,8.523,2.727H200.546A56.116,56.116,0,0,0,252.182,188.9c-.427-2.056-.81-3.986-1.088-5.415q-1.377-.292-2.751-.71c-6.646-2.023-13.093-6.29-18.646-12.34-.44-.479-.881-.972-1.312-1.464-8.909-10.174-10.519-17.244-12.075-24.081l-.186-.817a.488.488,0,0,1-.009-.174c-.586-3.1-1.013-7.053.138-8.727a1.9,1.9,0,0,1,1.262-.843,2.1,2.1,0,0,1,1.634.34,4.91,4.91,0,0,1,1.6,3.158,1.987,1.987,0,0,1,1.513.5c2.915,2.332,3.7,9.3,4.214,13.917l.022.2a25.367,25.367,0,0,0,4.721,1.992,27.664,27.664,0,0,0,11.343.933,3.076,3.076,0,0,1,1.092-2.084,1.61,1.61,0,0,1,1.538-.343,2.708,2.708,0,0,0,2.659-.526c.333-.246.69-.477,1.056-.7a24.515,24.515,0,0,1-3.112-1.59,23.926,23.926,0,0,1-10.22-12.666c-1.906-5.357-2.671-9.926-2.338-13.97a19.182,19.182,0,0,1,3.336-9.406c1.865-2.757,3.824-4.322,5.823-4.653a4.3,4.3,0,0,1,2.5.306,4.521,4.521,0,0,1,2.735-2.016,3.659,3.659,0,0,1,2.9.78,3.177,3.177,0,0,1,1.921-1.33,2.582,2.582,0,0,1,2.006.294,3.434,3.434,0,0,1,.5.357,3.521,3.521,0,0,1,1.1,1.383,7.643,7.643,0,0,1,.7,1.794,5.677,5.677,0,0,1-.2,3.323l1.373-.041a9.131,9.131,0,0,1,2.56-3.819,1.411,1.411,0,0,1-.385-.514,2.478,2.478,0,0,1,.1-2.347c.512-.727,1.533-1.086,3.036-1.069a7.61,7.61,0,0,1,2.9-2.4,10.143,10.143,0,0,1,5.517-.838v0a.5.5,0,0,1,.039-.235l0-.019a.51.51,0,0,1,.047-.366.7.7,0,0,1-.006-.094.533.533,0,0,1,.024-.149c.032-.1.054-.165.083-.249.018-.051.038-.111.067-.195a.516.516,0,0,1,.091-.164l0-.019.009-.038a.758.758,0,0,1,.21-.338l.068-.065a.512.512,0,0,1,.27-.427.7.7,0,0,0,.073-.073c.025-.028.051-.056.078-.082l.01-.012a1.692,1.692,0,0,1,.169-.161l.021-.017a1.291,1.291,0,0,1,.3-.166.416.416,0,0,1,.05-.016.516.516,0,0,1,.483-.2.912.912,0,0,1,.325-.064h.015a.917.917,0,0,1,.106-.026l0,0a3.86,3.86,0,0,1,1.066-.184.537.537,0,0,1,.126.051.523.523,0,0,1,.118.01,2.108,2.108,0,0,1,.367.12l.011,0,.012.005.018.008a.642.642,0,0,1,.471.107.536.536,0,0,1,.065.029l.1.055c.013.007.025.015.037.023l.1.062.009,0h0l.118.031.019.006a.776.776,0,0,1,.505.409.511.511,0,0,1,.246.248.322.322,0,0,0,.043.055l.007.008a.694.694,0,0,0,.076.072,1.153,1.153,0,0,1,.367.5.358.358,0,0,1,.018.064.657.657,0,0,1,.066.117.513.513,0,0,1,.039.172.586.586,0,0,1,.052.28.854.854,0,0,1,.083.373v0a.514.514,0,0,1,.042.423,1.043,1.043,0,0,1-.016.126.507.507,0,0,1-.031.238.7.7,0,0,1,.063.332.736.736,0,0,1-.052.326c0,.019-.007.039-.012.059l-.016.066c-.016.064-.032.128-.052.191a.5.5,0,0,1-.128.209h0l-.016.036-.005.01-.016.032-.01.02a.72.72,0,0,1-.015.089.515.515,0,0,1-.112.207l-.011.017a.522.522,0,0,1-.04.113h0l-.012.033c-.016.038-.036.078-.057.117a8.036,8.036,0,0,1,2.645,3.1,9.587,9.587,0,0,1,.886,4.623,2.524,2.524,0,0,1,.522,3.3,1.877,1.877,0,0,1-1.371.957,20.682,20.682,0,0,1,.638,5.251,93.164,93.164,0,0,0,.431,11.608,1.231,1.231,0,0,1,.421.191,3.2,3.2,0,0,1,1.063,2.706,1.3,1.3,0,0,1-.244.6q.811,1.644,1.471,3.306c3,3.081,7.924,9.176,7.758,15.892-.105,4.228-.893,9.361-4,10.205-.026.068-.051.135-.078.2-1.36,3.418-2.851,5.334-4.313,5.542a1.893,1.893,0,0,1-1.5-.438,6.09,6.09,0,0,1-.486.578,7.155,7.155,0,0,1-1.99,1.413,20.983,20.983,0,0,1-6.777,5.827c-.531.291-1.082.567-1.639.82a36.1,36.1,0,0,1-5.114,1.885c-.126,1.257-.314,3.067-.535,5.028a56.132,56.132,0,0,0,45.632-55.132A56.9,56.9,0,0,0,310.949,127.072ZM265.378,96.158H233.549c.449-1.951,3.754-4.395,6.676-4.395a4.816,4.816,0,0,1,1.124.136,6.474,6.474,0,0,1,12.526-3.24c.037.121.069.243.1.367.023-.025.044-.051.066-.076a6.814,6.814,0,0,1,11.814,3.75c7.363-.815,10.806,3.458,10.806,3.458Z" fill="#b5e4fa"/>
        <path id="Path_71" data-name="Path 71" d="M276.7,139.581l-.73-1.867c-.259.088-.517.171-.777.251l.662,1.9C276.139,139.775,276.42,139.68,276.7,139.581Z" fill="#71b3cb"/>
        <path id="Path_72" data-name="Path 72" d="M277.895,139.128l-.648-1.885q-.347.137-.694.264l.728,1.861Q277.59,139.253,277.895,139.128Z" fill="#71b3cb"/>
        <path id="Path_73" data-name="Path 73" d="M279.1,138.612l-.839-1.81q-.227.1-.442.2l.649,1.888C278.679,138.8,278.889,138.707,279.1,138.612Z" fill="#71b3cb"/>
        <path id="Path_74" data-name="Path 74" d="M273.938,138.314l.574,1.926c.251-.063.5-.129.75-.2l-.663-1.9C274.379,138.2,274.159,138.259,273.938,138.314Z" fill="#71b3cb"/>
        <path id="Path_75" data-name="Path 75" d="M268.34,141.011c.3,0,.61-.008.919-.021l-.075-2.005q-.441.017-.885.017Z" fill="#71b3cb"/>
        <path id="Path_76" data-name="Path 76" d="M252.164,113.553a2.113,2.113,0,0,0,.958.613,2.138,2.138,0,0,0,1.73-.305,2,2,0,0,0,.9-1.939,5.568,5.568,0,0,0-.665-2.317,3.4,3.4,0,0,0-1.151-1.251,1.555,1.555,0,0,0-1.22-.188,1.972,1.972,0,0,0-1.492,1.243c0,.013-.007.026-.011.039a7.121,7.121,0,0,1,.672,1.224A4.241,4.241,0,0,1,252.164,113.553Z" fill="#b5e4fa"/>
        <path id="Path_77" data-name="Path 77" d="M258.577,139.318l.561.167a5.771,5.771,0,0,1,.522-1.915c-.218-.065-.426-.13-.623-.192a1.831,1.831,0,0,0-.387.811A2.31,2.31,0,0,0,258.577,139.318Z" fill="#71b3cb"/>
        <path id="Path_78" data-name="Path 78" d="M263.581,174.043a26.165,26.165,0,0,0,12.654.388,8.486,8.486,0,0,0,4.693-2.139c1.066-1.094,3.6-5.371,4.645-11.607a34.444,34.444,0,0,0,.048-10.953,39.8,39.8,0,0,0-3.667-11.43c-.02.013-.039.026-.06.038a30.211,30.211,0,0,1-4.633,2.136,25.3,25.3,0,0,1-4.412,1.166,27.871,27.871,0,0,1-4.614.4l-.231,0a30.116,30.116,0,0,1-4.884-.469c-1.2-.207-3.384-.836-4.385-1.132a31.08,31.08,0,0,1-4.67,8.871,12,12,0,0,1-3.589,2.681,20.62,20.62,0,0,0-2.012,1.25,3.739,3.739,0,0,1-3.6.675.4.4,0,0,0-.126-.02.756.756,0,0,0-.443.189,2.014,2.014,0,0,0-.706,1.537c.108,1.073,1.4,4.544,4.706,8.427A33.024,33.024,0,0,0,263.581,174.043Zm-3.01-13.622,1.034-3.07a.559.559,0,0,1,1-.045l1.513,2.958a.559.559,0,0,1-.462.832l-.279.012a14.218,14.218,0,0,0,.617,2.929,8.885,8.885,0,0,0,.868,1.79,7.2,7.2,0,0,0,1.01,1.14,5.852,5.852,0,0,0,1,.684,4.861,4.861,0,0,0,.778.276q.366-.936.692-1.886A44.327,44.327,0,0,0,269.8,160.7a20.589,20.589,0,0,1-2.195-.44.986.986,0,0,1-.235-1.8,1.035,1.035,0,0,1,.759-.1,19.671,19.671,0,0,0,2,.41l.028,0c.044-.273.084-.547.122-.821q.093-.7.162-1.409a39.491,39.491,0,0,0,.155-5.25,2.658,2.658,0,0,1-2.178-2.326,2.393,2.393,0,0,1,.89-1.915,3.615,3.615,0,0,1,4.261-.191,2.389,2.389,0,0,1,1.057,1.828,2.68,2.68,0,0,1-2.061,2.544q.075,1.937-.041,3.873c-.074,1.232-.2,2.463-.386,3.685h.007a8.81,8.81,0,0,0,1.431-.349.987.987,0,0,1,1.212.689,1,1,0,0,1-.1.759,1.046,1.046,0,0,1-.589.453,8.92,8.92,0,0,1-1.255.322,9.876,9.876,0,0,1-1.053.125c-.092.466-.189.931-.295,1.393a45.24,45.24,0,0,1-1.813,5.927c.06,0,.119-.005.179-.009a7.386,7.386,0,0,0,1.675-.356,9.982,9.982,0,0,0,2.064-1.039,9.808,9.808,0,0,0,1.66-1.459,9.538,9.538,0,0,0,1.214-1.809,10.126,10.126,0,0,0,.542-1.384l-.251-.069a.54.54,0,0,1-.258-.883l2.06-2.468a.54.54,0,0,1,.93.255l.32,3.119a.541.541,0,0,1-.673.629l-.227-.063c-.042.143-.086.285-.135.426a10.6,10.6,0,0,1-2.953,4.457,11.089,11.089,0,0,1-3.774,2.179,8.874,8.874,0,0,1-4.712.237,7.281,7.281,0,0,1-4.93-4.49,13.36,13.36,0,0,1-.873-3.17c-.051-.337-.092-.676-.125-1.016l-.3.014A.559.559,0,0,1,260.571,160.421Z" fill="#71b3cb"/>
        <path id="Path_79" data-name="Path 79" d="M258.248,127.031a11.475,11.475,0,0,1,3.517-2.582l-.06.006-.321.034-.1.011-.34.036-.081.008-.421.045-.027,0-.424.045-.061.007-.409.044-.066.007-.437.048-.031,0-.475.052-.031,0-.45.049-.069.008-.471.052h-.011l-.5.055-.042,0-.466.052-.057.006-.467.053-.047,0-.5.057-.012,0-.5.056-.05.006-.483.056-.028,0-.507.059-.013,0-.516.06-.016,0-.494.058-.038.005-.49.059-.017,0-.506.061h-.007l-.494.06-.022,0-.483.06h-.012l-.973.123h0c-1.28.164-2.454.325-3.433.475A32.347,32.347,0,0,0,258.248,127.031Z" fill="#d9864a"/>
        <path id="Path_80" data-name="Path 80" d="M246.649,113.836a2.385,2.385,0,0,0,1.709,1.038,2.756,2.756,0,0,0,1.989-.552,2.377,2.377,0,0,0,.591-.57,2.827,2.827,0,0,0,0-2.676,6.468,6.468,0,0,0-1.209-1.828,1.585,1.585,0,0,0-.538-.349h0a2.472,2.472,0,0,0-1.371-.166,3.634,3.634,0,0,0-2.147,1.7,5.069,5.069,0,0,1,1.012,2.505A3.486,3.486,0,0,1,246.649,113.836Z" fill="#b5e4fa"/>
        <path id="Path_81" data-name="Path 81" d="M253.258,148.67a30.253,30.253,0,0,0,4.538-8.663,1.167,1.167,0,0,1-.224-.461,3.606,3.606,0,0,1,.751-2.911,1.077,1.077,0,0,1,.448-.266,22.135,22.135,0,0,0,.013-2.564l-.67-5.718a30.517,30.517,0,0,1-3.47.227c-.117,0-.234,0-.351,0-.727,0-1.444-.024-2.143-.066-.975-.06-1.913-.157-2.791-.281-.948-.135-1.825-.3-2.6-.485a13.347,13.347,0,0,1-2.52-.822c-.071.015-.133.03-.189.043a3.594,3.594,0,0,0-.394.112,5.906,5.906,0,0,0-2.167,1.584,10.875,10.875,0,0,0-1.325,1.791.515.515,0,0,1-.45.265h-.028a.517.517,0,0,1-.447-.314c-1.706-4.029-.627-6.167.915-7.3l-.011-.007a3.693,3.693,0,0,1-1.071-1.069l0-.006a5.183,5.183,0,0,1-.825-2.516l0-.021a5.557,5.557,0,0,1,.418-2.57l0,0a3.525,3.525,0,0,1,.915-1.254l.017-.015.11-.09c.022-.018.045-.035.069-.052.051-.035.1-.062.132-.084l.017-.01a2.146,2.146,0,0,1,.363-.187l.028-.011a1.5,1.5,0,0,1,.273-.092h.006l.049-.013.013,0a1.663,1.663,0,0,1,.242-.048l.02,0,.06-.006a2.83,2.83,0,0,1-.506-1.137.516.516,0,0,1,1.011-.2A2.389,2.389,0,0,0,242.794,115a1.969,1.969,0,0,0,2.016.029,2.179,2.179,0,0,0,.849-2c-.064-.73-.4-3.117-3.126-2.575-1.668.332-3.441,1.747-5.106,4.208a18.183,18.183,0,0,0-3.163,8.913c-.32,3.9.426,8.324,2.282,13.54a22.867,22.867,0,0,0,13.494,13.942A10.989,10.989,0,0,0,253.258,148.67Z" fill="#b5e4fa"/>
        <path id="Path_82" data-name="Path 82" d="M220.98,148.409l0-.013c-.015-.071-.029-.142-.042-.212l-.012-.061c-.015-.074-.029-.148-.042-.221l0-.012c-.013-.07-.025-.139-.037-.207l-.01-.057c-.013-.071-.025-.142-.037-.212v-.005l-.033-.205-.009-.054c-.011-.069-.021-.137-.032-.2v-.007l-.03-.2-.007-.05c-.01-.069-.019-.137-.029-.206h0l-.027-.207-.007-.051c-.009-.068-.018-.137-.026-.207h0c-.009-.07-.018-.141-.026-.211l-.006-.05c-.009-.07-.017-.14-.025-.211l0-.012-.024-.211-.006-.057c-.017-.15-.034-.3-.052-.461l-.008-.07c-.008-.072-.016-.146-.024-.221l-.055-.494c-.051-.464-.091-1.045-.133-1.659a37.657,37.657,0,0,0-.387-3.778c-.282-1.633-.716-2.664-1.288-3.066a1.082,1.082,0,0,0-.862-.168.885.885,0,0,0-.593.412c-.744,1.083-.726,4.023.049,8.074A24.3,24.3,0,0,0,220.98,148.409Z" fill="#71b3cb"/>
        <path id="Path_83" data-name="Path 83" d="M262.673,120.129a.793.793,0,0,0,.351-.122,1.27,1.27,0,0,0,.477-.659,2.449,2.449,0,0,0,.12-.484,3.177,3.177,0,0,0,.033-.333c0-.057,0-.115,0-.174,0-.135-.007-.273-.021-.413h0c-.007-.069-.017-.136-.028-.2,0-.023-.009-.044-.013-.067-.008-.044-.016-.088-.026-.131-.006-.026-.014-.052-.021-.078s-.019-.076-.03-.113-.017-.053-.026-.079-.023-.07-.035-.1-.021-.052-.032-.078l-.039-.095c-.012-.026-.025-.051-.037-.076s-.028-.06-.044-.088-.027-.048-.04-.072-.032-.055-.048-.081l-.045-.067c-.017-.024-.034-.049-.052-.073s-.032-.041-.048-.061-.036-.045-.055-.066l-.051-.055-.059-.058c-.017-.016-.035-.032-.054-.047s-.04-.034-.061-.05-.037-.027-.056-.04-.042-.028-.063-.04-.039-.022-.059-.032a.655.655,0,0,0-.066-.031l-.06-.024c-.022-.008-.045-.014-.067-.02s-.041-.011-.062-.015l-.068-.01-.063,0h-.053l-2.157-.086a4.775,4.775,0,0,1,.857,2.1,6.2,6.2,0,0,1-.368,2.65Z" fill="#71b3cb"/>
        <path id="Path_84" data-name="Path 84" d="M249.079,115.573a4.3,4.3,0,0,1,1.824,3.532,4.825,4.825,0,0,1-.81,3.054l-.006.008-.04.057a2.632,2.632,0,0,1-.914.765l10.082-1.511a5.882,5.882,0,0,0,.836-3.395,5.146,5.146,0,0,0-1.612-2.772c-.009,0-8.49.155-9.571.175C248.937,115.518,249.011,115.534,249.079,115.573Z" fill="#71b3cb"/>
        <path id="Path_85" data-name="Path 85" d="M239.833,128.811a8.229,8.229,0,0,1,3.463-2.959,6.566,6.566,0,0,1,.907-.235l.193-.039.059-.011.155-.03.064-.012.22-.039.033-.006.2-.036.08-.013.185-.031.073-.012.258-.042.064-.01L246,125.3l.1-.015.207-.031.087-.013.289-.044.087-.012.225-.033.112-.016.231-.033.093-.013.315-.044.114-.016.227-.031.129-.018.25-.033.1-.014.334-.044.135-.018.229-.03.147-.019.269-.035.151-.019.3-.038.156-.019.231-.029.148-.019.328-.041.147-.018.274-.033.167-.021.234-.028.16-.02.37-.044.131-.016.261-.031.181-.021.23-.028.168-.019.365-.043.169-.02.236-.027.177-.021.242-.028.167-.019.37-.042.151-.017.253-.029.169-.019.29-.033.1-.011.393-.045.123-.013.286-.032.133-.015.358-.04.035,0,.407-.045.074-.009.328-.035.1-.012.8-.087.028,0,.38-.041.031,0c1.147-.124,2.211-.236,3.13-.331a12.764,12.764,0,0,1-2.566-1.184,2.46,2.46,0,0,1-1.314.522l-8.85,1.136a3.324,3.324,0,0,1-1.661.455,2.887,2.887,0,0,1-1.851-.658,5.361,5.361,0,0,1-1.108-1.151l0,0c-.043-.065-.082-.133-.122-.2a26.234,26.234,0,0,0-3.652,1C239.447,124.232,238.9,126.059,239.833,128.811Z" fill="#f9aa74"/>
        <path id="Path_86" data-name="Path 86" d="M260.86,139.973c.264.072.532.144.8.212l.437-1.947c-.264-.064-.525-.13-.78-.2l-.417,1.941Z" fill="#71b3cb"/>
        <path id="Path_87" data-name="Path 87" d="M260.3,139.818l.417-1.941-.45-.127a5.113,5.113,0,0,0-.523,1.91C259.917,139.71,260.1,139.764,260.3,139.818Z" fill="#71b3cb"/>
        <path id="Path_88" data-name="Path 88" d="M263.275,140.553l.29-1.988c-.291-.057-.582-.119-.87-.185l-.439,1.954C262.637,140.426,262.988,140.5,263.275,140.553Z" fill="#71b3cb"/>
        <path id="Path_89" data-name="Path 89" d="M264.174,138.679l-.288,1.975c.264.041.524.078.782.112l.309-1.961-.341-.046h0v0C264.481,138.731,264.327,138.705,264.174,138.679Z" fill="#71b3cb"/>
        <path id="Path_90" data-name="Path 90" d="M265.593,138.871l-.31,1.97c.3.033.586.061.875.084l.272-1.985-.229-.015C266,138.91,265.8,138.891,265.593,138.871Z" fill="#71b3cb"/>
        <path id="Path_91" data-name="Path 91" d="M208.337,119.748h20.336s-2.716-3.37-8.523-2.727a5.375,5.375,0,0,0-9.318-2.958l-.052.06c-.024-.1-.049-.194-.077-.289a5.093,5.093,0,0,0-7.187-3.078,55.688,55.688,0,0,0-2.97,8.992h7.791Z" fill="#fff"/>
        <path id="Path_92" data-name="Path 92" d="M265.853,92.7a6.814,6.814,0,0,0-11.814-3.75c-.022.025-.043.051-.066.076-.029-.124-.061-.246-.1-.367a6.474,6.474,0,0,0-12.526,3.24,4.816,4.816,0,0,0-1.124-.136c-2.922,0-6.227,2.444-6.676,4.395h43.11S273.216,91.885,265.853,92.7Z" fill="#fff"/>
        <path id="Path_93" data-name="Path 93" d="M307.164,122.709a7.087,7.087,0,0,0-1.061-2.225,4.3,4.3,0,0,0-1.4-1.219,4.63,4.63,0,0,0-2.177-.5,5.285,5.285,0,0,0-1.93.443,5.529,5.529,0,0,0-2.4-1.848,6.433,6.433,0,0,0-2.953-.4,7.476,7.476,0,0,0-3.033.948,5.342,5.342,0,0,0-2.106,2.1,6.4,6.4,0,0,0-.632,2.043l0,.025c-.109-.02-.219-.036-.326-.049a5.8,5.8,0,0,0-1.768.074A5.146,5.146,0,0,0,284,124.161a4.442,4.442,0,0,0-.713,2.484.434.434,0,0,0,.428.427h27.231c-.135-1.324-.332-2.63-.558-3.926a7.406,7.406,0,0,0-2.295-.454C307.785,122.682,307.474,122.689,307.164,122.709Z" fill="#fff"/>
        <path id="Path_94" data-name="Path 94" d="M246.425,117.126a4.057,4.057,0,0,0-.529,2.314c.089,1.726,1.089,3.091,2.245,3.091l.076,0a1.871,1.871,0,0,0,1.462-1,4.055,4.055,0,0,0,.529-2.313c-.091-1.765-1.141-3.153-2.321-3.089A1.869,1.869,0,0,0,246.425,117.126Z" fill="#277191"/>
        <path id="Path_95" data-name="Path 95" d="M271.261,181.071c.557-.253,1.108-.529,1.639-.82a20.983,20.983,0,0,0,6.777-5.827,7.155,7.155,0,0,0,1.99-1.413,6.09,6.09,0,0,0,.486-.578,1.893,1.893,0,0,0,1.5.438c1.462-.208,2.953-2.124,4.313-5.542.027-.067.052-.134.078-.2,3.111-.844,3.9-5.977,4-10.205.166-6.716-4.754-12.811-7.758-15.892q-.657-1.662-1.471-3.306a1.3,1.3,0,0,0,.244-.6A3.2,3.2,0,0,0,282,134.423a1.231,1.231,0,0,0-.421-.191,93.164,93.164,0,0,1-.431-11.608,20.682,20.682,0,0,0-.638-5.251,1.877,1.877,0,0,0,1.371-.957,2.524,2.524,0,0,0-.522-3.3,9.587,9.587,0,0,0-.886-4.623,8.036,8.036,0,0,0-2.645-3.1c.021-.039.041-.079.057-.117l.012-.033h0a.522.522,0,0,0,.04-.113l.011-.017a.515.515,0,0,0,.112-.207.72.72,0,0,0,.015-.089l.01-.02.016-.032.005-.01.016-.036h0a.5.5,0,0,0,.128-.209c.02-.063.036-.127.052-.191l.016-.066c.005-.02.009-.04.012-.059a.736.736,0,0,0,.052-.326.7.7,0,0,0-.063-.332.507.507,0,0,0,.031-.238,1.043,1.043,0,0,0,.016-.126.514.514,0,0,0-.042-.423v0a.854.854,0,0,0-.083-.373.586.586,0,0,0-.052-.28.513.513,0,0,0-.039-.172.657.657,0,0,0-.066-.117.358.358,0,0,0-.018-.064,1.153,1.153,0,0,0-.367-.5.694.694,0,0,1-.076-.072l-.007-.008a.322.322,0,0,1-.043-.055.511.511,0,0,0-.246-.248.776.776,0,0,0-.505-.409l-.019-.006-.118-.031h0l-.009,0-.1-.062c-.012-.008-.024-.016-.037-.023l-.1-.055a.536.536,0,0,0-.065-.029.642.642,0,0,0-.471-.107l-.018-.008-.012-.005-.011,0a2.108,2.108,0,0,0-.367-.12.523.523,0,0,0-.118-.01.537.537,0,0,0-.126-.051.512.512,0,0,0-.513.05,4.659,4.659,0,0,0-.553.134l0,0a.917.917,0,0,0-.106.026h-.015a.912.912,0,0,0-.325.064.516.516,0,0,0-.483.2.416.416,0,0,0-.05.016,1.291,1.291,0,0,0-.3.166l-.021.017a1.692,1.692,0,0,0-.169.161l-.01.012c-.027.026-.053.054-.078.082a.7.7,0,0,1-.073.073.512.512,0,0,0-.27.427l-.068.065a.758.758,0,0,0-.21.338l-.009.038,0,.019a.516.516,0,0,0-.091.164c-.029.084-.049.144-.067.195-.029.084-.051.147-.083.249a.533.533,0,0,0-.024.149.7.7,0,0,0,.006.094.51.51,0,0,0-.047.366l0,.019a.5.5,0,0,0-.039.235v0a10.143,10.143,0,0,0-5.517.838,7.61,7.61,0,0,0-2.9,2.4c-1.5-.017-2.524.342-3.036,1.069a2.478,2.478,0,0,0-.1,2.347,1.411,1.411,0,0,0,.385.514,9.131,9.131,0,0,0-2.56,3.819l-1.373.041a5.677,5.677,0,0,0,.2-3.323,7.643,7.643,0,0,0-.7-1.794,3.521,3.521,0,0,0-1.1-1.383,3.434,3.434,0,0,0-.5-.357,2.582,2.582,0,0,0-2.006-.294,3.177,3.177,0,0,0-1.921,1.33,3.659,3.659,0,0,0-2.9-.78,4.521,4.521,0,0,0-2.735,2.016,4.3,4.3,0,0,0-2.5-.306c-2,.331-3.958,1.9-5.823,4.653a19.182,19.182,0,0,0-3.336,9.406c-.333,4.044.432,8.613,2.338,13.97a23.926,23.926,0,0,0,10.22,12.666,24.515,24.515,0,0,0,3.112,1.59c-.366.222-.723.453-1.056.7a2.708,2.708,0,0,1-2.659.526,1.61,1.61,0,0,0-1.538.343,3.076,3.076,0,0,0-1.092,2.084,27.664,27.664,0,0,1-11.343-.933,25.367,25.367,0,0,1-4.721-1.992l-.022-.2c-.517-4.613-1.3-11.585-4.214-13.917a1.987,1.987,0,0,0-1.513-.5,4.91,4.91,0,0,0-1.6-3.158,2.1,2.1,0,0,0-1.634-.34,1.9,1.9,0,0,0-1.262.843c-1.151,1.674-.724,5.623-.138,8.727a.488.488,0,0,0,.009.174l.186.817c1.556,6.837,3.166,13.907,12.075,24.081.431.492.872.985,1.312,1.464,5.553,6.05,12,10.317,18.646,12.34q1.372.419,2.751.71c.278,1.429.661,3.359,1.088,5.415l.032.154c.386,1.856.806,3.806,1.224,5.6.119.514.238,1.017.355,1.5.742,3.046,1.428,5.329,1.816,5.312.419-.018.532-2.276.5-5.294-.006-.483-.016-.987-.029-1.5-.045-1.777-.129-3.709-.223-5.558l-.009-.155c-.092-1.778-.193-3.475-.282-4.853.66.042,1.321.065,1.981.065a30.834,30.834,0,0,0,4.66-.356c.033,1.276.083,2.932.153,4.682l.006.159c.083,2.091.2,4.306.343,6.2.042.538.086,1.052.133,1.526.194,1.926.437,3.237.74,3.223.268-.013.583-1.276.9-3.135.081-.468.161-.976.242-1.51.31-2.063.614-4.532.873-6.81l.018-.165c.221-1.961.409-3.771.535-5.028A36.1,36.1,0,0,0,271.261,181.071ZM291.018,156.9c-.143,5.789-1.374,8.025-2.485,8.854l.019-.061c.019-.06.037-.12.056-.18s.045-.146.066-.218.036-.122.054-.183l.061-.214c.017-.061.034-.123.05-.184l.057-.211.047-.185c.017-.07.035-.139.051-.208l.045-.186c.015-.069.031-.137.046-.206l.042-.187.042-.2c.013-.063.026-.126.038-.188s.026-.133.038-.2.024-.127.035-.19.023-.131.034-.2.021-.127.032-.19l.03-.194c.009-.063.019-.127.028-.19s.018-.128.026-.191.018-.128.026-.192.015-.125.022-.187.016-.129.023-.193l.018-.182c.007-.066.014-.131.02-.2s.009-.113.014-.169.012-.139.017-.207c0-.047.006-.093.009-.139q.03-.428.043-.851c0-.037,0-.074,0-.111,0-.077,0-.155.005-.232,0-.045,0-.09,0-.134,0-.075,0-.149,0-.223v-.142c0-.072,0-.145,0-.217l0-.145c0-.071,0-.142-.006-.213,0-.049,0-.1-.005-.147,0-.07-.006-.14-.009-.21,0-.049,0-.1-.007-.147l-.012-.21c0-.048-.006-.1-.01-.144,0-.07-.01-.139-.015-.209l-.012-.144c-.005-.069-.012-.138-.018-.207,0-.047-.009-.1-.014-.142l-.021-.208c0-.046-.01-.092-.016-.138l-.024-.208-.018-.137-.027-.207c-.006-.045-.013-.089-.019-.134-.01-.069-.02-.139-.031-.208-.006-.043-.013-.086-.02-.128-.011-.071-.022-.141-.034-.211l-.021-.124c-.013-.071-.025-.142-.038-.213l-.021-.117c-.014-.072-.027-.144-.042-.216l-.021-.108c-.015-.075-.03-.149-.046-.223l-.02-.1c-.017-.078-.033-.156-.051-.234l-.016-.07c-.02-.085-.039-.171-.059-.256l0-.011c-.1-.412-.206-.816-.321-1.214l-.006-.023c-.024-.081-.048-.162-.073-.242l-.02-.069-.069-.221-.027-.087c-.022-.069-.044-.138-.067-.206l-.032-.1-.066-.2-.036-.106c-.022-.064-.044-.127-.067-.191l-.038-.107c-.022-.063-.044-.124-.067-.186l-.04-.111c-.023-.06-.045-.12-.067-.179l-.044-.114c-.022-.059-.044-.117-.067-.175l-.045-.114c-.023-.057-.045-.115-.068-.172l-.047-.115-.069-.167c-.015-.039-.031-.077-.047-.115-.024-.055-.047-.111-.07-.165l-.049-.115c-.024-.054-.047-.108-.071-.161l-.051-.116c-.023-.052-.047-.1-.07-.158l-.052-.114c-.024-.052-.047-.1-.071-.155l-.054-.115c-.024-.051-.047-.1-.071-.152l-.055-.114-.072-.149c-.018-.038-.037-.076-.055-.113l-.072-.147-.058-.114c-.023-.047-.047-.1-.071-.142s-.042-.082-.064-.123l-.066-.129c-.043-.082-.086-.164-.129-.244l-.06-.112c-.024-.045-.048-.09-.073-.135l-.058-.107-.075-.137-.058-.1-.076-.136-.059-.1-.076-.134-.057-.1-.059-.1c-.053-.194-.108-.389-.164-.583l-.007-.025q-.072-.246-.147-.493l-.015-.049c-.05-.164-.1-.328-.154-.492l-.008-.025c-.013-.042-.026-.084-.04-.126C287.948,146.771,291.148,151.665,291.018,156.9Zm-9.663-21.659a1.447,1.447,0,0,1,.549.807,1.544,1.544,0,0,1,.105,1.048,1.3,1.3,0,0,0-.224.1,4.869,4.869,0,0,0-.883-1.705C281.057,135.4,281.208,135.318,281.355,135.237Zm-6.162,2.728c.26-.08.518-.163.777-.251l.73,1.867c-.28.1-.561.194-.845.282Zm.069,2.075c-.249.071-.5.137-.75.2l-.574-1.926c.221-.055.441-.114.661-.175Zm1.291-2.533q.348-.128.694-.264l.648,1.885q-.3.124-.614.24Zm1.265-.505q.216-.1.442-.2l.839,1.81c-.21.1-.42.188-.632.278Zm1-.463c.179-.085.36-.174.542-.263l.9,1.772q-.3.153-.607.3Zm1.1-.54q.217-.109.431-.221a3.942,3.942,0,0,1,.873,1.757q-.2.114-.406.225Zm-7.189-32.8a.509.509,0,0,0,.043-.166l0-.01a.683.683,0,0,0,.016-.448l.018-.054v0a.7.7,0,0,0,.212-.287.5.5,0,0,0,.038-.185.972.972,0,0,0,.22-.3.507.507,0,0,0,.037-.112c.026-.026.05-.052.071-.075s.032-.035.049-.052l.011-.012.018-.019c.02-.02.038-.04.054-.055a.859.859,0,0,0,.241-.1h0a.518.518,0,0,0,.35-.137.942.942,0,0,0,.23-.045l.009,0a.47.47,0,0,0,.106,0l.013,0,.008,0a.544.544,0,0,0,.089.02.6.6,0,0,0,.452-.121.485.485,0,0,0,.063-.016.518.518,0,0,0,.291.046.766.766,0,0,0,.08-.011l.028.011,0,0a1.226,1.226,0,0,1,.127.068l.061.035a.537.537,0,0,0,.174.06.727.727,0,0,0,.129.007.417.417,0,0,0,.054.023.529.529,0,0,0,.067.046l.132.076a.475.475,0,0,0,.114.048.661.661,0,0,0,.074.077l0,0a.524.524,0,0,0,.035.047.515.515,0,0,0,.278.172l.046.026.062.075a1.594,1.594,0,0,0,.2.192l0,0a.426.426,0,0,0,.01.079.6.6,0,0,0,.109.248.435.435,0,0,0,.034.091.69.69,0,0,0,.1.367l0,.006a1.029,1.029,0,0,0,.02.155l0,.02a.425.425,0,0,0-.044.051.52.52,0,0,0-.1.391.683.683,0,0,0,.062.264,1.12,1.12,0,0,0,.09.167.576.576,0,0,0-.084.274.534.534,0,0,0-.031.1l-.018.04-.029.06a1.321,1.321,0,0,0-.079.19.4.4,0,0,0-.026.06.676.676,0,0,0-.1.2c-.006.015-.011.031-.016.047a11.815,11.815,0,0,0-2.585-1.028q-.836-.228-1.63-.366l-.019-.052-.008-.036A.845.845,0,0,0,272.726,103.195Zm-6.146,1.863a10.6,10.6,0,0,1,7.5-.258c5.272,1.443,6.2,5.281,6.258,7.589l-.452-.328-.02-.015-.1-.072-.029-.022-.1-.071-.033-.024-.12-.085-.015-.011-.284-.2-.011-.008-.135-.092-.057-.039-.093-.063-.072-.049-.081-.054-.085-.056-.072-.048-.088-.058-.072-.047-.094-.06-.071-.045-.1-.061-.074-.046-.1-.062-.073-.045-.1-.064-.072-.044-.106-.064-.075-.045-.109-.064-.076-.045c-.037-.022-.074-.044-.112-.065l-.076-.044-.115-.065-.079-.045-.116-.065-.081-.045-.118-.064-.084-.046-.121-.065-.085-.045-.125-.065-.085-.044-.129-.066-.086-.043-.132-.066-.087-.043-.135-.066-.09-.043-.136-.065-.094-.044-.138-.064-.094-.043-.144-.065-.1-.042-.145-.064-.1-.042-.149-.064-.1-.042-.152-.062-.1-.042-.154-.062-.1-.041-.157-.062-.106-.04-.161-.061-.107-.04c-.054-.02-.109-.041-.164-.06l-.11-.04-.166-.059-.113-.039-.17-.059-.113-.038-.174-.057-.116-.038-.176-.056-.119-.037-.18-.055-.12-.036-.183-.055-.123-.035-.186-.053-.126-.035-.189-.051-.127-.034-.193-.051-.13-.032-.2-.05-.132-.032-.2-.047-.136-.031-.2-.046-.136-.03c-.069-.015-.138-.031-.208-.045l-.135-.028-.215-.044-.138-.028-.217-.042-.141-.026-.221-.04-.141-.025-.227-.039-.142-.023-.231-.038-.144-.022-.237-.035-.14-.02-.247-.035-.134-.018-.259-.033-.121-.015-.278-.033-.1-.011c-.1-.012-.2-.023-.3-.033l-.017,0q-.4-.042-.808-.076A6.778,6.778,0,0,1,266.58,105.058Zm-5.021,5.849c2.582.132,11.137.963,17.607,6.139.022.018.154.1.229.162a19.066,19.066,0,0,1,.723,5.416,93.269,93.269,0,0,0,.459,11.863c-1.1.6-2.428,1.251-3.451,1.693a24.576,24.576,0,0,1-4.636,1.4c-.39.077-.793.145-1.2.2a24.9,24.9,0,0,1-5.01.112c-.42-.032-.854-.076-1.292-.131a36.612,36.612,0,0,1-5.188-1.23,22.711,22.711,0,0,0,.011-2.82l0-.02-.711-6.068A13.659,13.659,0,0,1,266.057,124l.018-.006a.466.466,0,0,0,.049-.016l.043-.017c.015-.007.028-.016.042-.024a.356.356,0,0,0,.041-.026l.035-.029c.012-.011.025-.022.036-.034s.019-.023.029-.035.02-.025.029-.039.014-.026.021-.039a.391.391,0,0,0,.022-.046.315.315,0,0,0,.014-.04c.005-.018.01-.035.014-.052a.285.285,0,0,0,0-.041.544.544,0,0,0,.005-.057v-.013c0-.01,0-.021,0-.031a.249.249,0,0,0,0-.039l0-.015c0-.016-.008-.031-.012-.046a.47.47,0,0,0-.016-.049c-.005-.013-.012-.025-.018-.038s-.016-.032-.026-.048a.348.348,0,0,0-.023-.031.488.488,0,0,0-.034-.043l-.031-.029c-.013-.011-.025-.023-.039-.033a.455.455,0,0,0-.04-.026c-.013-.008-.026-.016-.04-.023s-.032-.013-.048-.02l-.041-.014a.477.477,0,0,0-.052-.01.349.349,0,0,0-.045-.007l-.01,0a13.411,13.411,0,0,1-4.846-1.426l1.73-.416a2.031,2.031,0,0,0,1.562-1.32,4.115,4.115,0,0,0,.24-1.985c-.169-1.646-1.226-2.888-2.46-2.888-.033,0-.066,0-.1,0l-2.2-.093a2.777,2.777,0,0,0-.916-.485A7.773,7.773,0,0,1,261.559,110.907Zm12.35,29.476q-.48.106-.961.194l-.239-1.987q.313-.063.627-.133Zm-2.266-1.608c.153-.023.3-.048.457-.074l.237,1.978q-.515.081-1.022.142l-.175-1.981.1-.01v0l.4-.054Zm-.943,2.113c-.276.027-.551.049-.823.068l-.075-2c.241-.015.482-.032.723-.053Zm-1.441.1c-.309.013-.616.019-.919.021L268.3,139q.444,0,.885-.017Zm-1.538.016q-.468-.011-.945-.037l.274-1.994q.315.015.63.021Zm-1.291-2.066-.272,1.985c-.289-.023-.58-.051-.875-.084l.31-1.97c.205.02.408.039.608.054Zm-1.8-.181h0l.341.046-.309,1.961c-.258-.034-.518-.071-.782-.112l.288-1.975c.153.026.307.052.459.076v0Zm-1.068-.194-.29,1.988c-.287-.05-.638-.127-1.019-.219l.439-1.954C262.983,138.446,263.274,138.508,263.565,138.565Zm-1.472-.327-.437,1.947c-.264-.068-.532-.14-.8-.212l.036.008.417-1.941C261.568,138.108,261.829,138.174,262.093,138.238Zm-1.378-.361-.417,1.941c-.194-.054-.381-.108-.556-.158a5.113,5.113,0,0,1,.523-1.91Zm-19.23-14.635a26.234,26.234,0,0,1,3.652-1c.04.067.079.135.122.2l0,0a5.361,5.361,0,0,0,1.108,1.151,2.887,2.887,0,0,0,1.851.658,3.324,3.324,0,0,0,1.661-.455l8.85-1.136a2.46,2.46,0,0,0,1.314-.522,12.764,12.764,0,0,0,2.566,1.184c-.919.1-1.983.207-3.13.331l-.031,0-.38.041-.028,0-.8.087-.1.012-.328.035-.074.009-.407.045-.035,0-.358.04-.133.015-.286.032-.123.013-.393.045-.1.011-.29.033-.169.019-.253.029-.151.017-.37.042-.167.019-.242.028-.177.021-.236.027-.169.02-.365.043-.168.019-.23.028-.181.021-.261.031-.131.016-.37.044-.16.02-.234.028-.167.021-.274.033-.147.018-.328.041-.148.019-.231.029-.156.019-.3.038-.151.019-.269.035-.147.019-.229.03-.135.018-.334.044-.1.014-.25.033-.129.018-.227.031-.114.016-.315.044-.093.013-.231.033-.112.016-.225.033-.087.012-.289.044-.087.013-.207.031-.1.015-.213.034-.064.01-.258.042-.073.012-.185.031-.08.013-.2.036-.033.006-.22.039-.064.012-.155.03-.059.011-.193.039a6.566,6.566,0,0,0-.907.235,8.229,8.229,0,0,0-3.463,2.959C238.9,126.059,239.447,124.232,241.485,123.242Zm-2.371-3.947a3.846,3.846,0,0,1,1.1-3.085,2.125,2.125,0,0,1,.4-.272,1.754,1.754,0,0,1,.723-.2c1.326-.068,2.48,1.414,2.578,3.311s-.9,3.49-2.224,3.558S239.212,121.192,239.114,119.295Zm21.762-1.3a4.775,4.775,0,0,0-.857-2.1l2.157.086h.053l.063,0,.068.01c.021,0,.041.009.062.015s.045.012.067.02l.06.024a.655.655,0,0,1,.066.031c.02.01.039.02.059.032s.042.026.063.04.038.026.056.04.041.033.061.05.037.031.054.047l.059.058.051.055c.019.021.037.043.055.066s.033.04.048.061.035.049.052.073l.045.067c.016.026.032.054.048.081s.027.047.04.072.03.058.044.088.025.05.037.076l.039.095c.011.026.022.052.032.078s.023.069.035.1.018.052.026.079.021.076.03.113.015.052.021.078c.01.043.018.087.026.131,0,.023.01.044.013.067.011.067.021.134.028.2h0c.014.14.021.278.021.413,0,.059,0,.117,0,.174a3.177,3.177,0,0,1-.033.333,2.449,2.449,0,0,1-.12.484,1.27,1.27,0,0,1-.477.659.793.793,0,0,1-.351.122l-2.165.52A6.2,6.2,0,0,0,260.876,118Zm-11.139,7.825h0l.973-.123h.012l.483-.06.022,0,.494-.06h.007l.506-.061.017,0,.49-.059.038-.005.494-.058.016,0,.516-.06.013,0,.507-.059.028,0,.483-.056.05-.006.5-.056.012,0,.5-.057.047,0,.467-.053.057-.006.466-.052.042,0,.5-.055h.011l.471-.052.069-.008.45-.049.031,0,.475-.052.031,0,.437-.048.066-.007.409-.044.061-.007.424-.045.027,0,.421-.045.081-.008.34-.036.1-.011.321-.034.06-.006a11.475,11.475,0,0,0-3.517,2.582A32.347,32.347,0,0,1,246.3,126.3C247.283,126.149,248.457,125.988,249.737,125.824Zm9.3,11.554c.2.062.4.127.623.192a5.771,5.771,0,0,0-.522,1.915l-.561-.167a2.31,2.31,0,0,1,.073-1.129A1.831,1.831,0,0,1,259.037,137.378Zm-.6-22.067a5.146,5.146,0,0,1,1.612,2.772,5.882,5.882,0,0,1-.836,3.395l-10.082,1.511a1.907,1.907,0,0,1-1.585.106,3.929,3.929,0,0,1-2.166-3.4c-.009-.088-.018-.177-.023-.267l0-.032c0-.086,0-.17,0-.254a4.246,4.246,0,0,1,1.4-3.406,2.1,2.1,0,0,1,1.171-.45,2.023,2.023,0,0,1,.943.205C249.949,115.466,258.43,115.31,258.439,115.311Zm-7.213-5.9a1.972,1.972,0,0,1,1.492-1.243,1.555,1.555,0,0,1,1.22.188,3.4,3.4,0,0,1,1.151,1.251,5.568,5.568,0,0,1,.665,2.317,2,2,0,0,1-.9,1.939,2.138,2.138,0,0,1-1.73.305,2.113,2.113,0,0,1-.958-.613,4.241,4.241,0,0,0-.277-2.881,7.121,7.121,0,0,0-.672-1.224C251.219,109.435,251.223,109.422,251.226,109.409Zm-3.406-.676a2.472,2.472,0,0,1,1.371.166h0a1.585,1.585,0,0,1,.538.349,6.468,6.468,0,0,1,1.209,1.828,2.827,2.827,0,0,1,0,2.676,2.377,2.377,0,0,1-.591.57,2.756,2.756,0,0,1-1.989.552,2.385,2.385,0,0,1-1.709-1.038,3.486,3.486,0,0,0,.036-.9,5.069,5.069,0,0,0-1.012-2.505A3.634,3.634,0,0,1,247.82,108.733Zm-1.529,40.488a22.91,22.91,0,0,1-9.745-12.108c-1.856-5.216-2.6-9.645-2.282-13.54a18.183,18.183,0,0,1,3.163-8.913c1.665-2.461,3.438-3.876,5.106-4.208,2.729-.542,3.062,1.845,3.126,2.575a2.179,2.179,0,0,1-.849,2,1.969,1.969,0,0,1-2.016-.029,2.389,2.389,0,0,1-1.312-1.559.516.516,0,0,0-1.011.2,2.83,2.83,0,0,0,.506,1.137l-.06.006-.02,0a1.663,1.663,0,0,0-.242.048l-.013,0-.049.013h-.006a1.5,1.5,0,0,0-.273.092l-.028.011a2.146,2.146,0,0,0-.363.187l-.017.01c-.036.022-.081.049-.132.084-.024.017-.047.034-.069.052l-.11.09-.017.015a3.525,3.525,0,0,0-.915,1.254l0,0a5.557,5.557,0,0,0-.418,2.57l0,.021a5.183,5.183,0,0,0,.825,2.516l0,.006a3.693,3.693,0,0,0,1.071,1.069l.011.007c-1.542,1.133-2.621,3.271-.915,7.3a.517.517,0,0,0,.447.314h.028a.515.515,0,0,0,.45-.265,10.875,10.875,0,0,1,1.325-1.791,5.906,5.906,0,0,1,2.167-1.584,3.594,3.594,0,0,1,.394-.112c.056-.013.118-.028.189-.043a13.347,13.347,0,0,0,2.52.822c.775.184,1.652.35,2.6.485.878.124,1.816.221,2.791.281.7.042,1.416.066,2.143.066.117,0,.234,0,.351,0a30.517,30.517,0,0,0,3.47-.227l.67,5.718a22.135,22.135,0,0,1-.013,2.564,1.077,1.077,0,0,0-.448.266,3.606,3.606,0,0,0-.751,2.911,1.167,1.167,0,0,0,.224.461,30.253,30.253,0,0,1-4.538,8.663,10.989,10.989,0,0,1-3.218,2.385A23.088,23.088,0,0,1,246.291,149.221Zm-1.993,4.866a.756.756,0,0,1,.443-.189.4.4,0,0,1,.126.02,3.739,3.739,0,0,0,3.6-.675,20.62,20.62,0,0,1,2.012-1.25,12,12,0,0,0,3.589-2.681,31.08,31.08,0,0,0,4.67-8.871c1,.3,3.19.925,4.385,1.132a30.116,30.116,0,0,0,4.884.469l.231,0a27.871,27.871,0,0,0,4.614-.4,25.3,25.3,0,0,0,4.412-1.166,30.211,30.211,0,0,0,4.633-2.136c.021-.012.04-.025.06-.038a39.8,39.8,0,0,1,3.667,11.43,34.444,34.444,0,0,1-.048,10.953c-1.042,6.236-3.579,10.513-4.645,11.607a8.486,8.486,0,0,1-4.693,2.139,26.165,26.165,0,0,1-12.654-.388,33.024,33.024,0,0,1-15.283-9.992c-3.305-3.883-4.6-7.354-4.706-8.427A2.014,2.014,0,0,1,244.3,154.087Zm-27.2-18.329a.885.885,0,0,1,.593-.412,1.082,1.082,0,0,1,.862.168c.572.4,1.006,1.433,1.288,3.066a37.657,37.657,0,0,1,.387,3.778c.042.614.082,1.195.133,1.659l.055.494c.008.075.016.149.024.221l.008.07c.018.158.035.311.052.461l.006.057.024.211,0,.012c.008.071.016.141.025.211l.006.05c.008.07.017.141.026.211h0c.008.07.017.139.026.207l.007.051.027.207h0c.01.069.019.137.029.206l.007.05.03.2v.007c.011.068.021.136.032.2l.009.054.033.205v.005c.012.07.024.141.037.212l.01.057c.012.068.024.137.037.207l0,.012c.013.073.027.147.042.221l.012.061c.013.07.027.141.042.212l0,.013a24.3,24.3,0,0,1-3.829-4.577C216.376,139.781,216.358,136.841,217.1,135.758Zm31.541,46.033a41.7,41.7,0,0,1-18.186-12.051c-.056-.06-.111-.121-.166-.182-.38-.416-.759-.839-1.131-1.264-7.991-9.126-10-15.711-11.448-21.9a27.794,27.794,0,0,0,3.48,3.6l.026.023c.092.079.185.159.28.239l.006.005h0l.017.014c.143.12.29.241.44.361l.092.074c.14.113.284.226.43.338l.052.04.06.047q.738.56,1.505,1.066l.073.047c.148.1.3.192.446.286.05.032.1.062.152.094.123.076.246.151.37.225l.2.116.332.191.094.054.021.01a26.3,26.3,0,0,0,5.1,2.187,28.7,28.7,0,0,0,11.8.979c.934,3.712,6.788,14.26,20.579,18.635a23.119,23.119,0,0,0,7.012,1.016,33.908,33.908,0,0,0,6.141-.6q.7-.129,1.321-.3a20.147,20.147,0,0,1-5.339,4.2c-.323.178-.654.348-.99.512-.192.094-.385.186-.579.274A30.659,30.659,0,0,1,248.643,181.791Z" fill="#277191"/>
        <path id="Path_96" data-name="Path 96" d="M267.775,120.268a1.8,1.8,0,0,0,1.694-1.6,4.225,4.225,0,0,1-2.475-2.139,2.02,2.02,0,0,0-.945,1.76A1.863,1.863,0,0,0,267.775,120.268Z" fill="#277191"/>
        <path id="Path_97" data-name="Path 97" d="M272.723,103.44q.795.139,1.63.366a11.815,11.815,0,0,1,2.585,1.028c.005-.016.01-.032.016-.047a.676.676,0,0,1,.1-.2.4.4,0,0,1,.026-.06,1.321,1.321,0,0,1,.079-.19l.029-.06.018-.04a.534.534,0,0,1,.031-.1.576.576,0,0,1,.084-.274,1.12,1.12,0,0,1-.09-.167.683.683,0,0,1-.062-.264.52.52,0,0,1,.1-.391.425.425,0,0,1,.044-.051l0-.02a1.029,1.029,0,0,1-.02-.155l0-.006a.69.69,0,0,1-.1-.367.435.435,0,0,1-.034-.091.6.6,0,0,1-.109-.248.426.426,0,0,1-.01-.079l0,0a1.594,1.594,0,0,1-.2-.192l-.062-.075-.046-.026a.515.515,0,0,1-.278-.172.524.524,0,0,1-.035-.047l0,0a.661.661,0,0,1-.074-.077.475.475,0,0,1-.114-.048l-.132-.076a.529.529,0,0,1-.067-.046.417.417,0,0,1-.054-.023.727.727,0,0,1-.129-.007.537.537,0,0,1-.174-.06l-.061-.035a1.226,1.226,0,0,0-.127-.068l0,0-.028-.011a.766.766,0,0,1-.08.011.518.518,0,0,1-.291-.046.485.485,0,0,1-.063.016.6.6,0,0,1-.452.121.544.544,0,0,1-.089-.02l-.008,0-.013,0a.47.47,0,0,1-.106,0l-.009,0a.942.942,0,0,1-.23.045.518.518,0,0,1-.35.137h0a.859.859,0,0,1-.241.1c-.016.015-.034.035-.054.055l-.018.019-.011.012c-.017.017-.033.035-.049.052s-.045.049-.071.075a.507.507,0,0,1-.037.112.972.972,0,0,1-.22.3.5.5,0,0,1-.038.185.7.7,0,0,1-.212.287v0l-.018.054a.683.683,0,0,1-.016.448l0,.01a.509.509,0,0,1-.043.166.845.845,0,0,1-.03.157l.008.036Z" fill="#fff"/>
        <path id="Path_98" data-name="Path 98" d="M243.916,119.048c-.1-1.9-1.252-3.379-2.578-3.311a1.754,1.754,0,0,0-.723.2,2.125,2.125,0,0,0-.4.272,3.846,3.846,0,0,0-1.1,3.085c.1,1.9,1.252,3.38,2.578,3.311S244.013,120.945,243.916,119.048ZM241.458,122c-.992,0-1.851-1.173-1.927-2.659a3.507,3.507,0,0,1,.455-1.994,1.6,1.6,0,0,1,1.253-.855c.022,0,.043,0,.065,0,.992,0,1.85,1.174,1.926,2.66a3.506,3.506,0,0,1-.455,1.993,1.6,1.6,0,0,1-1.253.855C241.5,122,241.479,122,241.458,122Z" fill="#fff"/>
        <path id="Path_99" data-name="Path 99" d="M242.775,121.139a3.506,3.506,0,0,0,.455-1.993c-.076-1.486-.934-2.66-1.926-2.66-.022,0-.043,0-.065,0a1.6,1.6,0,0,0-1.253.855,3.507,3.507,0,0,0-.455,1.994c.076,1.486.935,2.659,1.927,2.659.021,0,.043,0,.064,0A1.6,1.6,0,0,0,242.775,121.139Z" fill="#277191"/>
        <path id="Path_100" data-name="Path 100" d="M250.047,122.224l.04-.057.006-.008a4.825,4.825,0,0,0,.81-3.054,4.3,4.3,0,0,0-1.824-3.532c-.068-.039-.142-.055-.211-.087a2.023,2.023,0,0,0-.943-.205,2.1,2.1,0,0,0-1.171.45,4.246,4.246,0,0,0-1.4,3.406c0,.084,0,.168,0,.254l0,.032c.005.09.014.179.023.267a3.929,3.929,0,0,0,2.166,3.4,1.907,1.907,0,0,0,1.585-.106A2.632,2.632,0,0,0,250.047,122.224Zm.161-3.006a4.055,4.055,0,0,1-.529,2.313,1.871,1.871,0,0,1-1.462,1l-.076,0c-1.156,0-2.156-1.365-2.245-3.091a4.057,4.057,0,0,1,.529-2.314,1.869,1.869,0,0,1,1.462-1C249.067,116.065,250.117,117.453,250.208,119.218Z" fill="#fff"/>
      </g>
      <path id="Path_101" data-name="Path 101" d="M261.105,161.209l.3-.014c.033.34.074.679.125,1.016a13.36,13.36,0,0,0,.873,3.17,7.281,7.281,0,0,0,4.93,4.49,8.874,8.874,0,0,0,4.712-.237,11.089,11.089,0,0,0,3.774-2.179A10.6,10.6,0,0,0,278.776,163c.049-.141.093-.283.135-.426l.227.063a.541.541,0,0,0,.673-.629l-.32-3.119a.54.54,0,0,0-.93-.255L276.5,161.1a.54.54,0,0,0,.258.883l.251.069a10.126,10.126,0,0,1-.542,1.384,9.538,9.538,0,0,1-1.214,1.809,9.808,9.808,0,0,1-1.66,1.459,9.982,9.982,0,0,1-2.064,1.039,7.386,7.386,0,0,1-1.675.356c-.06,0-.119.007-.179.009a45.24,45.24,0,0,0,1.813-5.927c.106-.462.2-.927.295-1.393a9.876,9.876,0,0,0,1.053-.125,8.92,8.92,0,0,0,1.255-.322,1.046,1.046,0,0,0,.589-.453.986.986,0,0,0-.354-1.348.989.989,0,0,0-.759-.1,8.81,8.81,0,0,1-1.431.349h-.007c.182-1.222.312-2.453.386-3.685q.117-1.934.041-3.873a2.68,2.68,0,0,0,2.061-2.544,2.389,2.389,0,0,0-1.057-1.828,3.615,3.615,0,0,0-4.261.191,2.393,2.393,0,0,0-.89,1.915,2.658,2.658,0,0,0,2.178,2.326,39.491,39.491,0,0,1-.155,5.25q-.069.705-.162,1.409c-.038.274-.078.548-.122.821l-.028,0a19.671,19.671,0,0,1-2-.41,1.035,1.035,0,0,0-.759.1.986.986,0,0,0,.235,1.8,20.589,20.589,0,0,0,2.195.44,44.327,44.327,0,0,1-1.461,5.343q-.325.951-.692,1.886a4.861,4.861,0,0,1-.778-.276,5.852,5.852,0,0,1-1-.684,7.2,7.2,0,0,1-1.01-1.14,8.885,8.885,0,0,1-.868-1.79,14.218,14.218,0,0,1-.617-2.929l.279-.012a.559.559,0,0,0,.462-.832l-1.513-2.958a.559.559,0,0,0-1,.045l-1.034,3.07A.559.559,0,0,0,261.105,161.209Zm8.684-12.306a1.038,1.038,0,0,1,.4-.8,2.126,2.126,0,0,1,1.267-.462q.054,0,.108,0a2.092,2.092,0,0,1,1.2.35,1.04,1.04,0,0,1,.476.763h0c.029.644-.737,1.224-1.672,1.266S269.817,149.547,269.789,148.9Z" fill="#277191"/>
    </g>
  </g>
</svg>
