<svg xmlns="http://www.w3.org/2000/svg" width="279.993" height="240.549" viewBox="0 0 279.993 240.549">
  <g id="Group_50" data-name="Group 50" transform="translate(-1129.321 -4920.32)">
    <g id="Group_24" data-name="Group 24" transform="translate(1208.541 4966.253)">
      <path id="Path_1" data-name="Path 1" d="M474.483,51.5l.773-3.606c-.282-.079-.562-.158-.834-.236a9.573,9.573,0,0,0-.974,3.55C473.774,51.3,474.122,51.4,474.483,51.5Z" transform="translate(-391.308 22.69)" fill="none"/>
      <path id="Path_2" data-name="Path 2" d="M481.962,48.6l-.186.02.325,3.679c.628-.076,1.261-.163,1.9-.264l-.443-3.674q-.419.072-.847.137V48.5l-.75.1Z" transform="translate(-378.459 23.762)" fill="none"/>
      <path id="Path_3" data-name="Path 3" d="M480.938,52.317c.506-.033,1.017-.074,1.528-.125l-.326-3.69q-.667.061-1.343.1Z" transform="translate(-379.968 23.989)" fill="none"/>
      <path id="Path_4" data-name="Path 4" d="M483.365,52.117q.892-.164,1.785-.361l-1.065-3.578c-.387.086-.776.17-1.162.247Z" transform="translate(-376.69 23.488)" fill="none"/>
      <path id="Path_5" data-name="Path 5" d="M478.689,35.567c.061,0,.122-.005.183-.005,2.291,0,4.254,2.306,4.569,5.365a7.616,7.616,0,0,1-.448,3.69,3.777,3.777,0,0,1-2.9,2.451l-3.217.773a24.984,24.984,0,0,0,9,2.65l.02,0c.028,0,.054.008.081.013s.066.01.1.018.051.018.076.028.061.023.092.036a.654.654,0,0,1,.071.043.782.782,0,0,1,.076.048.844.844,0,0,1,.071.061c.02.018.041.036.058.053s.043.053.064.079l.043.061c.018.028.033.058.048.086s.023.048.033.071a.625.625,0,0,1,.028.092.869.869,0,0,1,.023.086l.008.025a.726.726,0,0,1,0,.074l.008.058,0,.023a.766.766,0,0,1-.008.107l-.01.076a.584.584,0,0,1-.026.094.533.533,0,0,1-.025.076.513.513,0,0,1-.041.084.7.7,0,0,1-.041.074c-.015.025-.036.048-.054.074l-.053.064a.78.78,0,0,1-.066.064c-.023.018-.043.038-.066.053a.746.746,0,0,1-.074.048l-.081.046-.079.031a.641.641,0,0,1-.091.03l-.033.01c-6.326,1.4-10.817,4.409-12.928,6.733l1.322,11.272,0,.038a42.552,42.552,0,0,1-.018,5.238,67.889,67.889,0,0,0,9.637,2.286c.814.1,1.62.183,2.4.244a46.346,46.346,0,0,0,9.307-.209c.755-.107,1.5-.234,2.227-.376A45.911,45.911,0,0,0,506.6,75c1.9-.824,4.366-2.034,6.41-3.145-.669-5.256-.852-10.827-.852-22.041a35.4,35.4,0,0,0-1.345-10.062c-.14-.12-.384-.27-.425-.3-12.02-9.614-27.915-11.158-32.711-11.4a14.421,14.421,0,0,0-4.781,6.444,5.19,5.19,0,0,1,1.7.9Zm9.086,2.934a7.834,7.834,0,0,0,4.6,3.972,3.353,3.353,0,0,1-3.145,2.967,3.463,3.463,0,0,1-3.209-3.672A3.754,3.754,0,0,1,487.774,38.5Z" transform="translate(-392.16 -7.566)" fill="none"/>
      <path id="Path_6" data-name="Path 6" d="M478.452,27.7c.188.02.376.041.564.064l.188.02.519.061.224.028.481.061c.084.013.168.023.249.033.155.02.308.043.46.066l.257.036.443.066.267.041.43.069.264.043c.14.025.28.051.422.074l.259.046.412.076.262.048c.135.025.27.051.4.079l.257.048.4.084.252.051.386.084.252.056c.127.028.252.056.376.086l.252.056.371.089.244.058.366.092.242.061.359.094.237.064.351.094.234.066.346.1.226.064c.115.033.229.069.341.1l.224.066c.112.036.224.069.333.1l.221.069.328.1.216.069.323.107.211.071.315.109.208.071.31.112.2.071c.1.038.2.076.305.112l.2.076.3.112.2.076.292.114.193.076.285.114.191.079c.094.038.188.076.282.117l.183.076.277.117.181.081.272.117.175.079.267.12.176.081.257.12.175.081.252.12.165.079.252.125.163.079.244.122.16.081.239.122.158.081.234.122.155.084.226.12.155.084.219.12.153.086.216.12.147.081.211.122.142.081.209.122.14.084.2.117.137.084.2.12.135.081.193.12.135.084.186.114.137.086.176.112.132.084.173.112.135.089.165.107.132.089.158.1.15.1.135.092.173.117.1.071.252.173.02.013c.181.125.356.249.526.369l.028.02.224.16.064.043.186.132.056.041.186.135.038.025c.293.211.572.417.839.61-.1-4.287-1.833-11.42-11.626-14.1-5.485-1.5-10.174-1.34-13.937.478a12.572,12.572,0,0,0-3.878,2.878c.508.041,1.007.089,1.5.14Z" transform="translate(-385.953 -15.067)" fill="none"/>
      <path id="Path_7" data-name="Path 7" d="M478.073,48.48l-.577,3.662q.824.092,1.627.155l.506-3.687-.425-.028C478.834,48.554,478.455,48.518,478.073,48.48Z" transform="translate(-385.063 23.954)" fill="none"/>
      <path id="Path_8" data-name="Path 8" d="M477.18,52.157l.539-3.692q-.812-.16-1.617-.343l-.816,3.631C475.992,51.921,476.646,52.066,477.18,52.157Z" transform="translate(-388.474 23.401)" fill="none"/>
      <path id="Path_9" data-name="Path 9" d="M474.265,51.466c.491.132.989.267,1.477.392l.814-3.616q-.736-.179-1.449-.369l-.776,3.606Z" transform="translate(-390.047 23.017)" fill="none"/>
      <path id="Path_10" data-name="Path 10" d="M477.01,48.34l-.534,3.669c.491.076.974.145,1.454.209l.575-3.644-.636-.084h-.008l0-.01C477.582,48.437,477.3,48.388,477.01,48.34Z" transform="translate(-386.636 23.738)" fill="none"/>
      <path id="Path_11" data-name="Path 11" d="M479.776,52.327q.847,0,1.706-.041l-.137-3.723q-.82.031-1.645.031Z" transform="translate(-381.662 24.083)" fill="none"/>
      <path id="Path_12" data-name="Path 12" d="M483.82,48.273l1.066,3.575c.468-.117.931-.239,1.4-.371l-1.233-3.532Q484.434,48.117,483.82,48.273Z" transform="translate(-375.306 23.128)" fill="none"/>
      <path id="Path_13" data-name="Path 13" d="M487.537,51.1l-1.358-3.468q-.717.244-1.442.465l1.231,3.527C486.494,51.464,487.018,51.286,487.537,51.1Z" transform="translate(-373.891 22.65)" fill="none"/>
      <path id="Path_14" data-name="Path 14" d="M490.965,49.273a2.85,2.85,0,0,0-.2-1.948,2.7,2.7,0,0,0-1.02-1.5c-.272.153-.554.305-.842.46a9.051,9.051,0,0,1,1.643,3.166A2.575,2.575,0,0,1,490.965,49.273Z" transform="translate(-367.456 19.857)" fill="none"/>
      <path id="Path_15" data-name="Path 15" d="M490.61,49.485a7.356,7.356,0,0,0-1.622-3.265q-.4.206-.8.412l1.668,3.273Q490.237,49.7,490.61,49.485Z" transform="translate(-368.568 20.467)" fill="none"/>
      <path id="Path_16" data-name="Path 16" d="M490.071,49.877l-1.678-3.293c-.338.168-.674.331-1,.491l1.556,3.362Q489.509,50.162,490.071,49.877Z" transform="translate(-369.801 21.028)" fill="none"/>
      <path id="Path_17" data-name="Path 17" d="M482.964,25.322c.984.173,1.994.4,3.028.679a21.966,21.966,0,0,1,4.8,1.91c.01-.028.018-.058.03-.086a1.287,1.287,0,0,1,.191-.374c.015-.038.031-.076.048-.112a2.23,2.23,0,0,1,.15-.353l.051-.109.036-.074a.979.979,0,0,1,.058-.186,1.07,1.07,0,0,1,.155-.506,2.318,2.318,0,0,1-.168-.31,1.273,1.273,0,0,1-.114-.493.925.925,0,0,1,.264-.819l0-.038a1.527,1.527,0,0,1-.036-.287l-.01-.013a1.281,1.281,0,0,1-.193-.679,1.047,1.047,0,0,1-.064-.17,1.142,1.142,0,0,1-.2-.46,1,1,0,0,1-.018-.147l-.005-.005a3.009,3.009,0,0,1-.366-.359c-.038-.043-.076-.089-.114-.137l-.084-.048a.951.951,0,0,1-.519-.32c-.023-.028-.046-.056-.066-.086v0a1.475,1.475,0,0,1-.14-.145.9.9,0,0,1-.211-.089l-.247-.142a1.047,1.047,0,0,1-.122-.084.719.719,0,0,1-.1-.043,1.313,1.313,0,0,1-.239-.013.956.956,0,0,1-.323-.112l-.115-.066a2.136,2.136,0,0,0-.236-.125l-.005,0-.054-.023a1.218,1.218,0,0,1-.147.02.967.967,0,0,1-.542-.084.873.873,0,0,1-.117.031,1.118,1.118,0,0,1-.837.224.9.9,0,0,1-.168-.038l-.015,0-.023-.005a.735.735,0,0,1-.2.005l-.015.005a1.6,1.6,0,0,1-.427.084.962.962,0,0,1-.651.257h0a1.577,1.577,0,0,1-.448.175c-.028.028-.064.064-.1.1l-.033.036-.02.023c-.033.031-.061.064-.092.1l-.132.14a.855.855,0,0,1-.069.206,1.764,1.764,0,0,1-.409.559.891.891,0,0,1-.069.343,1.284,1.284,0,0,1-.394.534l0,.005-.033.1a1.266,1.266,0,0,1-.031.834l-.008.02a.945.945,0,0,1-.079.308,1.522,1.522,0,0,1-.056.292l.013.066Z" transform="translate(-376.705 -18.711)" fill="none"/>
      <path id="Path_18" data-name="Path 18" d="M489.035,50.332l-1.559-3.364c-.28.13-.554.254-.821.374l1.205,3.507Q488.452,50.6,489.035,50.332Z" transform="translate(-370.932 21.621)" fill="none"/>
      <path id="Path_19" data-name="Path 19" d="M488.223,50.792l-1.2-3.5q-.645.256-1.289.491l1.353,3.458C487.465,51.1,487.847,50.948,488.223,50.792Z" transform="translate(-372.357 22.119)" fill="none"/>
      <path id="Path_20" data-name="Path 20" d="M478.588,52.259q.885.05,1.755.069l-.076-3.733c-.389-.008-.781-.02-1.17-.038Z" transform="translate(-383.378 24.072)" fill="none"/>
      <path id="Path_21" data-name="Path 21" d="M490.2,98.81a56.2,56.2,0,0,0,8.429-16.1,2.18,2.18,0,0,1-.414-.854,6.7,6.7,0,0,1,1.4-5.409,1.973,1.973,0,0,1,.832-.493,41.832,41.832,0,0,0,.025-4.765l-1.246-10.621a56.785,56.785,0,0,1-6.446.42c-.219,0-.437.005-.653.005-1.35,0-2.683-.043-3.979-.122-1.813-.112-3.555-.292-5.187-.521-1.76-.252-3.39-.559-4.829-.9a24.772,24.772,0,0,1-4.684-1.526c-.13.028-.244.056-.348.079a7.233,7.233,0,0,0-.735.209,10.994,10.994,0,0,0-4.025,2.945,20.421,20.421,0,0,0-2.461,3.326.95.95,0,0,1-.834.491h-.053a.96.96,0,0,1-.829-.582c-3.171-7.486-1.167-11.46,1.7-13.563l-.02-.013a6.913,6.913,0,0,1-1.991-1.986l-.005-.01a9.685,9.685,0,0,1-1.533-4.676l0-.038a10.318,10.318,0,0,1,.778-4.773l0-.01a6.572,6.572,0,0,1,1.7-2.332l.033-.025.2-.168c.041-.033.084-.066.127-.1.1-.066.18-.117.247-.158l.031-.018a3.791,3.791,0,0,1,.676-.346l.051-.023a2.748,2.748,0,0,1,.506-.17l.013,0,.089-.023.025-.008a3.008,3.008,0,0,1,.45-.089l.038-.005.109-.01a5.28,5.28,0,0,1-.938-2.113.957.957,0,0,1,1.877-.379,4.435,4.435,0,0,0,2.439,2.9,3.654,3.654,0,0,0,3.746.053,4.044,4.044,0,0,0,1.576-3.713c-.119-1.358-.737-5.793-5.808-4.786-3.1.615-6.393,3.245-9.487,7.819a33.782,33.782,0,0,0-5.874,16.559c-.6,7.234.791,15.463,4.239,25.154a42.544,42.544,0,0,0,18.1,22.494,43.122,43.122,0,0,0,6.965,3.41C486.459,101.965,488.747,100.638,490.2,98.81Z" transform="translate(-420.107 -8.169)" fill="none"/>
      <path id="Path_22" data-name="Path 22" d="M450.114,70.2l0-.023c-.028-.135-.054-.264-.079-.394l-.023-.114c-.025-.137-.053-.275-.079-.409l0-.023c-.025-.13-.048-.259-.071-.387l-.018-.1c-.023-.132-.046-.264-.069-.394l0-.01-.061-.381-.015-.1-.061-.381v-.01c-.02-.125-.038-.249-.056-.374l-.015-.1c-.018-.125-.036-.252-.053-.379v0l-.051-.384-.013-.094c-.015-.127-.033-.254-.048-.384v0c-.015-.13-.033-.262-.048-.392l-.01-.094c-.018-.13-.033-.259-.046-.392l-.005-.023-.043-.392-.013-.107c-.03-.277-.063-.562-.1-.854l-.013-.13-.046-.412-.1-.918c-.094-.862-.17-1.94-.247-3.082-.153-2.212-.323-4.722-.72-7.018-.526-3.034-1.33-4.951-2.393-5.7a2.011,2.011,0,0,0-1.6-.313,1.645,1.645,0,0,0-1.1.765c-1.383,2.011-1.35,7.473.089,15A45.419,45.419,0,0,0,450.114,70.2Z" transform="translate(-439.987 19.954)" fill="none"/>
      <path id="Path_23" data-name="Path 23" d="M468.983,36.114a3.919,3.919,0,0,0,1.78,1.137,3.965,3.965,0,0,0,3.214-.567,3.718,3.718,0,0,0,1.676-3.6,10.393,10.393,0,0,0-1.236-4.3,6.31,6.31,0,0,0-2.138-2.324,2.883,2.883,0,0,0-2.266-.348,3.657,3.657,0,0,0-2.772,2.309l-.023.071a13.084,13.084,0,0,1,1.249,2.276A7.878,7.878,0,0,1,468.983,36.114Z" transform="translate(-400.92 -10.715)" fill="none"/>
      <path id="Path_24" data-name="Path 24" d="M464.983,35.982c.331.89,1.882,1.714,3.173,1.927a5.132,5.132,0,0,0,3.695-1.025,4.439,4.439,0,0,0,1.1-1.06c.824-1.182.824-3.041,0-4.971a12.026,12.026,0,0,0-2.248-3.4,2.888,2.888,0,0,0-1-.646l0,0a4.608,4.608,0,0,0-2.545-.308c-2.039.381-3.448,2.294-3.987,3.158a9.453,9.453,0,0,1,1.879,4.653A6.532,6.532,0,0,1,464.983,35.982Z" transform="translate(-407.165 -10.057)" fill="none"/>
      <path id="Path_25" data-name="Path 25" d="M487.2,56.951a1.933,1.933,0,0,0-.882-1.419,3.9,3.9,0,0,0-2.223-.648c-.066,0-.132,0-.2.005a3.938,3.938,0,0,0-2.355.857,1.933,1.933,0,0,0-.753,1.493c.053,1.2,1.564,2.144,3.3,2.062S487.257,58.146,487.2,56.951Z" transform="translate(-379.983 33.834)" fill="none"/>
      <path id="Path_26" data-name="Path 26" d="M540.4,109.061a42.923,42.923,0,0,1-13.027-1.887c-25.622-8.127-36.5-27.724-38.231-34.62a53.306,53.306,0,0,1-21.924-1.818,48.891,48.891,0,0,1-9.482-4.063l-.041-.018c-.058-.033-.114-.069-.175-.1-.206-.117-.409-.234-.615-.353-.122-.074-.244-.142-.366-.216-.229-.137-.458-.277-.687-.417-.094-.061-.191-.117-.285-.175-.277-.175-.552-.353-.826-.531l-.135-.089q-1.426-.938-2.8-1.981l-.109-.084-.1-.076c-.272-.209-.536-.417-.8-.626l-.173-.137c-.277-.226-.549-.45-.816-.674l-.031-.025h0l-.013-.01q-.263-.221-.519-.442l-.048-.043a51.819,51.819,0,0,1-6.466-6.7c2.7,11.506,6.423,23.742,21.271,40.7.689.788,1.4,1.574,2.1,2.347.1.112.2.226.308.338,10.085,10.988,21.769,18.73,33.787,22.39,13.69,4.168,27.562,3.13,41.229-3.082.361-.163.72-.336,1.076-.509.623-.305,1.241-.62,1.841-.951a37.43,37.43,0,0,0,9.919-7.809q-1.16.32-2.456.559A63.013,63.013,0,0,1,540.4,109.061Z" transform="translate(-438.685 32.428)" fill="none"/>
      <path id="Path_27" data-name="Path 27" d="M483.5,99.464c-.193-2.929-.348-6.105-.47-9.152l-.013-.295c-.127-3.252-.221-6.329-.282-8.7a57.359,57.359,0,0,1-8.658.661q-1.838,0-3.679-.122c.165,2.563.353,5.714.524,9.017l.015.29c.135,2.642.247,5.342.336,7.969h.1C475.541,99.179,479.614,99.293,483.5,99.464Z" transform="translate(-396.02 74.617)" fill="none"/>
      <path id="Path_28" data-name="Path 28" d="M459.4,48.65c1.251-1.752,3.532-4.417,6.436-5.5a12.291,12.291,0,0,1,1.683-.435c.114-.025.236-.048.358-.074l.112-.02.287-.053.117-.023c.132-.025.27-.048.409-.074l.061-.01c.125-.023.249-.046.379-.066l.147-.025.343-.058.135-.023.481-.076.12-.02.394-.061.181-.028.386-.058.16-.025.537-.079.163-.025.417-.061.208-.028.43-.064.173-.023c.193-.028.386-.056.585-.081l.211-.031.422-.058.242-.031.463-.064.186-.025c.2-.028.412-.053.621-.081l.252-.033.425-.056.272-.036.5-.064.28-.036.552-.071.29-.036.427-.056.277-.033.608-.076.275-.033.509-.064.31-.036.435-.053.295-.036.687-.084.247-.028.483-.058.336-.041.427-.051.313-.036.679-.079.313-.038.44-.051.328-.038.45-.051.31-.036.687-.079.282-.033.468-.053.315-.036.539-.061.188-.02.73-.081.229-.025.531-.061.247-.025.666-.074.064-.008.758-.084.135-.015c.206-.023.41-.046.61-.066l.193-.02q.751-.084,1.485-.163l.053-.005.7-.076.058-.005c2.131-.231,4.109-.44,5.815-.618a23.763,23.763,0,0,1-4.765-2.2,4.582,4.582,0,0,1-2.444.969l-16.439,2.111a6.178,6.178,0,0,1-3.089.847,5.367,5.367,0,0,1-3.438-1.226,9.946,9.946,0,0,1-2.06-2.136l-.005-.01c-.081-.122-.153-.247-.226-.371a48.4,48.4,0,0,0-6.784,1.866C458.681,40.144,457.669,43.539,459.4,48.65Z" transform="translate(-414.245 5.094)" fill="none"/>
      <path id="Path_29" data-name="Path 29" d="M521.488,98.309a.282.282,0,0,1-.191.117h-.008c-.036,0-.071-.038-.107-.058s-.063-.018-.094-.051a1.21,1.21,0,0,1-.1-.168,1.324,1.324,0,0,1-.092-.153c-.033-.074-.064-.175-.094-.264s-.061-.155-.089-.257-.061-.242-.092-.364-.059-.211-.084-.338c-.036-.158-.066-.343-.1-.521-.02-.117-.043-.221-.066-.346-.028-.17-.056-.364-.084-.549-.023-.16-.048-.308-.071-.481-.1-.727-.2-1.546-.287-2.439s-.17-1.836-.249-2.833c-3.934-.178-8.061-.292-12.315-.338.013.483.018.938.028,1.409s.02.938.025,1.381c.028,2.144.013,4.074-.059,5.65-.046,1-.115,1.866-.208,2.538-.147,1.04-.361,1.638-.651,1.65h-.01c-.046,0-.1-.066-.153-.1s-.089-.033-.137-.092a2.58,2.58,0,0,1-.176-.28,2.768,2.768,0,0,1-.168-.275c-.056-.114-.12-.277-.18-.414-.066-.155-.132-.287-.2-.47-.056-.147-.117-.338-.176-.5-.081-.224-.16-.43-.242-.684-.063-.186-.127-.409-.191-.61-.086-.275-.17-.534-.259-.834-.076-.257-.155-.547-.231-.821s-.16-.559-.244-.865c-.326-1.19-.661-2.512-1-3.921-.109-.448-.221-.928-.331-1.393s-.219-.913-.33-1.391c-30.649.043-55.408,3.646-55.408,8.089,0,4.468,25.052,8.089,55.955,8.089s55.955-3.621,55.955-8.089c0-3.428-14.736-6.354-35.538-7.532-.15.989-.3,1.933-.448,2.8C522.454,95.623,521.943,97.8,521.488,98.309Z" transform="translate(-432.032 86.84)" fill="none"/>
      <path id="Path_30" data-name="Path 30" d="M478.583,39.557a1.446,1.446,0,0,0,.651-.226,2.355,2.355,0,0,0,.887-1.223,4.7,4.7,0,0,0,.224-.9c.031-.2.048-.407.061-.618.005-.107.008-.216.008-.325a7.157,7.157,0,0,0-.041-.765v0c-.013-.127-.031-.254-.051-.376-.008-.043-.018-.084-.025-.125-.015-.081-.031-.163-.048-.244l-.038-.145c-.018-.069-.036-.14-.056-.209-.015-.051-.033-.1-.048-.147-.023-.066-.043-.13-.066-.193-.018-.048-.038-.1-.058-.145s-.048-.12-.074-.178-.043-.094-.066-.14-.054-.112-.084-.165-.048-.089-.074-.132-.059-.1-.089-.15-.056-.084-.084-.125-.064-.092-.1-.137-.058-.076-.089-.112-.066-.084-.1-.122-.064-.069-.1-.1-.071-.074-.107-.107-.066-.061-.1-.092-.074-.061-.112-.092-.071-.051-.107-.074-.076-.051-.117-.074a.926.926,0,0,0-.109-.061,1.058,1.058,0,0,0-.122-.056c-.036-.018-.074-.031-.112-.046l-.125-.038c-.038-.01-.076-.018-.115-.025a1.02,1.02,0,0,0-.127-.02c-.038,0-.076-.008-.117-.008s-.064,0-.1,0-4.01-.16-4.01-.16a8.885,8.885,0,0,1,1.594,3.906,11.539,11.539,0,0,1-.684,4.923Z" transform="translate(-390.996 -1.943)" fill="none"/>
      <path id="Path_31" data-name="Path 31" d="M485.821,42.741a21.318,21.318,0,0,1,6.535-4.8l-.114.013-.595.064-.183.018-.633.069-.15.015-.781.084-.051.005-.788.084-.115.013c-.252.025-.5.053-.76.081l-.122.013c-.267.031-.536.058-.811.089l-.056.005c-.292.033-.587.064-.882.1l-.058.008c-.277.028-.557.058-.837.092l-.127.013c-.29.033-.582.064-.875.1l-.02,0-.926.1-.081.01c-.285.031-.575.064-.865.1l-.1.01-.867.1-.089.01c-.313.033-.623.069-.936.1l-.023,0-.925.107-.094.01-.9.1-.051.005-.943.109-.023,0c-.32.038-.641.076-.959.112l-.031.005-.918.107-.069.01c-.305.036-.61.071-.913.109l-.031,0-.941.114H473.7l-.918.114-.041.005-.9.109-.02.005c-.613.076-1.218.153-1.81.229h0c-2.378.305-4.559.6-6.38.882A60.11,60.11,0,0,0,485.821,42.741Z" transform="translate(-406.455 7.697)" fill="none"/>
      <path id="Path_32" data-name="Path 32" d="M467.716,31.247a3.907,3.907,0,0,0-2.176.837,7.881,7.881,0,0,0-2.6,6.327c0,.158,0,.313.008.473l.005.061c.01.165.026.331.043.493.323,3.1,1.958,5.587,4.023,6.327a3.744,3.744,0,0,0,1.46.224,3.694,3.694,0,0,0,1.485-.42l18.733-2.807a10.964,10.964,0,0,0,1.551-6.309c-.224-2.228-2.225-4.458-3-5.149-.015,0-15.773.287-17.782.325A3.776,3.776,0,0,0,467.716,31.247Zm4.242,7.313a7.548,7.548,0,0,1-.984,4.3,3.468,3.468,0,0,1-2.716,1.854c-.046,0-.094.005-.14.005-2.149,0-4.007-2.535-4.173-5.744a7.577,7.577,0,0,1,.982-4.3,3.479,3.479,0,0,1,2.718-1.851C469.836,32.7,471.787,35.283,471.957,38.56Z" transform="translate(-407.528 -2.639)" fill="none"/>
      <path id="Path_33" data-name="Path 33" d="M467.3,37.732c-.181-3.524-2.324-6.278-4.788-6.151a3.257,3.257,0,0,0-1.343.374,3.876,3.876,0,0,0-.742.506,7.142,7.142,0,0,0-2.047,5.732c.183,3.524,2.327,6.278,4.791,6.151S467.488,41.256,467.3,37.732Zm-4.564,5.477c-1.844,0-3.44-2.179-3.58-4.941a6.514,6.514,0,0,1,.844-3.7,2.978,2.978,0,0,1,2.329-1.589c.038,0,.079-.005.12-.005,1.844,0,3.438,2.182,3.58,4.943a6.519,6.519,0,0,1-.847,3.7,2.978,2.978,0,0,1-2.327,1.589C462.819,43.209,462.779,43.209,462.74,43.209Z" transform="translate(-414.567 -2.126)" fill="none"/>
      <path id="Path_34" data-name="Path 34" d="M532.925,48.065l-.112.069a56.051,56.051,0,0,1-8.607,3.969,46.907,46.907,0,0,1-8.2,2.166,51.767,51.767,0,0,1-8.569.745c-.145,0-.287,0-.43,0a55.618,55.618,0,0,1-9.073-.872c-2.222-.384-6.288-1.554-8.147-2.1a57.713,57.713,0,0,1-8.679,16.483c-1.711,2.154-4.231,3.59-6.665,4.981a37.864,37.864,0,0,0-3.738,2.322,6.95,6.95,0,0,1-6.683,1.254.767.767,0,0,0-.236-.038,1.389,1.389,0,0,0-.821.353,3.734,3.734,0,0,0-1.312,2.856c.2,1.991,2.6,8.44,8.742,15.654a61.313,61.313,0,0,0,28.393,18.563c6.7,2.126,14.6,2.367,23.508.722,3.979-.735,6.833-2.034,8.722-3.972,1.978-2.034,6.693-9.978,8.628-21.566a63.933,63.933,0,0,0,.089-20.348A73.861,73.861,0,0,0,532.925,48.065Zm-5.231,45.206-.422-.117c-.079.264-.163.529-.252.791a19.66,19.66,0,0,1-5.487,8.279,20.542,20.542,0,0,1-7.01,4.051,16.516,16.516,0,0,1-8.755.44c-4.269-.893-7.527-4.44-9.159-8.343a25.016,25.016,0,0,1-1.622-5.889c-.094-.626-.168-1.256-.231-1.887l-.565.025a1.038,1.038,0,0,1-.992-1.465l1.92-5.7a1.038,1.038,0,0,1,1.851-.081l2.812,5.492a1.038,1.038,0,0,1-.859,1.546l-.519.023a26.475,26.475,0,0,0,1.147,5.442,16.6,16.6,0,0,0,1.612,3.326,13.506,13.506,0,0,0,1.877,2.118,10.96,10.96,0,0,0,1.851,1.271,8.89,8.89,0,0,0,1.447.511q.679-1.735,1.284-3.5a81.673,81.673,0,0,0,2.716-9.925,38.415,38.415,0,0,1-4.076-.819,1.831,1.831,0,0,1-.437-3.346,1.916,1.916,0,0,1,1.409-.186,36.3,36.3,0,0,0,3.707.763l.053.008q.122-.763.226-1.526c.115-.872.216-1.744.3-2.619a73.427,73.427,0,0,0,.29-9.752,4.935,4.935,0,0,1-4.045-4.323,4.442,4.442,0,0,1,1.653-3.557,6.727,6.727,0,0,1,7.916-.356,4.443,4.443,0,0,1,1.963,3.4,4.979,4.979,0,0,1-3.83,4.727q.141,3.6-.076,7.2c-.137,2.289-.379,4.575-.717,6.845h.013a16.5,16.5,0,0,0,2.66-.648,1.843,1.843,0,0,1,1.411.186,1.828,1.828,0,0,1,.656,2.5,1.945,1.945,0,0,1-1.093.842,16.776,16.776,0,0,1-2.332.6,18.29,18.29,0,0,1-1.955.231c-.17.867-.351,1.729-.549,2.589a83.974,83.974,0,0,1-3.369,11.01c.112,0,.221-.01.333-.015a13.716,13.716,0,0,0,3.112-.661,18.688,18.688,0,0,0,3.835-1.93,18.2,18.2,0,0,0,3.085-2.711,17.822,17.822,0,0,0,2.255-3.362,19.034,19.034,0,0,0,1.007-2.571l-.468-.127a1,1,0,0,1-.478-1.643l3.827-4.585a1,1,0,0,1,1.729.473l.593,5.8A1,1,0,0,1,527.694,93.271Z" transform="translate(-409.517 23.313)" fill="none"/>
      <path id="Path_35" data-name="Path 35" d="M472.641,50.995c.176.053.547.163,1.043.31a10.709,10.709,0,0,1,.969-3.557c-.4-.122-.791-.242-1.157-.359a3.407,3.407,0,0,0-.717,1.508A4.305,4.305,0,0,0,472.641,50.995Z" transform="translate(-392.665 22.27)" fill="none"/>
      <path id="Path_36" data-name="Path 36" d="M492.049,51.9c.025.079.051.155.074.234l.015.046c.1.305.193.61.287.915l.028.092c.091.305.183.61.272.915l.013.046c.1.361.209.722.305,1.083l.109.186.107.183c.046.081.094.165.142.247l.107.191.142.252.107.193c.046.084.094.168.14.254l.109.2c.046.081.089.168.135.252.038.069.074.137.112.206l.239.453.122.242.12.229c.043.086.089.175.132.264l.107.211.135.272.1.211c.046.092.089.183.135.277.033.069.066.14.1.211.046.094.089.188.135.282l.1.214c.043.094.087.191.132.287l.1.214.13.292.1.214.13.3.092.211c.043.1.086.2.13.308l.089.214.127.31.086.214c.043.107.086.214.127.32l.084.211c.041.107.084.216.125.325l.081.211c.041.112.081.221.125.333l.074.206c.043.114.084.229.125.346l.071.2c.041.12.084.236.125.356l.066.2c.041.12.081.242.122.364l.061.186c.041.127.084.254.125.384l.048.16.13.412.038.127c.046.15.089.3.132.45l.013.043c.214.737.414,1.49.6,2.255l.005.02c.036.158.074.315.109.476l.03.13c.031.145.064.29.094.435l.038.175c.028.137.056.277.084.414l.041.2c.025.135.051.267.076.4l.041.219c.023.13.046.262.069.394l.041.231c.02.13.041.259.061.392.013.079.028.158.038.236.02.13.038.259.058.389l.033.247c.018.13.036.257.053.387l.03.254L500,75.3c.01.086.02.173.028.257.015.13.028.259.041.389l.025.262c.013.127.023.257.036.387l.02.267c.01.127.02.257.028.387.008.089.013.181.018.27.008.13.018.259.023.389.005.092.01.183.015.272.005.13.01.262.015.392l.01.272c0,.132.008.264.01.4,0,.089,0,.178.005.27,0,.135,0,.267,0,.4v.676c0,.081,0,.165,0,.249,0,.142-.005.287-.008.43l-.008.208q-.023.786-.079,1.579c-.005.086-.01.173-.018.257-.008.13-.02.257-.03.387-.01.1-.018.209-.028.315-.01.122-.023.242-.036.364s-.023.226-.033.338-.028.239-.043.359-.026.234-.041.348-.031.236-.048.356-.031.236-.048.356-.036.234-.053.353-.036.239-.056.361-.038.234-.058.351-.041.244-.064.366-.041.234-.064.351-.046.247-.071.369-.046.234-.071.351-.051.249-.079.376-.051.231-.076.346-.058.254-.086.384c-.028.114-.053.229-.081.343-.033.13-.064.259-.1.386s-.058.231-.086.346c-.036.13-.071.262-.1.392-.033.114-.064.229-.094.341l-.114.4c-.033.112-.066.226-.1.338-.041.135-.081.272-.125.407-.033.109-.069.221-.1.333l-.036.112c2.062-1.538,4.351-5.693,4.615-16.447C503.1,66.971,497.152,57.878,492.049,51.9Z" transform="translate(-362.61 29.233)" fill="none"/>
      <path id="Path_37" data-name="Path 37" d="M464.321,33.719a7.577,7.577,0,0,0-.981,4.3c.165,3.209,2.024,5.744,4.173,5.744.046,0,.094,0,.14-.005a3.468,3.468,0,0,0,2.716-1.854,7.548,7.548,0,0,0,.984-4.3c-.17-3.278-2.121-5.856-4.313-5.737A3.479,3.479,0,0,0,464.321,33.719Z" transform="translate(-406.922 -1.683)" fill="#71b3cb"/>
      <path id="Path_38" data-name="Path 38" d="M568.9,96.441q-1.224-3.09-2.734-6.141a2.441,2.441,0,0,0,.453-1.106,5.941,5.941,0,0,0-1.973-5.027,2.3,2.3,0,0,0-.783-.356c-.643-5.134-.8-10.548-.8-21.566a38.289,38.289,0,0,0-1.187-9.754,3.488,3.488,0,0,0,2.548-1.78c1.132-1.877,1-4.758-.969-6.138a17.818,17.818,0,0,0-1.645-8.587,14.911,14.911,0,0,0-4.915-5.757c.041-.074.076-.147.107-.219l.023-.061v0a.969.969,0,0,0,.076-.209l.018-.033a.913.913,0,0,0,.208-.384.98.98,0,0,0,.028-.165l.02-.038.028-.058.01-.02.03-.066h0a.968.968,0,0,0,.236-.389c.038-.117.066-.236.1-.356l.031-.122a.809.809,0,0,0,.02-.109,1.786,1.786,0,0,0-.018-1.223.965.965,0,0,0,.056-.442,1.569,1.569,0,0,0,.031-.234.95.95,0,0,0-.079-.783v-.008a1.549,1.549,0,0,0-.153-.692,1.114,1.114,0,0,0-.1-.521.935.935,0,0,0-.074-.32,1.319,1.319,0,0,0-.122-.216c-.01-.041-.02-.079-.033-.12a2.133,2.133,0,0,0-.681-.923,1.29,1.29,0,0,1-.142-.135l-.013-.015a.567.567,0,0,1-.079-.1.969.969,0,0,0-.458-.46,1.457,1.457,0,0,0-.938-.76l-.036-.01-.219-.058h-.005l-.018-.008-.175-.117L554.5,20.8l-.191-.1a1.012,1.012,0,0,0-.12-.053,1.181,1.181,0,0,0-.875-.2l-.035-.015-.023-.01-.018-.008a4.12,4.12,0,0,0-.681-.224.93.93,0,0,0-.219-.018,1.1,1.1,0,0,0-.234-.094.948.948,0,0,0-.953.092,1.263,1.263,0,0,0-.206.038.952.952,0,0,0-.821.211l-.008.005a2.01,2.01,0,0,0-.2.048l-.028,0a1.753,1.753,0,0,0-.6.12.961.961,0,0,0-.9.371A.641.641,0,0,0,548.3,21a2.519,2.519,0,0,0-.559.308l-.038.031a2.792,2.792,0,0,0-.313.3l-.02.023c-.051.048-.1.1-.145.153a1.322,1.322,0,0,1-.135.135.962.962,0,0,0-.5.793l-.125.122a1.442,1.442,0,0,0-.391.628l-.015.069-.008.036a.985.985,0,0,0-.168.305c-.053.158-.092.27-.125.364-.053.155-.094.272-.155.463a1.016,1.016,0,0,0-.043.275,1.235,1.235,0,0,0,.013.175.942.942,0,0,0-.089.681l0,.036a.956.956,0,0,0-.071.435v.005a18.826,18.826,0,0,0-10.25,1.556,14.146,14.146,0,0,0-5.383,4.46c-2.792-.031-4.686.636-5.638,1.986a4.6,4.6,0,0,0-.193,4.361,2.631,2.631,0,0,0,.714.956,16.97,16.97,0,0,0-4.755,7.094l-2.551.074a10.545,10.545,0,0,0,.369-6.171,14.118,14.118,0,0,0-1.3-3.334,7.943,7.943,0,0,0-2.952-3.232,4.791,4.791,0,0,0-3.728-.547,5.912,5.912,0,0,0-3.568,2.472,6.8,6.8,0,0,0-5.391-1.449A8.391,8.391,0,0,0,495.7,38.3a7.977,7.977,0,0,0-4.643-.57c-3.713.615-7.354,3.522-10.82,8.646a35.642,35.642,0,0,0-6.2,17.474c-.618,7.511.8,16,4.346,25.955a44.447,44.447,0,0,0,18.985,23.531,45.3,45.3,0,0,0,5.782,2.952c-.679.414-1.343.842-1.961,1.3a5.041,5.041,0,0,1-4.941.976,2.985,2.985,0,0,0-2.858.636,5.7,5.7,0,0,0-2.027,3.873,51.4,51.4,0,0,1-21.075-1.734,47.062,47.062,0,0,1-8.77-3.7l-.041-.361c-.961-8.572-2.413-21.525-7.829-25.858a3.7,3.7,0,0,0-2.81-.928c-.638-3.018-1.594-4.9-2.973-5.866a3.913,3.913,0,0,0-3.039-.633,3.539,3.539,0,0,0-2.344,1.566c-2.136,3.11-1.343,10.446-.257,16.216a1,1,0,0,0,.018.323l.346,1.518c2.891,12.7,5.882,25.835,22.433,44.738.8.913,1.62,1.828,2.439,2.718,10.316,11.242,22.3,19.168,34.641,22.926q2.552.778,5.111,1.32c.516,2.655,1.228,6.24,2.022,10.059l.058.287c.554,2.662,1.149,5.4,1.747,8.058a290.063,290.063,0,0,0-39.012,2.416c-16.061,2.342-18.227,5.37-18.227,8.025s2.187,5.706,18.41,8.051a293.808,293.808,0,0,0,39.9,2.4,293.808,293.808,0,0,0,39.9-2.4c16.223-2.344,18.41-5.386,18.41-8.051,0-1.912-.008-7.723-37.56-9.874.458-3.288.9-6.9,1.287-10.311.01-.1.02-.2.033-.308.412-3.641.76-7,.994-9.34a67.344,67.344,0,0,0,9.5-3.5c1.035-.47,2.06-.984,3.046-1.526a38.942,38.942,0,0,0,12.589-10.825,13.248,13.248,0,0,0,3.7-2.624,11.634,11.634,0,0,0,.9-1.073,3.582,3.582,0,0,0,2.286.847,3.5,3.5,0,0,0,.5-.036c2.716-.384,5.487-3.944,8.012-10.293.051-.127.1-.252.145-.376,5.78-1.569,7.244-11.1,7.438-18.959C583.616,113.488,574.475,102.165,568.9,96.441Zm-5.457-10.764a2.7,2.7,0,0,1,1.02,1.5,2.85,2.85,0,0,1,.2,1.948,2.572,2.572,0,0,0-.414.178,9.051,9.051,0,0,0-1.643-3.166C562.885,85.982,563.167,85.829,563.439,85.677Zm-11.448,5.068q.725-.221,1.442-.465l1.358,3.468c-.519.183-1.043.361-1.569.524Zm.13,3.855c-.465.132-.928.254-1.4.371L549.659,91.4q.614-.156,1.228-.328Zm2.4-4.7q.645-.236,1.289-.491l1.2,3.5c-.376.155-.758.3-1.139.448Zm2.35-.938c.267-.12.542-.244.821-.374l1.559,3.364q-.584.263-1.175.516Zm1.864-.859c.331-.16.666-.323,1-.491l1.678,3.293q-.561.286-1.126.559Zm2.032-1q.4-.206.8-.412a7.358,7.358,0,0,1,1.622,3.265q-.374.214-.755.42ZM547.409,26.149a.943.943,0,0,0,.079-.308l.008-.02a1.266,1.266,0,0,0,.031-.834l.033-.1,0-.005a1.285,1.285,0,0,0,.394-.534.891.891,0,0,0,.069-.343,1.764,1.764,0,0,0,.409-.559.852.852,0,0,0,.069-.206l.132-.14c.031-.033.059-.066.092-.1l.02-.023.033-.036c.036-.038.071-.074.1-.1a1.577,1.577,0,0,0,.448-.175h0a.962.962,0,0,0,.651-.257,1.6,1.6,0,0,0,.427-.084l.015-.005a.736.736,0,0,0,.2-.005l.023.005.015,0a.9.9,0,0,0,.168.038,1.118,1.118,0,0,0,.837-.224.874.874,0,0,0,.117-.031.967.967,0,0,0,.542.084,1.222,1.222,0,0,0,.147-.02l.054.023.005,0a2.132,2.132,0,0,1,.236.125l.115.066a.956.956,0,0,0,.323.112,1.313,1.313,0,0,0,.239.013.719.719,0,0,0,.1.043,1.042,1.042,0,0,0,.122.084l.247.142a.9.9,0,0,0,.211.089,1.481,1.481,0,0,0,.14.145v0c.02.031.043.058.066.086a.952.952,0,0,0,.519.32l.084.048q.057.072.114.137a3.008,3.008,0,0,0,.366.359l.005.005a1,1,0,0,0,.018.147,1.141,1.141,0,0,0,.2.46,1.058,1.058,0,0,0,.064.17,1.281,1.281,0,0,0,.193.679l.01.013a1.527,1.527,0,0,0,.036.287l0,.038a.954.954,0,0,0-.084.094.967.967,0,0,0-.181.725,1.272,1.272,0,0,0,.114.493,2.325,2.325,0,0,0,.168.31,1.074,1.074,0,0,0-.155.506.992.992,0,0,0-.058.186l-.036.074-.051.109a2.231,2.231,0,0,0-.15.353c-.018.036-.033.074-.048.112a1.284,1.284,0,0,0-.191.374c-.013.028-.02.058-.031.086a21.966,21.966,0,0,0-4.8-1.91c-1.035-.282-2.044-.506-3.028-.679l-.038-.1-.013-.066A1.527,1.527,0,0,0,547.409,26.149Zm-11.42,3.461c3.763-1.818,8.452-1.978,13.937-.478,9.792,2.678,11.524,9.81,11.626,14.1-.267-.193-.547-.4-.839-.61l-.038-.025-.186-.135-.056-.041-.186-.132-.064-.043-.224-.16-.028-.02c-.17-.12-.346-.244-.526-.369l-.02-.013-.252-.173-.1-.071-.173-.117-.135-.092-.15-.1-.158-.1-.132-.089-.165-.107-.135-.089-.173-.112-.132-.084-.175-.112-.137-.086-.186-.114-.135-.084-.193-.12-.135-.081-.2-.12-.137-.084-.2-.117-.14-.084-.209-.122-.142-.081-.211-.122-.147-.081-.216-.12-.153-.086-.219-.12-.155-.084-.226-.12-.155-.084-.234-.122-.158-.081-.239-.122-.16-.081-.244-.122-.163-.079-.252-.125-.165-.079-.252-.12-.176-.081-.257-.12-.175-.081-.267-.12-.175-.079-.272-.117-.18-.081-.277-.117-.183-.076c-.094-.041-.188-.079-.282-.117l-.191-.079-.285-.114-.193-.076-.292-.114-.2-.076-.3-.112-.2-.076c-.1-.036-.2-.074-.305-.112l-.2-.071-.31-.112-.209-.071-.315-.109-.211-.071-.323-.107-.216-.069-.328-.1-.221-.069c-.109-.036-.221-.069-.333-.1l-.224-.066c-.112-.033-.226-.069-.341-.1l-.226-.064-.346-.1-.234-.066-.351-.094L543.5,34.4l-.359-.094-.242-.061-.366-.092-.244-.058-.371-.089-.252-.056c-.125-.031-.249-.058-.376-.086l-.252-.056-.387-.084-.252-.051-.4-.084-.257-.048c-.132-.028-.267-.053-.4-.079l-.262-.048-.412-.076-.259-.046c-.142-.023-.282-.048-.422-.074l-.264-.043-.43-.069-.267-.041L536.587,33l-.257-.036c-.153-.023-.305-.046-.46-.066-.081-.01-.165-.02-.249-.033l-.481-.061-.224-.028-.519-.061-.188-.02c-.188-.023-.376-.043-.564-.064l-.033,0c-.493-.051-.992-.1-1.5-.14A12.57,12.57,0,0,1,535.989,29.61Zm-9.327,10.868c4.8.244,20.691,1.788,32.711,11.4.041.033.285.183.425.3a35.393,35.393,0,0,1,1.345,10.062c0,11.214.183,16.785.852,22.041-2.044,1.111-4.511,2.322-6.41,3.145a45.912,45.912,0,0,1-8.615,2.6c-.725.142-1.472.27-2.227.376a46.345,46.345,0,0,1-9.307.209c-.781-.061-1.587-.142-2.4-.244A67.892,67.892,0,0,1,523.4,88.09a42.538,42.538,0,0,0,.018-5.238l0-.038L522.09,71.541c2.111-2.324,6.6-5.337,12.928-6.733l.033-.01a.644.644,0,0,0,.091-.031l.079-.031.081-.046a.731.731,0,0,0,.074-.048c.023-.015.043-.036.066-.053a.778.778,0,0,0,.066-.064l.053-.064c.018-.025.038-.048.053-.074a.7.7,0,0,0,.041-.074.513.513,0,0,0,.041-.084.541.541,0,0,0,.025-.076.577.577,0,0,0,.026-.094l.01-.076a.757.757,0,0,0,.008-.107l0-.023-.008-.058a.726.726,0,0,0,0-.074l-.008-.025a.852.852,0,0,0-.023-.086.632.632,0,0,0-.028-.092c-.01-.023-.023-.046-.033-.071s-.031-.058-.048-.086l-.043-.061c-.02-.025-.041-.053-.064-.079s-.038-.036-.058-.053a.843.843,0,0,0-.071-.061.773.773,0,0,0-.076-.048.659.659,0,0,0-.071-.043c-.031-.013-.061-.025-.092-.036s-.051-.02-.076-.028-.064-.013-.1-.018-.053-.01-.081-.013l-.02,0a24.983,24.983,0,0,1-9-2.65l3.217-.773a3.777,3.777,0,0,0,2.9-2.451,7.618,7.618,0,0,0,.448-3.69c-.315-3.059-2.278-5.365-4.57-5.365-.061,0-.122,0-.183.005l-4.091-.173a5.189,5.189,0,0,0-1.7-.9A14.421,14.421,0,0,1,526.662,40.478Zm22.944,54.76q-.893.2-1.785.361l-.443-3.692c.387-.076.775-.16,1.162-.247ZM545.4,92.25q.427-.065.847-.137l.442,3.674c-.638.1-1.271.188-1.9.264l-.325-3.679.186-.02v.008l.75-.1Zm-1.754,3.926c-.511.051-1.022.092-1.528.125l-.14-3.715q.675-.038,1.342-.1Zm-2.678.188q-.858.038-1.706.041l-.076-3.733q.824,0,1.645-.031Zm-2.855.031q-.87-.019-1.755-.069l.508-3.7c.389.018.781.031,1.17.038Zm-2.4-3.837-.506,3.687q-.8-.065-1.627-.155l.577-3.662c.381.038.76.074,1.132.1Zm-3.339-.336h0l.636.084-.575,3.644c-.481-.064-.964-.132-1.454-.209l.534-3.669c.287.048.572.1.854.14l0,.01Zm-1.984-.361-.539,3.692c-.534-.092-1.188-.236-1.894-.4l.816-3.631Q529.578,91.7,530.39,91.861Zm-2.736-.608-.814,3.616c-.488-.125-.987-.259-1.477-.392l.066.013.776-3.606Q526.918,91.075,527.654,91.253Zm-2.561-.671-.773,3.606c-.361-.1-.709-.2-1.035-.292a9.574,9.574,0,0,1,.974-3.55C524.531,90.424,524.811,90.5,525.093,90.582ZM489.369,63.394a48.391,48.391,0,0,1,6.784-1.866c.074.125.145.249.226.371l.005.01a9.943,9.943,0,0,0,2.06,2.136,5.368,5.368,0,0,0,3.438,1.226,6.178,6.178,0,0,0,3.09-.847l16.439-2.111a4.582,4.582,0,0,0,2.444-.969,23.765,23.765,0,0,0,4.765,2.2c-1.706.178-3.685.386-5.815.618l-.059.005-.7.076-.053.005q-.732.08-1.485.163l-.193.02c-.2.02-.4.043-.61.066l-.135.015-.758.084-.064.008-.666.074-.247.025-.531.061-.229.025-.73.081-.188.02-.539.061-.315.036-.468.053-.282.033-.687.079-.31.036-.45.051-.328.038-.44.051-.313.038-.679.079-.313.036-.427.051-.336.041-.483.058-.247.028-.687.084-.295.036-.435.053-.31.036-.509.064-.275.033-.608.076-.277.033-.427.056-.29.036-.552.071-.28.036-.5.064-.272.036-.425.056-.252.033c-.209.028-.417.053-.621.081l-.186.025-.463.064-.242.031-.422.058-.211.031c-.2.025-.392.053-.585.081l-.173.023-.43.064-.209.028-.417.061-.163.025-.537.079-.16.025-.386.058-.181.028-.394.061-.12.02-.481.076-.135.023-.343.058-.147.025c-.13.02-.254.043-.379.066l-.061.01c-.14.025-.277.048-.409.074l-.117.023-.287.053-.112.02c-.122.025-.244.048-.359.074a12.3,12.3,0,0,0-1.683.435c-2.9,1.081-5.185,3.746-6.436,5.5C484.568,68.627,485.581,65.233,489.369,63.394Zm-4.407-7.333a7.142,7.142,0,0,1,2.047-5.732,3.876,3.876,0,0,1,.742-.506,3.257,3.257,0,0,1,1.343-.374c2.464-.127,4.608,2.627,4.788,6.151s-1.668,6.484-4.13,6.611S485.146,59.585,484.963,56.061Zm40.431-2.408a8.884,8.884,0,0,0-1.594-3.906s3.975.16,4.01.16.066,0,.1,0,.079.005.117.008a1.021,1.021,0,0,1,.127.02c.038.008.076.015.115.025l.125.038c.038.015.076.028.112.046a1.063,1.063,0,0,1,.122.056.926.926,0,0,1,.109.061c.041.023.079.048.117.074s.071.048.107.074.076.061.112.092.069.058.1.092.071.069.107.107.066.066.1.1.069.079.1.122.061.074.089.112.066.092.1.137.056.081.084.125.058.1.089.15.051.086.074.132.056.109.084.165.046.092.066.14.051.117.074.178.041.1.058.145c.023.064.043.127.066.193.015.048.033.1.048.147.02.069.038.14.056.209l.038.145c.018.081.033.163.048.244.008.041.018.081.025.125.02.122.038.249.051.376v0a7.141,7.141,0,0,1,.041.765c0,.109,0,.219-.008.325-.013.211-.031.42-.061.618a4.7,4.7,0,0,1-.224.9,2.355,2.355,0,0,1-.887,1.223,1.446,1.446,0,0,1-.651.226l-4.023.966A11.539,11.539,0,0,0,525.393,53.653ZM504.7,68.19h0c.592-.076,1.2-.153,1.81-.229l.02-.005.9-.109.041-.005.918-.114h.013l.941-.114.03,0c.3-.038.608-.074.913-.109l.069-.01.918-.107.031-.005c.318-.036.638-.074.959-.112l.023,0,.943-.109.051-.005.9-.1.094-.01.926-.107.023,0c.313-.036.623-.071.936-.1l.089-.01.867-.1.1-.01c.29-.033.58-.066.865-.1l.081-.01.926-.1.02,0c.292-.033.585-.064.875-.1l.127-.013c.28-.033.559-.064.837-.092l.058-.008c.295-.033.59-.064.882-.1l.056-.005c.275-.031.544-.058.811-.089l.122-.013c.257-.028.509-.056.76-.081l.115-.013.788-.084.051-.005.781-.084.15-.015.633-.069.183-.018.595-.064.115-.013a21.316,21.316,0,0,0-6.535,4.8,60.11,60.11,0,0,1-22.191-1.36C500.141,68.793,502.322,68.5,504.7,68.19Zm17.276,21.464c.366.117.753.236,1.157.359a10.708,10.708,0,0,0-.969,3.557c-.5-.147-.867-.257-1.043-.31a4.305,4.305,0,0,1,.137-2.1A3.407,3.407,0,0,1,521.976,89.654Zm-1.111-41c.77.692,2.772,2.922,3,5.149a10.964,10.964,0,0,1-1.551,6.309l-18.733,2.807a3.694,3.694,0,0,1-1.485.42,3.744,3.744,0,0,1-1.46-.224c-2.065-.74-3.7-3.229-4.023-6.327-.018-.163-.033-.328-.043-.493l-.005-.061c-.008-.16-.008-.315-.008-.473a7.881,7.881,0,0,1,2.6-6.327,3.908,3.908,0,0,1,2.177-.837,3.775,3.775,0,0,1,1.75.381C505.092,48.946,520.849,48.656,520.865,48.659Zm-13.4-10.965a3.657,3.657,0,0,1,2.772-2.309,2.883,2.883,0,0,1,2.266.348,6.31,6.31,0,0,1,2.138,2.324,10.392,10.392,0,0,1,1.236,4.3,3.718,3.718,0,0,1-1.676,3.6,3.966,3.966,0,0,1-3.214.567,3.918,3.918,0,0,1-1.78-1.137,7.878,7.878,0,0,0-.516-5.353,13.076,13.076,0,0,0-1.249-2.276Zm-6.329-1.256a4.608,4.608,0,0,1,2.545.308l0,0a2.889,2.889,0,0,1,1,.646,12.026,12.026,0,0,1,2.248,3.4c.821,1.93.821,3.789,0,4.971a4.44,4.44,0,0,1-1.1,1.06,5.132,5.132,0,0,1-3.695,1.025c-1.292-.214-2.843-1.037-3.173-1.927a6.529,6.529,0,0,0,.066-1.671A9.452,9.452,0,0,0,497.15,39.6C497.689,38.731,499.1,36.819,501.138,36.438Zm-2.84,75.219a42.544,42.544,0,0,1-18.1-22.494c-3.448-9.691-4.834-17.919-4.239-25.154a33.783,33.783,0,0,1,5.874-16.559c3.095-4.575,6.388-7.2,9.487-7.819,5.07-1.007,5.688,3.428,5.808,4.786a4.044,4.044,0,0,1-1.577,3.713,3.654,3.654,0,0,1-3.746-.053,4.435,4.435,0,0,1-2.439-2.9.957.957,0,0,0-1.877.379,5.28,5.28,0,0,0,.938,2.113l-.109.01-.038.005a3.01,3.01,0,0,0-.45.089l-.025.008-.089.023-.013,0a2.747,2.747,0,0,0-.506.17l-.051.023a3.8,3.8,0,0,0-.677.346l-.03.018c-.066.041-.15.092-.247.158-.043.031-.086.064-.127.1l-.2.168-.033.025a6.573,6.573,0,0,0-1.7,2.332l0,.01a10.319,10.319,0,0,0-.778,4.773l0,.038a9.685,9.685,0,0,0,1.533,4.676l.005.01a6.914,6.914,0,0,0,1.991,1.986l.02.013c-2.866,2.1-4.87,6.077-1.7,13.563a.961.961,0,0,0,.829.582h.053a.95.95,0,0,0,.834-.491,20.413,20.413,0,0,1,2.461-3.326,10.994,10.994,0,0,1,4.025-2.945,7.245,7.245,0,0,1,.735-.209c.1-.023.219-.051.348-.079a24.773,24.773,0,0,0,4.684,1.526c1.439.343,3.069.651,4.829.9,1.632.229,3.374.409,5.187.521,1.3.079,2.629.122,3.979.122.216,0,.435,0,.654-.005a56.786,56.786,0,0,0,6.446-.42l1.246,10.621a41.875,41.875,0,0,1-.025,4.765,1.973,1.973,0,0,0-.832.493,6.7,6.7,0,0,0-1.4,5.409,2.178,2.178,0,0,0,.414.854,56.208,56.208,0,0,1-8.429,16.1c-1.455,1.828-3.743,3.156-5.978,4.432A43.122,43.122,0,0,1,498.3,111.657ZM444.069,86.646a1.645,1.645,0,0,1,1.1-.765,2.011,2.011,0,0,1,1.6.313c1.063.745,1.867,2.662,2.393,5.7.4,2.3.567,4.806.72,7.018.076,1.142.153,2.22.247,3.082l.1.918.046.412.013.13c.033.292.066.577.1.854l.013.107.043.392,0,.023c.013.132.028.262.046.392l.01.094c.015.13.033.262.048.392v0c.015.13.033.257.048.384l.013.094.051.384v0c.018.127.036.254.053.379l.015.1c.018.125.036.249.056.374v.01l.061.381.015.1.061.381,0,.01c.023.13.046.262.069.394l.018.1c.023.127.046.257.071.387l0,.023c.025.135.053.272.079.409l.023.114c.025.13.051.259.079.394l0,.023a45.419,45.419,0,0,1-7.115-8.5C442.719,94.119,442.686,88.657,444.069,86.646Zm71.99,99.129-.015-.29c-.17-3.3-.358-6.454-.524-9.017q1.838.122,3.679.122a57.358,57.358,0,0,0,8.658-.661c.061,2.37.155,5.447.282,8.7l.013.295c.122,3.046.277,6.222.47,9.152-3.883-.17-7.957-.285-12.124-.331h-.1C516.305,191.117,516.193,188.417,516.059,185.775Zm52.016,18.39c0,4.468-25.052,8.089-55.955,8.089s-55.955-3.621-55.955-8.089c0-4.442,24.759-8.045,55.408-8.089.112.478.221.926.33,1.391s.221.946.331,1.393c.343,1.409.679,2.731,1,3.921.084.305.163.577.244.865s.155.564.231.821c.089.3.173.559.259.834.064.2.127.425.191.61.081.254.16.46.242.684.058.165.12.356.176.5.071.183.137.315.2.47.061.137.125.3.18.414a2.781,2.781,0,0,0,.168.275,2.57,2.57,0,0,0,.176.28c.048.059.091.059.137.092s.107.1.153.1h.01c.29-.013.5-.61.651-1.65.094-.671.163-1.536.208-2.538.071-1.577.086-3.507.059-5.65-.005-.442-.018-.921-.025-1.381s-.015-.926-.028-1.409c4.254.046,8.381.16,12.315.338.079,1,.16,1.953.249,2.833s.186,1.711.287,2.439c.023.173.048.32.071.481.028.186.056.379.084.549.023.125.046.229.066.346.036.178.066.364.1.521.025.127.056.226.084.338s.059.259.092.364.058.17.089.257.061.191.094.264a1.325,1.325,0,0,0,.092.153,1.2,1.2,0,0,0,.1.168c.031.033.064.033.094.051s.071.058.107.058h.008a.282.282,0,0,0,.191-.117c.455-.511.966-2.685,1.487-5.706.148-.872.3-1.816.448-2.8C553.339,197.81,568.075,200.737,568.075,204.165Zm-21.263-36.538c-.6.331-1.218.646-1.841.951-.356.173-.715.346-1.076.509-13.668,6.212-27.539,7.25-41.229,3.082-12.017-3.659-23.7-11.4-33.786-22.39-.1-.112-.206-.226-.308-.338-.7-.773-1.411-1.559-2.1-2.347C451.624,130.138,447.9,117.9,445.2,106.4a51.819,51.819,0,0,0,6.466,6.7l.048.043q.255.221.519.442l.013.01h0l.031.025c.267.224.539.448.816.674l.173.137c.262.209.526.417.8.626l.1.076.109.084q1.369,1.045,2.8,1.981l.135.089c.275.178.549.356.826.531.094.058.191.114.285.175.229.14.458.28.687.417.122.074.244.142.366.216.206.12.409.236.615.353.061.033.117.069.175.1l.041.018a48.893,48.893,0,0,0,9.482,4.063,53.306,53.306,0,0,0,21.924,1.818c1.734,6.9,12.61,26.494,38.231,34.62a42.923,42.923,0,0,0,13.027,1.887,63.013,63.013,0,0,0,11.409-1.106q1.3-.24,2.456-.559A37.432,37.432,0,0,1,546.812,167.627Zm24.464-34.671c-1.935,11.588-6.65,19.531-8.628,21.566-1.889,1.938-4.742,3.237-8.722,3.972-8.9,1.645-16.813,1.4-23.508-.722a61.313,61.313,0,0,1-28.393-18.563c-6.141-7.214-8.541-13.663-8.742-15.654a3.734,3.734,0,0,1,1.312-2.856,1.389,1.389,0,0,1,.821-.353.768.768,0,0,1,.237.038,6.949,6.949,0,0,0,6.683-1.254,37.867,37.867,0,0,1,3.738-2.322c2.433-1.391,4.953-2.828,6.665-4.981a57.714,57.714,0,0,0,8.679-16.483c1.859.549,5.925,1.719,8.147,2.1a55.618,55.618,0,0,0,9.073.872c.142,0,.285,0,.43,0a51.768,51.768,0,0,0,8.569-.745,46.907,46.907,0,0,0,8.2-2.166,56.05,56.05,0,0,0,8.607-3.969l.112-.069a73.859,73.859,0,0,1,6.812,21.235A63.935,63.935,0,0,1,571.276,132.955Zm5.5,9.408.036-.112c.033-.112.069-.224.1-.333.043-.135.084-.272.125-.407l.1-.338.114-.4c.031-.112.061-.226.094-.341.033-.13.069-.262.1-.392.028-.114.058-.231.086-.346s.064-.257.1-.387c.028-.114.053-.229.081-.343.028-.13.059-.257.087-.384s.051-.231.076-.346.053-.252.079-.376.048-.234.071-.351.048-.244.071-.369.043-.234.064-.351.043-.244.064-.366.041-.234.058-.351.038-.242.056-.361.038-.236.053-.353.033-.239.048-.356.033-.236.048-.356.028-.231.041-.348.031-.239.043-.359.023-.224.033-.338.025-.242.036-.364c.01-.107.018-.211.028-.315.01-.13.023-.257.03-.387.008-.084.013-.17.018-.257q.057-.793.079-1.579l.008-.208c0-.142,0-.287.008-.43,0-.084,0-.168.005-.249v-.676c0-.137,0-.27-.005-.4,0-.092,0-.181-.005-.27,0-.132-.008-.264-.01-.4l-.01-.272c-.005-.13-.01-.262-.015-.392-.005-.089-.01-.181-.015-.272-.005-.13-.015-.259-.023-.389-.005-.089-.01-.181-.018-.27-.008-.13-.018-.259-.028-.387l-.02-.267c-.013-.13-.023-.259-.036-.387l-.025-.262c-.013-.13-.025-.259-.041-.389-.008-.084-.018-.17-.028-.257l-.046-.384-.031-.254c-.018-.13-.036-.257-.053-.387l-.033-.247c-.02-.13-.038-.259-.059-.389-.01-.079-.026-.158-.038-.236-.02-.132-.041-.262-.061-.392l-.041-.231c-.023-.132-.046-.264-.069-.394l-.041-.219c-.026-.135-.051-.267-.076-.4l-.041-.2c-.028-.137-.056-.277-.084-.414l-.038-.175c-.031-.145-.064-.29-.094-.435l-.03-.13c-.036-.16-.074-.318-.109-.475l-.005-.02c-.183-.765-.384-1.518-.6-2.255l-.013-.043c-.043-.15-.086-.3-.132-.45l-.038-.127-.13-.412-.048-.16c-.041-.13-.084-.257-.125-.384l-.061-.186c-.041-.122-.081-.244-.122-.364l-.066-.2c-.041-.119-.084-.236-.125-.356l-.071-.2c-.041-.117-.081-.231-.125-.346l-.074-.206c-.043-.112-.084-.221-.125-.333l-.081-.211c-.041-.109-.084-.219-.125-.325l-.084-.211c-.041-.107-.084-.214-.127-.32l-.087-.214-.127-.31-.089-.214c-.043-.1-.086-.206-.13-.308l-.092-.211-.13-.3-.1-.214-.13-.292-.1-.214c-.046-.1-.089-.193-.132-.287l-.1-.214c-.046-.094-.089-.188-.135-.282-.033-.071-.066-.142-.1-.211-.046-.094-.089-.186-.135-.277l-.1-.211-.135-.272-.107-.211c-.043-.089-.089-.178-.132-.264l-.12-.229-.122-.242-.239-.453c-.038-.069-.074-.137-.112-.206-.046-.084-.089-.17-.135-.252l-.109-.2c-.046-.086-.094-.17-.14-.254l-.107-.193-.142-.252-.107-.191c-.048-.081-.1-.165-.142-.247l-.107-.183-.109-.186c-.1-.361-.2-.722-.305-1.083l-.013-.046c-.089-.305-.181-.61-.272-.915l-.028-.092c-.094-.305-.188-.61-.287-.915l-.015-.046c-.023-.079-.048-.155-.074-.234,5.1,5.976,11.049,15.069,10.807,24.787C581.127,136.671,578.838,140.826,576.776,142.364Z" transform="translate(-441.145 -19.994)" fill="#71b3cb"/>
      <path id="Path_39" data-name="Path 39" d="M481.265,39.1a3.353,3.353,0,0,0,3.145-2.967,7.835,7.835,0,0,1-4.6-3.972,3.754,3.754,0,0,0-1.757,3.268A3.463,3.463,0,0,0,481.265,39.1Z" transform="translate(-384.198 -1.225)" fill="#71b3cb"/>
      <path id="Path_40" data-name="Path 40" d="M464.715,40.771a6.519,6.519,0,0,0,.847-3.7c-.142-2.761-1.737-4.943-3.58-4.943-.041,0-.081,0-.12.005a2.978,2.978,0,0,0-2.329,1.589,6.513,6.513,0,0,0-.844,3.7c.14,2.761,1.737,4.941,3.58,4.941.038,0,.079,0,.119,0A2.979,2.979,0,0,0,464.715,40.771Z" transform="translate(-414.095 -1.279)" fill="#71b3cb"/>
      <path id="Path_41" data-name="Path 41" d="M507.533,76.868l-3.827,4.585a1,1,0,0,0,.478,1.643l.468.127a19.034,19.034,0,0,1-1.007,2.571,17.82,17.82,0,0,1-2.255,3.362,18.2,18.2,0,0,1-3.085,2.711,18.685,18.685,0,0,1-3.835,1.93,13.716,13.716,0,0,1-3.112.661c-.112.005-.221.013-.333.015a83.985,83.985,0,0,0,3.369-11.01c.2-.859.379-1.721.549-2.589a18.291,18.291,0,0,0,1.955-.231,16.774,16.774,0,0,0,2.332-.6,1.946,1.946,0,0,0,1.093-.842,1.828,1.828,0,0,0-.656-2.5,1.843,1.843,0,0,0-1.411-.186,16.494,16.494,0,0,1-2.66.648h-.013c.338-2.271.58-4.557.717-6.845q.217-3.6.076-7.2a4.979,4.979,0,0,0,3.829-4.727,4.443,4.443,0,0,0-1.963-3.4,6.727,6.727,0,0,0-7.916.356,4.442,4.442,0,0,0-1.653,3.557,4.935,4.935,0,0,0,4.045,4.323,73.427,73.427,0,0,1-.29,9.752c-.084.875-.186,1.747-.3,2.619q-.1.763-.226,1.526l-.053-.008a36.294,36.294,0,0,1-3.707-.763,1.916,1.916,0,0,0-1.409.186,1.831,1.831,0,0,0,.437,3.346,38.416,38.416,0,0,0,4.076.819,81.685,81.685,0,0,1-2.716,9.925q-.6,1.766-1.284,3.5a8.89,8.89,0,0,1-1.447-.511,10.962,10.962,0,0,1-1.851-1.271,13.507,13.507,0,0,1-1.877-2.118,16.6,16.6,0,0,1-1.612-3.326,26.475,26.475,0,0,1-1.147-5.442l.519-.023a1.038,1.038,0,0,0,.859-1.546l-2.812-5.493a1.038,1.038,0,0,0-1.851.081l-1.92,5.7a1.038,1.038,0,0,0,.992,1.465l.564-.025c.064.631.137,1.261.231,1.887a25.013,25.013,0,0,0,1.622,5.889c1.633,3.9,4.89,7.45,9.159,8.343a16.516,16.516,0,0,0,8.755-.44,20.542,20.542,0,0,0,7.01-4.051,19.66,19.66,0,0,0,5.488-8.279c.089-.262.173-.526.252-.791l.422.117a1,1,0,0,0,1.249-1.17l-.593-5.8A1,1,0,0,0,507.533,76.868Zm-16.3-18.074a1.933,1.933,0,0,1,.753-1.493,3.938,3.938,0,0,1,2.355-.857c.066-.005.132-.005.2-.005a3.9,3.9,0,0,1,2.222.648,1.932,1.932,0,0,1,.882,1.419c.056,1.2-1.368,2.273-3.107,2.35S491.29,59.989,491.236,58.794Z" transform="translate(-390.429 32.279)" fill="#71b3cb"/>
    </g>
    <path id="Path_128" data-name="Path 128" d="M1372.1,365.36a13.947,13.947,0,0,0-24.182-7.676c-.044.051-.089.105-.134.156-.06-.255-.124-.5-.2-.749a13.252,13.252,0,0,0-25.64,6.629,9.827,9.827,0,0,0-2.3-.277c-5.982,0-12.745,5-13.667,9h88.244S1387.171,363.691,1372.1,365.36Z" transform="translate(-106.137 4573.153)" fill="none" stroke="#71b3cb" stroke-width="1"/>
    <path id="Path_129" data-name="Path 129" d="M1353.672,360.43a10.061,10.061,0,0,0-17.444-5.537l-.1.113c-.044-.184-.089-.363-.145-.541a9.559,9.559,0,0,0-18.495,4.782,7.092,7.092,0,0,0-1.659-.2c-4.315,0-9.194,3.608-9.859,6.489h63.654S1364.545,359.226,1353.672,360.43Z" transform="translate(-176.025 4641.731)" fill="none" stroke="#71b3cb" stroke-width="1"/>
    <g id="Ellipse_22" data-name="Ellipse 22" transform="translate(1130.013 4927.279)" fill="none" stroke="#71b3cb" stroke-width="1">
      <circle cx="9.352" cy="9.352" r="9.352" stroke="none"/>
      <circle cx="9.352" cy="9.352" r="8.852" fill="none"/>
    </g>
    <g id="Ellipse_23" data-name="Ellipse 23" transform="translate(1390.611 5090.62)" fill="none" stroke="#71b3cb" stroke-width="1">
      <circle cx="9.352" cy="9.352" r="9.352" stroke="none"/>
      <circle cx="9.352" cy="9.352" r="8.852" fill="none"/>
    </g>
  </g>
</svg>
