<svg xmlns="http://www.w3.org/2000/svg" width="1306.999" height="678.725" viewBox="0 0 1306.999 678.725">
  <path id="Path_127" data-name="Path 127" d="M8223.447,3777.336S7904.572,3789.807,7844,3809.4s-51.679,18.849-54.842,32.552,23.19,12.649,24.244,24.244,6.325,14.757-24.244,12.649-389.281,19.078-513.981,41-322.027,61.664-354.916,108.255,150.736,139.773,397.4,142.514,245.289,21.926,257.622,39.74-79.479,9.592-93.182,27.406,75.369,16.444,100.035,23.3-.745,6.314-44.524,10.8-29.6,15.724,31.229,15.233c.469.234,114-4.751,114-4.751s65.516,4.149,84.952,17.908c26.036,28.776-200.728,23.842-252.8,33.434s-156.217,16.444-32.888,58.924,741.347,63.447,741.347,63.447Z" transform="translate(8223.447 4456.062) rotate(180)" fill="#b5e4fa" opacity="0.45"/>
</svg>
