<svg xmlns="http://www.w3.org/2000/svg" width="1920" height="83" viewBox="0 0 1920 83">
  <path id="Path_137" data-name="Path 137" d="M1920,657.5c-38.4,0-38.4-40-76.807-40s-38.4,40-76.807,40-38.4-40-76.8-40-38.4,40-76.8,40-38.4-40-76.8-40-38.4,40-76.8,40-38.4-40-76.8-40-38.4,40-76.8,40-38.4-40-76.8-40-38.4,40-76.8,40-38.4-40-76.8-40-38.4,40-76.794,40-38.4-40-76.8-40-38.4,40-76.8,40-38.4-40-76.8-40-38.4,40-76.8,40-38.4-40-76.8-40-38.4,40-76.8,40-38.4-40-76.8-40-38.4,40-76.8,40-38.4-40-76.8-40-38.4,40-76.8,40-38.4-40-76.8-40-38.4,40-76.8,40-38.4-40-76.8-40v83H1919.5Z" transform="translate(0 -617.5)" fill="#fff"/>
</svg>
