<?xml version="1.0" standalone="no"?>
<!DOCTYPE svg PUBLIC "-//W3C//DTD SVG 20010904//EN"
 "http://www.w3.org/TR/2001/REC-SVG-20010904/DTD/svg10.dtd">
<svg version="1.0" xmlns="http://www.w3.org/2000/svg"
 width="668.000000pt" height="668.000000pt" viewBox="0 0 668.000000 668.000000"
 preserveAspectRatio="xMidYMid meet">
<metadata>
Created by potrace 1.11, written by Peter Selinger 2001-2013
</metadata>
<g transform="translate(0.000000,668.000000) scale(0.100000,-0.100000)"
fill="#000000" stroke="none">
<path d="M3128 6675 c-1 -2 -34 -6 -73 -9 -38 -3 -81 -8 -95 -10 -14 -2 -47
-7 -73 -11 -27 -4 -59 -8 -70 -11 -12 -2 -33 -6 -47 -9 -70 -13 -110 -23 -195
-46 -115 -32 -179 -51 -190 -58 -5 -3 -16 -6 -23 -7 -48 -8 -376 -156 -477
-216 -154 -92 -326 -206 -345 -228 -3 -3 -23 -19 -45 -36 -21 -16 -46 -36 -55
-44 -9 -8 -34 -30 -55 -48 -120 -101 -343 -342 -415 -447 -8 -13 -47 -69 -86
-126 -99 -146 -195 -320 -249 -449 -15 -36 -35 -83 -45 -105 -45 -100 -133
-401 -155 -530 -21 -119 -25 -144 -29 -180 -3 -22 -9 -65 -13 -95 -10 -74 -10
-498 0 -580 15 -117 26 -199 32 -220 2 -8 6 -31 9 -50 9 -57 14 -81 36 -165
12 -44 23 -87 25 -95 6 -24 62 -190 83 -245 77 -200 175 -390 291 -564 31 -46
61 -91 66 -100 6 -9 12 -18 15 -21 3 -3 21 -25 40 -50 52 -68 63 -81 82 -102
10 -10 16 -18 14 -18 -4 0 27 -33 145 -156 32 -34 91 -90 130 -125 39 -35 77
-69 83 -74 6 -6 44 -35 83 -65 40 -30 73 -58 73 -62 0 -5 5 -8 10 -8 6 0 50
-26 98 -58 163 -109 453 -262 496 -262 9 0 16 -4 16 -9 0 -5 17 -13 38 -19 20
-6 84 -27 142 -47 94 -33 220 -70 275 -81 18 -3 115 -23 140 -29 14 -3 93 -15
135 -20 44 -6 143 -16 192 -19 21 -1 39 -4 41 -7 5 -6 67 -292 64 -296 -2 -1
-111 -5 -242 -8 -132 -4 -265 -8 -295 -10 -219 -15 -358 -25 -390 -30 -14 -2
-43 -6 -65 -9 -22 -3 -60 -8 -85 -12 -25 -3 -56 -8 -70 -9 -166 -20 -384 -87
-408 -126 -40 -63 56 -117 288 -163 92 -19 121 -23 185 -31 28 -3 61 -7 75
-10 14 -3 52 -8 85 -11 33 -2 80 -7 105 -9 268 -24 422 -30 830 -30 454 0 708
11 940 40 14 1 57 6 95 9 39 4 77 9 85 11 8 2 33 7 55 10 22 2 51 7 65 10 25
5 106 21 145 29 30 7 130 43 156 57 36 19 49 35 49 63 0 44 -91 85 -275 125
-111 24 -158 32 -210 36 -22 2 -40 4 -40 5 0 2 -33 6 -120 15 -98 11 -127 13
-240 20 -55 3 -103 10 -108 14 -4 4 2 87 14 184 24 189 20 181 85 192 69 11
242 60 334 93 8 3 20 6 25 7 69 16 467 197 473 216 2 5 8 9 13 9 9 0 189 108
199 119 3 4 23 18 46 32 215 140 504 429 722 724 29 40 82 127 82 135 0 5 4
10 9 10 5 0 14 14 21 31 7 17 18 36 24 42 19 20 112 207 155 312 23 55 46 109
51 120 7 16 19 50 25 75 1 3 4 12 8 20 12 30 58 184 68 229 21 89 18 78 43
208 3 11 8 43 12 70 3 26 8 57 10 68 26 140 25 619 -1 754 -2 13 -7 42 -9 65
-7 53 -15 94 -23 126 -9 36 -12 52 -18 85 -4 26 -10 49 -30 125 -2 8 -14 47
-26 85 -12 39 -24 75 -25 80 -13 59 -117 303 -176 415 -76 143 -83 155 -90
158 -5 2 -8 8 -8 14 0 8 -135 215 -150 228 -3 3 -18 23 -35 45 -16 22 -31 42
-34 45 -4 3 -24 28 -46 55 -47 60 -291 304 -359 360 -100 83 -238 182 -338
244 -93 59 -318 177 -393 208 -17 7 -63 26 -102 42 -40 16 -73 28 -73 25 0 -2
-13 2 -29 11 -17 8 -39 16 -50 18 -11 2 -24 6 -27 10 -4 4 -17 7 -29 7 -11 0
-25 4 -30 8 -9 8 -75 26 -133 37 -13 2 -31 6 -40 9 -9 3 -29 7 -45 10 -15 3
-35 7 -45 10 -25 7 -114 22 -192 31 -25 3 -58 8 -75 11 -33 6 -511 14 -517 9z
m1926 -3691 c17 -27 37 -59 44 -70 80 -124 141 -333 136 -464 -2 -57 -14 -183
-19 -210 -21 -113 -47 -181 -85 -230 -15 -19 -20 -21 -20 -8 0 9 4 27 9 41 5
13 12 41 16 63 3 21 10 62 15 89 13 72 4 307 -14 399 -9 43 -30 117 -46 165
-17 47 -32 91 -33 96 -7 23 -80 171 -92 185 -7 8 -15 29 -18 45 -3 17 -9 39
-13 50 -9 26 79 -85 120 -151z m-758 4 c43 -20 76 -75 69 -116 -8 -49 -33 -88
-72 -109 l-33 -18 -1 -95 c-1 -106 -3 -147 -13 -237 -5 -46 -3 -61 6 -59 7 2
30 6 51 11 45 9 79 -14 72 -49 -2 -11 -4 -24 -4 -28 -1 -9 -89 -37 -124 -40
-21 -2 -29 -9 -33 -28 -4 -14 -15 -59 -25 -100 -11 -41 -21 -82 -23 -90 -10
-42 -40 -126 -47 -135 -21 -22 -9 -35 28 -29 127 20 258 119 316 237 31 64 33
75 12 83 -8 4 -15 12 -15 19 0 19 121 165 136 165 20 0 32 -29 37 -97 3 -34 7
-66 10 -70 9 -16 -13 -53 -31 -53 -12 0 -22 -13 -31 -37 -47 -133 -170 -259
-307 -317 -221 -92 -434 -22 -532 175 -33 67 -72 202 -67 231 2 10 -5 18 -21
22 -31 8 -31 33 0 120 13 36 22 66 19 66 -4 0 2 9 11 19 10 11 24 17 32 14 21
-8 105 -179 98 -198 -3 -8 -14 -15 -23 -15 -12 0 -17 -7 -15 -22 1 -13 3 -23
4 -23 1 0 4 -13 6 -30 6 -39 40 -129 61 -163 38 -61 136 -135 153 -115 10 11
61 153 55 153 -3 0 1 14 10 30 9 17 13 30 9 30 -4 0 -1 7 6 15 7 8 10 15 7 15
-3 0 0 20 7 45 8 25 12 45 10 45 -3 0 0 9 6 19 9 17 5 20 -41 30 -27 6 -56 11
-63 11 -33 0 -56 69 -30 90 20 18 68 16 133 -5 13 -4 21 0 25 12 10 36 18 131
21 256 2 115 1 127 -15 127 -25 0 -87 65 -95 100 -15 70 43 144 128 159 44 8
76 2 123 -21z m-2831 -93 c68 -67 172 -155 184 -155 5 0 11 -4 13 -9 11 -29
309 -180 386 -197 44 -9 47 -9 57 -16 15 -9 143 -33 235 -44 54 -7 250 -7 303
-1 34 4 40 2 49 -22 30 -75 65 -150 88 -186 14 -22 29 -47 32 -55 7 -18 98
-139 143 -189 65 -74 166 -169 230 -219 6 -4 29 -22 51 -40 23 -17 47 -32 53
-32 6 0 11 -4 11 -8 0 -5 10 -14 23 -20 12 -6 47 -26 77 -43 59 -35 121 -66
185 -93 22 -10 52 -24 68 -32 15 -9 27 -13 27 -10 0 3 20 -3 45 -14 25 -11 45
-18 45 -16 0 2 21 -3 48 -11 26 -8 58 -16 72 -18 14 -2 46 -8 71 -13 49 -9
329 -8 389 2 19 4 51 8 70 11 19 3 50 9 68 14 17 5 32 6 32 2 0 -12 -62 -72
-120 -115 -30 -22 -57 -44 -60 -47 -11 -14 -198 -108 -265 -134 -38 -15 -83
-32 -100 -38 -16 -6 -34 -12 -40 -13 -5 -1 -28 -6 -50 -12 -22 -6 -51 -13 -65
-16 -14 -3 -36 -7 -50 -10 -14 -3 -45 -9 -70 -12 -24 -3 -56 -8 -70 -10 -35
-5 -291 -5 -316 0 -12 2 -45 7 -75 11 -30 4 -81 13 -114 21 -33 8 -71 17 -85
20 -37 9 -43 10 -65 18 -11 5 -33 13 -50 19 -16 5 -50 19 -75 29 -25 11 -54
23 -65 27 -46 19 -153 76 -193 102 -24 16 -45 29 -48 29 -6 0 -122 78 -141 94
-7 6 -23 19 -35 28 -145 107 -362 325 -501 503 -26 33 -53 67 -61 75 -18 21
-148 215 -180 270 -47 83 -142 283 -151 320 -2 8 -12 35 -21 60 -17 47 -52
160 -60 195 -2 11 -6 29 -9 40 -2 11 -7 31 -11 44 -6 20 1 16 32 -19 21 -25
48 -54 59 -65z m2246 -1872 c1 -5 3 -46 4 -93 6 -167 16 -366 21 -422 l5 -58
-172 4 c-94 3 -173 6 -175 8 -2 2 -6 67 -9 144 -3 76 -8 177 -11 224 -3 47 -7
108 -8 135 l-3 50 102 -1 c56 0 122 2 146 5 75 11 99 12 100 4z"/>
</g>
</svg>
