<svg xmlns="http://www.w3.org/2000/svg" width="266.641" height="359.085" viewBox="0 0 266.641 359.085">
  <g id="Group_82" data-name="Group 82" transform="translate(-1406.109 -2142.6)">
    <g id="Group_73" data-name="Group 73" transform="translate(876.324 2369.027)">
      <g id="Group_11" data-name="Group 11" transform="translate(530.676 86.978)">
        <path id="Path_120" data-name="Path 120" d="M795.676,68.9c-13.24,0-13.24-9.925-26.475-9.925s-13.24,9.925-26.48,9.925-13.25-9.925-26.495-9.925-13.25,9.925-26.5,9.925-13.25-9.925-26.5-9.925-13.255,9.925-26.5,9.925-13.245-9.925-26.485-9.925c-13.26,0-13.26,9.925-26.515,9.925s-13.265-9.925-26.53-9.925S543.941,68.9,530.676,68.9" transform="translate(-530.676 -58.974)" fill="none" stroke="#fff" stroke-linecap="round" stroke-linejoin="round" stroke-width="1.5"/>
      </g>
      <g id="Group_12" data-name="Group 12" transform="translate(530.676 51.973)">
        <path id="Path_121" data-name="Path 121" d="M795.676,61.893c-13.24,0-13.24-9.92-26.475-9.92s-13.24,9.92-26.48,9.92-13.25-9.92-26.495-9.92-13.25,9.92-26.5,9.92-13.25-9.92-26.5-9.92-13.255,9.92-26.5,9.92-13.245-9.92-26.485-9.92c-13.26,0-13.26,9.92-26.515,9.92s-13.265-9.92-26.53-9.92-13.26,9.92-26.525,9.92" transform="translate(-530.676 -51.973)" fill="none" stroke="#fff" stroke-linecap="round" stroke-linejoin="round" stroke-width="1.5"/>
      </g>
      <g id="Group_13" data-name="Group 13" transform="translate(530.676 121.988)">
        <path id="Path_122" data-name="Path 122" d="M795.676,75.9c-13.24,0-13.24-9.92-26.475-9.92s-13.24,9.92-26.48,9.92-13.25-9.92-26.495-9.92-13.25,9.92-26.5,9.92-13.25-9.92-26.5-9.92-13.255,9.92-26.5,9.92-13.245-9.92-26.485-9.92c-13.26,0-13.26,9.92-26.515,9.92s-13.265-9.92-26.53-9.92-13.26,9.92-26.525,9.92" transform="translate(-530.676 -65.976)" fill="none" stroke="#fff" stroke-linecap="round" stroke-linejoin="round" stroke-width="1.5"/>
      </g>
    </g>
    <path id="Path_132" data-name="Path 132" d="M1390.881,370.386a17.909,17.909,0,0,0-31.052-9.856c-.057.065-.115.135-.172.2-.078-.328-.16-.647-.258-.962a17.016,17.016,0,0,0-32.923,8.512,12.62,12.62,0,0,0-2.953-.356c-7.681,0-16.365,6.423-17.549,11.552h113.311S1410.237,368.243,1390.881,370.386Z" transform="translate(101.078 1795.683)" fill="none" stroke="#fff" stroke-width="1.5"/>
    <g id="Group_75" data-name="Group 75" transform="translate(1537.597 2269.139)">
      <path id="Path_104" data-name="Path 104" d="M1397.567,354.016a26.316,26.316,0,0,0-8.578,1.44,15.993,15.993,0,0,0-30.079-10.024A23.792,23.792,0,0,0,1315.4,355.6a26.515,26.515,0,0,0-5.721-.633,26.16,26.16,0,0,0-21.853,11.764h132.2A26.167,26.167,0,0,0,1397.567,354.016Z" transform="translate(-1287.822 -334.685)" fill="none" stroke="#fff" stroke-width="1.5"/>
    </g>
  </g>
</svg>
